<?xml version="1.0" encoding="utf-8"?>
<!-- Generator: Adobe Illustrator 15.0.0, SVG Export Plug-In . SVG Version: 6.00 Build 0)  -->
<!DOCTYPE svg PUBLIC "-//W3C//DTD SVG 1.1//EN" "http://www.w3.org/Graphics/SVG/1.1/DTD/svg11.dtd">
<svg version="1.1" id="Слой_1" xmlns="http://www.w3.org/2000/svg" xmlns:xlink="http://www.w3.org/1999/xlink" x="0px" y="0px"
	 width="16px" height="16px" viewBox="0 0 16 16" enable-background="new 0 0 16 16" xml:space="preserve">
<g>
	<path fill="#F15A24" d="M6.415,15.768c-0.076-0.029-0.125-0.064-0.148-0.102c-0.022-0.037-0.034-0.072-0.034-0.102
		c0-0.061,0.015-0.121,0.046-0.182c0.029-0.061,0.045-0.127,0.045-0.203c0-0.061,0.01-0.215,0.033-0.465
		c0.022-0.25,0.045-0.545,0.067-0.883c0.023-0.34,0.053-0.699,0.092-1.076c0.037-0.377,0.068-0.721,0.09-1.029
		c0.023-0.311,0.045-0.564,0.068-0.76c0.022-0.195,0.033-0.285,0.033-0.271c0-0.014-0.007-0.076-0.022-0.182
		c-0.016-0.105-0.027-0.223-0.034-0.352c-0.008-0.127-0.02-0.24-0.034-0.34C6.603,9.725,6.596,9.66,6.596,9.631
		c0-0.393,0.007-0.713,0.023-0.963c0.015-0.248,0.026-0.461,0.034-0.633C6.66,7.86,6.671,7.709,6.687,7.581
		C6.702,7.454,6.708,7.32,6.708,7.185c0-0.212-0.022-0.476-0.067-0.793c-0.045-0.317-0.083-0.573-0.113-0.77
		c0.076-0.031,0.113-0.076,0.113-0.135c0-0.061-0.038-0.119-0.113-0.171C6.452,5.263,6.407,5.215,6.392,5.169
		c0.076-0.076,0.136-0.147,0.181-0.215s0.103-0.125,0.169-0.17c0.069-0.045,0.151-0.083,0.25-0.113
		c0.098-0.03,0.23-0.045,0.396-0.045h1.562c0.105,0,0.182,0.087,0.227,0.261C9.224,5.06,9.253,5.271,9.268,5.52
		c0.016,0.249,0.027,0.513,0.034,0.792c0.008,0.28,0.027,0.532,0.058,0.758c0,0.106-0.012,0.31-0.034,0.613
		C9.302,7.985,9.28,8.333,9.257,8.724C9.235,9.117,9.215,9.525,9.201,9.947c-0.016,0.422-0.023,0.809-0.023,1.154
		c0,0.35,0.015,0.688,0.046,1.021c0.029,0.33,0.06,0.67,0.09,1.018c0.031,0.348,0.061,0.713,0.091,1.1
		c0.03,0.385,0.045,0.795,0.045,1.232c0,0.076-0.02,0.158-0.057,0.248c-0.038,0.092-0.102,0.137-0.191,0.137
		c-0.287,0-0.537-0.004-0.749-0.012s-0.418-0.018-0.623-0.033c-0.204-0.016-0.419-0.027-0.645-0.033
		C6.958,15.771,6.702,15.768,6.415,15.768z M6.708,2.701c0-0.03,0.005-0.086,0.013-0.169c0.006-0.083,0.011-0.17,0.011-0.261
		c0-0.287-0.011-0.6-0.034-0.94C6.676,0.992,6.664,0.723,6.664,0.527c0-0.045,0.012-0.102,0.035-0.17
		C6.721,0.29,6.792,0.218,6.913,0.142h1.653c0.211,0,0.359,0.102,0.441,0.306C9.09,0.65,9.144,0.886,9.167,1.149
		c0.022,0.265,0.029,0.518,0.022,0.758C9.183,2.15,9.201,2.309,9.246,2.384c0,0.136-0.004,0.242-0.012,0.317
		C9.228,2.777,9.201,2.836,9.155,2.882c-0.03,0-0.076-0.003-0.136-0.011C8.959,2.863,8.891,2.859,8.814,2.859
		c-0.09,0-0.177,0.008-0.258,0.022C8.473,2.897,8.408,2.927,8.362,2.973c-0.06-0.045-0.158-0.076-0.294-0.091
		c-0.136-0.015-0.28-0.022-0.431-0.022c-0.166,0-0.313,0.004-0.44,0.012C7.068,2.879,6.973,2.882,6.914,2.882L6.708,2.701z
		 M6.981,5.147c0,0.015,0.007,0.064,0.022,0.146c0.014,0.084,0.034,0.17,0.057,0.261c0.023,0.09,0.052,0.173,0.091,0.249
		c0.036,0.076,0.071,0.113,0.101,0.113c0.076,0,0.166-0.037,0.272-0.113C7.63,5.728,7.739,5.645,7.853,5.555
		c0.114-0.09,0.223-0.177,0.33-0.261c0.105-0.082,0.195-0.132,0.271-0.146H6.981z M7.886,13.912
		c-0.075,0.045-0.161,0.082-0.259,0.113c-0.099,0.029-0.196,0.063-0.294,0.1c-0.099,0.039-0.181,0.09-0.249,0.148
		c-0.067,0.061-0.102,0.135-0.102,0.227c0,0.029,0,0.066,0,0.113c0,0.045,0.007,0.076,0.022,0.09
		c0.105-0.164,0.258-0.305,0.453-0.418c0.197-0.115,0.371-0.209,0.521-0.283L7.886,13.912z M7.117,6.687
		c0,0.121,0.008,0.237,0.023,0.351c0.015,0.113,0.052,0.17,0.113,0.17c0.105,0,0.227-0.046,0.363-0.136
		c0.136-0.091,0.271-0.196,0.408-0.317c0.136-0.121,0.26-0.241,0.374-0.362c0.113-0.121,0.199-0.212,0.26-0.272
		c-0.076,0.015-0.2,0.045-0.374,0.09C8.108,6.257,7.939,6.306,7.773,6.358C7.607,6.412,7.456,6.468,7.32,6.528
		C7.186,6.588,7.117,6.642,7.117,6.687z M7.186,11.963c0.211-0.074,0.414-0.18,0.611-0.316c0.195-0.137,0.354-0.295,0.476-0.475
		c-0.227,0.088-0.465,0.188-0.714,0.293c-0.25,0.105-0.396,0.174-0.442,0.205L7.186,11.963z M8.272,12.529
		c-0.016,0-0.084,0.012-0.204,0.033c-0.122,0.023-0.253,0.051-0.397,0.08c-0.144,0.031-0.272,0.064-0.385,0.102
		c-0.113,0.039-0.169,0.072-0.169,0.104v0.68c0.197-0.137,0.366-0.258,0.51-0.363c0.143-0.105,0.294-0.211,0.454-0.316
		c0.157-0.105,0.282-0.205,0.373-0.295h-0.09H8.295C8.279,12.553,8.272,12.545,8.272,12.529z M8.657,13.912
		c-0.062,0.105-0.159,0.199-0.295,0.281c-0.136,0.084-0.282,0.162-0.442,0.238c-0.158,0.076-0.309,0.158-0.453,0.248
		c-0.143,0.092-0.26,0.197-0.351,0.318c0.061,0,0.185-0.016,0.374-0.045c0.188-0.031,0.385-0.072,0.589-0.125
		c0.203-0.053,0.384-0.113,0.543-0.182c0.158-0.066,0.236-0.139,0.236-0.215c0-0.016-0.024-0.094-0.078-0.238
		C8.729,14.051,8.687,13.957,8.657,13.912z M8.317,7.456c-0.106,0-0.227,0.016-0.363,0.046c-0.135,0.03-0.259,0.075-0.373,0.136
		C7.467,7.699,7.37,7.774,7.286,7.864C7.205,7.955,7.162,8.061,7.162,8.182c0.21,0,0.45-0.075,0.714-0.228
		C8.14,7.804,8.331,7.646,8.453,7.479H8.385H8.339C8.325,7.479,8.317,7.472,8.317,7.456z M7.298,10.016
		c-0.076,0.076-0.118,0.197-0.125,0.363c-0.006,0.166-0.011,0.34-0.011,0.52h0.136c0.045,0,0.132-0.037,0.261-0.113
		c0.128-0.074,0.268-0.162,0.418-0.258c0.151-0.1,0.291-0.197,0.42-0.297c0.128-0.098,0.215-0.17,0.26-0.215
		C8.641,10,8.611,9.979,8.566,9.947C8.52,9.918,8.483,9.902,8.453,9.902c-0.122,0-0.26,0.033-0.418,0.104
		c-0.159,0.068-0.307,0.102-0.441,0.102c-0.031,0-0.084-0.016-0.16-0.047C7.358,10.031,7.313,10.016,7.298,10.016z M7.186,0.844
		c0,0.122,0.037,0.249,0.113,0.385l0.587-0.588c-0.059,0-0.112-0.004-0.158-0.012c-0.045-0.007-0.09-0.012-0.135-0.012
		C7.321,0.617,7.186,0.693,7.186,0.844z M8.77,7.661c-0.105,0.046-0.233,0.102-0.385,0.17C8.234,7.898,8.083,7.974,7.932,8.058
		C7.782,8.14,7.637,8.234,7.502,8.34C7.366,8.446,7.261,8.552,7.186,8.657h0.113c0.015-0.014,0.067-0.036,0.157-0.067
		c0.091-0.031,0.205-0.061,0.34-0.09C7.932,8.468,8.08,8.438,8.237,8.408c0.159-0.029,0.299-0.045,0.42-0.045L8.77,7.661z
		 M7.186,8.929c0,0.286,0.002,0.479,0.01,0.577c0.009,0.1,0.042,0.17,0.103,0.215C7.389,9.6,7.494,9.498,7.615,9.416
		C7.736,9.334,7.86,9.254,7.989,9.178c0.129-0.076,0.252-0.15,0.374-0.226c0.121-0.076,0.219-0.175,0.295-0.295
		c-0.017,0-0.038-0.003-0.067-0.012C8.559,8.638,8.536,8.634,8.521,8.634c-0.092,0-0.196,0.016-0.317,0.045
		C8.083,8.709,7.954,8.74,7.82,8.77C7.683,8.8,7.559,8.831,7.446,8.86C7.332,8.891,7.245,8.914,7.186,8.929z M8.793,11.262
		c-0.075,0-0.201,0.057-0.374,0.17c-0.174,0.113-0.344,0.238-0.51,0.375c-0.166,0.135-0.313,0.271-0.442,0.406
		c-0.128,0.135-0.192,0.227-0.192,0.271c0.483,0,0.856-0.094,1.121-0.281C8.66,12.014,8.793,11.699,8.793,11.262z M8.657,5.396
		c-0.076,0-0.185,0.044-0.329,0.136C8.185,5.623,8.037,5.721,7.886,5.827c-0.15,0.105-0.282,0.207-0.395,0.305
		C7.377,6.23,7.313,6.287,7.298,6.302c0.074-0.015,0.188-0.042,0.339-0.08c0.151-0.038,0.302-0.079,0.454-0.124
		c0.15-0.045,0.282-0.083,0.396-0.113s0.17-0.053,0.17-0.069L8.657,5.396L8.657,5.396z M7.637,1.297
		c-0.075,0-0.139,0.026-0.192,0.079c-0.054,0.053-0.079,0.11-0.079,0.169c0,0.016,0.011,0.035,0.033,0.057
		c0.023,0.022,0.042,0.042,0.057,0.056c0.061,0,0.106-0.037,0.137-0.113C7.622,1.47,7.637,1.387,7.637,1.297z M7.389,2.316h1.178
		V1.614L8.498,1.545C8.467,1.531,8.446,1.516,8.43,1.5C8.295,1.561,8.166,1.622,8.045,1.682C7.94,1.727,7.827,1.77,7.706,1.807
		c-0.12,0.038-0.227,0.072-0.317,0.101L7.389,2.316L7.389,2.316z M7.389,13.844c0.196,0,0.411-0.043,0.646-0.125
		c0.234-0.084,0.44-0.148,0.623-0.191c0-0.076,0.004-0.148,0.011-0.217c0.008-0.066,0.012-0.152,0.012-0.26
		c0-0.045-0.008-0.092-0.022-0.137c-0.016-0.045-0.045-0.066-0.091-0.066c-0.014,0.014-0.068,0.053-0.158,0.111
		c-0.09,0.063-0.197,0.137-0.316,0.229c-0.122,0.09-0.246,0.184-0.375,0.281c-0.127,0.1-0.238,0.186-0.328,0.262L7.389,13.844
		L7.389,13.844z M8.77,6.483C8.513,6.574,8.279,6.709,8.068,6.89c-0.211,0.181-0.4,0.378-0.566,0.589l1.155-0.408
		c0.046-0.014,0.075-0.067,0.091-0.159C8.763,6.823,8.77,6.732,8.77,6.641V6.483z M7.593,11.08l-0.091,0.092
		c0.015,0.014,0.03,0.021,0.045,0.021h0.045c0.316,0,0.606-0.072,0.871-0.215c0.264-0.145,0.396-0.365,0.396-0.668L7.593,11.08z
		 M8.385,9.359c-0.166,0-0.31,0.068-0.431,0.203c-0.12,0.137-0.181,0.219-0.181,0.25c0.031,0,0.099-0.008,0.204-0.021
		c0.106-0.016,0.215-0.037,0.329-0.059C8.419,9.709,8.574,9.676,8.77,9.631C8.664,9.449,8.536,9.359,8.385,9.359z M8.339,0.641
		c-0.121,0-0.225,0.086-0.316,0.26C7.932,1.075,7.886,1.213,7.886,1.32v0.113c0.106-0.031,0.25-0.083,0.432-0.159
		C8.498,1.199,8.619,1.123,8.68,1.048c0-0.076-0.033-0.162-0.103-0.261C8.51,0.689,8.43,0.641,8.339,0.641z M7.978,15.18
		c0.045,0.029,0.095,0.057,0.147,0.078c0.053,0.021,0.117,0.035,0.193,0.035c0.166,0,0.316-0.02,0.452-0.057
		c0.137-0.037,0.204-0.17,0.204-0.396c-0.196,0-0.366,0.027-0.51,0.078C8.32,14.971,8.159,15.059,7.978,15.18z"/>
</g>
</svg>
