<?xml version="1.0" encoding="utf-8"?>
<!-- Generator: Adobe Illustrator 15.0.0, SVG Export Plug-In . SVG Version: 6.00 Build 0)  -->
<!DOCTYPE svg PUBLIC "-//W3C//DTD SVG 1.1//EN" "http://www.w3.org/Graphics/SVG/1.1/DTD/svg11.dtd">
<svg version="1.1" xmlns="http://www.w3.org/2000/svg" xmlns:xlink="http://www.w3.org/1999/xlink" x="0px" y="0px" width="16px"
	 height="16px" viewBox="0 0 16 16" enable-background="new 0 0 16 16" xml:space="preserve">
<g id="Слой_2">
	<defs>
		<rect id="SVGID_1_" width="16" height="16"/>
	</defs>
	<clipPath id="SVGID_2_">
		<use xlink:href="#SVGID_1_"  overflow="visible"/>
	</clipPath>
	<rect clip-path="url(#SVGID_2_)" fill="#339933" width="16" height="16"/>
	<path clip-path="url(#SVGID_2_)" fill="#FFFFFF" d="M5.671,5.803c-0.149,0.186-0.347,0.19-0.434-0.029
		C5.208,5.706,5.162,5.626,5.195,5.57C6.063,4.145,7.26,4.194,7.679,4.174c0.062,0,0.093,0.09,0.121,0.174
		c0.042,0.089,0.063,0.17,0.059,0.244c0,0.069-0.02,0.119-0.063,0.139C7.767,4.749,6.733,4.466,5.671,5.803z"/>
	<path clip-path="url(#SVGID_2_)" fill="#FFFFFF" d="M17.16,2.643c0.166-0.164,0.362-0.149,0.431,0.08
		c0.02,0.075,0.056,0.162,0.012,0.213c-1.023,1.313-2.208,1.125-2.625,1.1c-0.062-0.006-0.082-0.102-0.104-0.188
		c-0.028-0.095-0.037-0.18-0.028-0.25c0.008-0.069,0.031-0.115,0.08-0.133C14.953,3.454,15.949,3.855,17.16,2.643z"/>
	<path clip-path="url(#SVGID_2_)" fill="#FFFFFF" d="M9.763,4.749c-0.252-0.028-0.36-0.162-0.334-0.396
		C9.436,4.279,9.46,4.209,9.495,4.159c0.033-0.06,0.074-0.088,0.129-0.081c0.028,0.005,0.082,0.015,0.163,0.025
		c0.143,0.031,0.263,0.055,0.351,0.06c0.075,0.011,0.293,0,0.647-0.022c0.285-0.022,0.467-0.026,0.539-0.022
		c0.115,0,0.308-0.015,0.578-0.053c0.17-0.021,0.27-0.031,0.308-0.031c0.058,0.009,0.104,0.043,0.129,0.095
		c0.028,0.053,0.039,0.123,0.028,0.208c-0.01,0.1-0.035,0.18-0.069,0.244c-0.037,0.06-0.073,0.093-0.124,0.093
		c-0.033-0.007-0.122,0-0.26,0.005c-0.293,0.01-0.511,0.016-0.665,0.01c-0.101,0-0.287,0.01-0.568,0.036
		C10.245,4.764,9.94,4.775,9.763,4.749z"/>
	<path clip-path="url(#SVGID_2_)" fill="#FFFFFF" d="M3.823,8.17c0.024-0.253,0.159-0.363,0.393-0.338
		c0.074,0.01,0.143,0.031,0.203,0.065C4.476,7.933,4.5,7.977,4.497,8.03C4.491,8.056,4.484,8.111,4.468,8.189
		C4.438,8.334,4.416,8.455,4.407,8.543c-0.009,0.074,0,0.29,0.025,0.647C4.45,9.478,4.458,9.652,4.453,9.727
		c-0.003,0.114,0.015,0.312,0.053,0.577c0.024,0.169,0.033,0.272,0.028,0.309c-0.01,0.058-0.038,0.107-0.092,0.134
		c-0.057,0.025-0.121,0.038-0.208,0.025c-0.101-0.016-0.183-0.031-0.247-0.067c-0.062-0.037-0.09-0.073-0.087-0.123
		c0-0.038-0.002-0.122-0.005-0.262c-0.017-0.294-0.021-0.517-0.013-0.667c0-0.1-0.01-0.29-0.039-0.566
		C3.808,8.653,3.799,8.344,3.823,8.17z"/>
	<path clip-path="url(#SVGID_2_)" fill="#FFFFFF" d="M3.823,13.201c0.024-0.25,0.159-0.361,0.393-0.335
		c0.074,0.011,0.143,0.03,0.203,0.062c0.057,0.034,0.081,0.083,0.078,0.135c-0.006,0.028-0.013,0.081-0.028,0.161
		c-0.031,0.143-0.052,0.266-0.062,0.351c-0.009,0.075,0,0.294,0.025,0.651c0.018,0.287,0.026,0.462,0.021,0.536
		c-0.003,0.114,0.015,0.31,0.053,0.581c0.024,0.165,0.033,0.266,0.028,0.305c-0.01,0.058-0.038,0.1-0.092,0.128
		c-0.057,0.031-0.121,0.042-0.208,0.025c-0.101-0.01-0.183-0.031-0.247-0.064c-0.062-0.034-0.09-0.075-0.087-0.12
		c0-0.038-0.002-0.123-0.005-0.262c-0.017-0.294-0.021-0.518-0.013-0.667c0-0.101-0.01-0.289-0.039-0.571
		C3.808,13.687,3.799,13.377,3.823,13.201z"/>
</g>
<g id="Слой_1">
</g>
</svg>
