<?xml version="1.0" standalone="no"?>
<!DOCTYPE svg PUBLIC "-//W3C//DTD SVG 20010904//EN"
 "http://www.w3.org/TR/2001/REC-SVG-20010904/DTD/svg10.dtd">
<svg version="1.0" xmlns="http://www.w3.org/2000/svg"
 width="700.000000pt" height="700.000000pt" viewBox="0 0 700.000000 700.000000"
 preserveAspectRatio="xMidYMid meet">
<metadata>
Created by potrace 1.11, written by Peter Selinger 2001-2013
</metadata>
<g transform="translate(0.000000,700.000000) scale(0.100000,-0.100000)"
fill="#000000" stroke="none">
<path d="M0 3500 l0 -3500 3500 0 3500 0 0 2626 0 2626 -22 -7 c-13 -4 -110
-10 -216 -12 -223 -6 -232 -3 -251 71 -16 64 -14 151 3 166 12 9 32 9 91 -1
92 -15 234 -7 325 18 l65 18 3 748 2 747 -3500 0 -3500 0 0 -3500z m5381 1711
c21 -17 24 -27 23 -93 0 -74 -16 -121 -48 -147 -12 -10 -94 -16 -313 -22 -164
-4 -363 -13 -443 -19 -80 -7 -194 -10 -255 -8 -172 6 -215 37 -215 156 0 45 5
67 23 93 28 42 65 47 174 25 41 -9 110 -16 152 -16 133 -1 562 22 671 35 158
19 204 18 231 -4z m-1980 -88 c28 -66 39 -125 30 -159 l-7 -29 -110 -1 c-289
-4 -506 -116 -772 -401 -118 -126 -144 -143 -193 -123 -28 12 -79 96 -79 129
0 44 167 255 282 358 192 170 460 268 746 272 l83 1 20 -47z m-1491 -1571 c55
-27 60 -48 39 -160 -10 -53 -18 -133 -19 -177 -1 -133 20 -531 36 -671 20
-182 19 -200 -11 -229 -18 -19 -35 -25 -70 -25 -59 0 -124 16 -153 38 -22 17
-22 23 -32 327 -6 171 -15 360 -20 420 -12 153 -12 325 1 384 16 75 61 111
137 111 34 0 71 -7 92 -18z m5 -2203 c50 -24 55 -47 34 -162 -10 -56 -19 -136
-19 -177 -1 -132 21 -531 36 -670 20 -189 19 -204 -12 -229 -44 -35 -173 -25
-224 17 -20 16 -21 30 -31 327 -5 171 -14 360 -19 420 -12 144 -12 330 0 379
10 46 37 86 71 104 30 16 123 11 164 -9z"/>
</g>
</svg>
