<?xml version="1.0" standalone="no"?>
<!DOCTYPE svg PUBLIC "-//W3C//DTD SVG 20010904//EN"
 "http://www.w3.org/TR/2001/REC-SVG-20010904/DTD/svg10.dtd">
<svg version="1.0" xmlns="http://www.w3.org/2000/svg"
 width="700.000000pt" height="700.000000pt" viewBox="0 0 700.000000 700.000000"
 preserveAspectRatio="xMidYMid meet">
<metadata>
Created by potrace 1.11, written by Peter Selinger 2001-2013
</metadata>
<g transform="translate(0.000000,700.000000) scale(0.100000,-0.100000)"
fill="#000000" stroke="none">
<path d="M2793 6928 c-12 -6 -31 -33 -43 -60 -19 -45 -21 -67 -20 -216 0 -92
3 -194 5 -227 2 -33 6 -100 9 -150 6 -85 12 -174 21 -275 2 -25 6 -79 10 -120
3 -41 8 -95 10 -120 3 -25 7 -79 10 -120 3 -41 8 -86 10 -100 2 -14 7 -68 10
-120 4 -52 9 -108 11 -125 21 -179 21 -814 0 -1175 -2 -30 -7 -120 -11 -200
-7 -151 -11 -230 -19 -340 -23 -300 -26 -487 -13 -680 4 -63 10 -169 12 -235
15 -350 30 -479 67 -566 32 -76 21 -74 457 -74 538 1 554 5 699 181 23 29 42
56 42 61 0 5 -22 30 -49 56 -62 60 -68 82 -32 116 25 24 26 30 19 71 -4 25
-10 61 -12 80 -3 19 -14 103 -25 185 -11 83 -23 170 -26 195 -6 52 -6 276 -1
335 2 22 7 90 11 150 4 61 9 126 10 145 19 204 24 597 9 723 -35 299 -36 379
-9 617 2 19 7 69 10 110 3 41 8 95 10 120 2 25 7 79 11 120 3 41 7 92 9 112 2
20 7 72 10 115 3 43 8 101 11 128 8 84 13 147 19 220 3 39 8 93 10 120 3 28 7
79 10 115 3 36 7 94 10 130 2 36 7 96 10 134 22 311 23 316 40 367 20 56 22
104 5 124 -32 38 -61 43 -320 50 -140 3 -277 8 -305 10 -288 19 -672 26 -702
13z m525 -260 c23 -11 42 -23 42 -27 0 -11 -140 -89 -197 -111 -75 -28 -222
-46 -224 -26 -3 31 4 65 23 103 17 38 26 45 71 57 109 31 224 32 285 4z m411
-126 c-52 -67 -142 -129 -318 -219 -174 -90 -264 -147 -304 -194 l-34 -40 -18
37 c-23 49 -65 174 -65 194 0 54 213 145 454 194 104 21 138 27 186 33 30 3
56 6 57 7 1 1 14 3 29 4 24 2 25 0 13 -16z m77 -192 c-3 -31 -12 -63 -23 -79
-27 -36 -113 -86 -192 -112 -36 -12 -92 -33 -124 -47 -58 -25 -58 -25 -78 -6
-19 20 -18 20 83 74 175 94 259 156 306 228 21 33 33 10 28 -58z m-176 -316
c0 -17 -24 -43 -92 -98 -110 -87 -420 -316 -430 -316 -17 0 -38 34 -39 63 -4
82 4 223 12 233 5 7 26 15 46 19 20 3 91 25 157 47 126 41 266 74 317 74 24 0
29 -4 29 -22z m118 -269 c-1 -80 -5 -150 -8 -155 -18 -28 -394 -123 -480 -121
-19 0 -48 1 -64 1 l-29 1 29 29 c31 31 534 390 546 390 5 0 7 -65 6 -145z
m-79 -326 c-67 -125 -509 -482 -627 -505 l-30 -6 4 43 c10 111 20 149 56 226
47 100 137 171 273 218 28 9 66 19 85 21 19 3 51 8 70 12 19 5 68 9 108 10 72
3 73 3 61 -19z m63 -269 c10 -43 12 -63 4 -69 -15 -12 -97 -49 -236 -106 -63
-26 -128 -53 -145 -60 -107 -46 -106 -46 -93 -22 23 44 136 146 223 202 74 48
203 113 226 115 3 0 13 -27 21 -60z m-157 -282 c3 -3 -9 -17 -27 -31 -38 -28
-544 -337 -553 -337 -10 0 -5 59 11 108 41 127 171 210 408 259 46 10 152 10
161 1z m150 -255 c-5 -141 -13 -188 -40 -229 l-15 -24 -63 23 c-75 27 -114 24
-266 -27 -151 -49 -173 -52 -221 -25 -22 13 -40 26 -40 30 0 10 139 121 224
178 219 147 336 211 388 211 l38 0 -5 -137z m-274 -360 c-23 -43 -115 -133
-154 -152 -56 -27 -140 -28 -183 -2 -30 18 -91 88 -83 95 9 7 348 73 387 74
38 2 42 0 33 -15z m245 -54 c12 -24 16 -65 17 -173 l2 -141 -109 -27 c-60 -16
-118 -30 -130 -32 -11 -3 -79 -18 -151 -35 -130 -31 -229 -39 -240 -21 -11 18
78 101 169 157 232 142 305 192 356 245 30 31 58 57 62 57 4 1 15 -13 24 -30z
m14 -435 c0 -3 -25 -32 -57 -65 -91 -95 -242 -192 -444 -284 -57 -26 -121 -55
-141 -65 l-38 -18 0 26 c0 15 5 45 9 67 5 22 12 63 16 90 8 64 16 120 18 121
1 1 32 4 68 8 36 3 101 13 145 21 43 9 90 18 104 21 69 13 227 57 249 69 26
14 71 20 71 9z m15 -236 c-34 -154 -263 -284 -494 -280 -29 1 -56 4 -60 7 -9
10 104 113 172 158 126 84 258 138 352 145 36 2 37 2 30 -30z m-165 -298 c-20
-38 -232 -241 -304 -291 -75 -53 -212 -123 -225 -115 -10 7 -3 151 10 198 12
45 13 46 264 133 105 37 206 73 225 80 19 8 36 14 38 14 1 1 -2 -8 -8 -19z
m165 -134 c15 -36 27 -186 16 -203 -23 -35 -171 -99 -351 -152 -131 -38 -303
-81 -307 -78 -4 5 203 214 272 275 64 57 193 150 235 169 39 18 53 21 88 22
28 1 35 -4 47 -33z m-97 -393 c-18 -16 -42 -36 -53 -46 -120 -110 -466 -330
-493 -313 -10 6 -11 221 -1 230 7 7 158 52 354 104 234 63 241 64 193 25z
m109 -203 c27 -56 45 -122 67 -242 l4 -27 -316 0 -317 -1 45 28 c25 15 113 79
195 142 254 196 272 201 322 100z"/>
<path d="M3160 1276 c-39 -18 -62 -21 -177 -20 l-132 2 -15 -32 c-17 -37 -22
-174 -8 -221 5 -16 10 -59 11 -95 1 -36 3 -141 6 -235 7 -290 48 -468 127
-555 50 -54 52 -55 474 -57 l392 -3 41 38 c70 62 72 78 56 397 -4 83 -9 177
-11 210 -6 102 -6 408 0 441 5 28 1 37 -39 73 l-44 41 -218 -4 c-220 -4 -319
3 -383 28 -31 12 -40 11 -80 -8z m453 -266 c16 0 17 -9 15 -87 l-3 -87 -135
-46 c-74 -26 -175 -66 -224 -89 -49 -22 -92 -41 -96 -41 -5 0 -18 11 -31 24
-23 24 -24 31 -24 173 l-1 148 25 5 c19 4 338 4 474 0z m18 -322 c20 -38 -30
-104 -87 -114 -27 -5 -28 -3 -13 65 18 85 68 109 100 49z m-222 -113 c-2 -54
-7 -68 -56 -170 -73 -149 -192 -164 -260 -31 -34 66 -34 84 0 110 44 33 126
73 227 112 47 18 86 33 88 33 2 1 2 -24 1 -54z m305 -173 c11 -88 -34 -124
-158 -127 -162 -5 -161 -12 -17 134 l126 127 22 -45 c11 -25 24 -65 27 -89z"/>
</g>
</svg>
