<svg version="1" xmlns="http://www.w3.org/2000/svg" width="933.333" height="933.333" viewBox="0 0 700.000000 700.000000"><path d="M298.6 9.1c-6.2 5.2-7 7.7-6.8 21.9.1 6.9.4 14.3.6 16.5 1.4 12.1 2.4 53 1.6 63.3l-.5 7.4 4.4 3.8 4.4 3.9 21.6-.4c21.3-.3 35.1.8 39.8 3.4 1.5.8 3 .5 6.4-1.2 3.9-1.9 6-2.2 17.7-2.2h13.4l1.3-2.6c1.7-3.1 2.1-17.8.8-22.9-.6-2-1.1-10.5-1.2-19-.4-26.1-1.1-35.4-3.7-47-3.2-14-7.5-21.9-13.8-25.3-4-2.1-5.2-2.2-43.2-2.4l-39.1-.2-3.7 3zm44.2 18.8c1.9.1.1 2.3-10.5 13l-12.8 13-2.1-4.7c-2.8-6.3-3.6-13-1.8-16.4 2.5-4.8 8.3-5.8 27.2-4.9zm27.9 2c2.6 1.3 8 9.7 8.7 13.3.3 1.8-.2 3.2-1.7 4.6-2.6 2.5-16.6 9.2-26.1 12.6l-6.8 2.5.4-5.7c.9-9.8 7.4-22.6 13.6-26.8 3.4-2.4 8.2-2.6 11.9-.5zM333.6 61c-.6 4.9-3.2 10.6-5.2 11.4-2.4.9-6.3-3.6-5.7-6.7.6-3.2 6.6-8.7 9.4-8.7 1.7 0 1.9.5 1.5 4zm38.8 7.3c2.3 2.2 2.4 2.7 2.5 17.5l.2 15.2-3.3.1c-3.7.1-44.4.1-46.9 0-1.4-.1-1.6-1.4-1.5-8.8l.1-8.7 12-4.1c6.6-2.2 16.5-6.1 22-8.7 5.5-2.5 10.5-4.6 11.2-4.7.7-.1 2.3.9 3.7 2.2zM317.7 202.6c-.1.1-2.8.4-6 .8-8.1.8-17.7 5.6-21.9 10.8-1.8 2.3-4.8 5.8-6.6 7.9-3.9 4.4-3.6 5.4 2.7 11.1 2.3 2 4.2 4.1 4.2 4.7.1.6.2 1.7.3 2.3.1.7-.9 2.5-2.2 4-2.5 2.7-2.6 4.8-.6 15.3.2 1.1.8 5.6 1.4 10 .6 4.4 1.3 9.1 1.5 10.5.2 1.4.6 5.2 1 8.5.4 3.2.9 6.8 1.1 8 .6 2.7.6 31.1 0 35.5-.3 1.9-.8 8-1.1 13.5-.3 5.5-.8 12.7-1 16-2.3 35-2.3 60.8 0 79 .2 1.6.6 5.5.9 8.5.3 3 .9 8.2 1.2 11.5.4 3.3.7 6.4.7 7 0 1.5-1.2 14.4-1.8 18.5-.5 4.5-1.3 12.7-2 21-.3 3.6-.7 8.5-1 11-.2 2.5-.7 8.3-1.1 13-.3 4.7-.8 9.8-1 11.5-.2 1.6-.6 6.4-.9 10.5-.3 4.1-.8 9.3-1 11.5-.2 2.2-.7 7.6-1.1 12-.3 4.4-.7 9.6-.9 11.5-.2 1.9-.6 7.5-1 12.5-.3 4.9-.8 10.6-1.1 12.5-.2 1.9-.6 7.3-.9 12-.3 4.7-.7 11.2-1 14.5-.3 3.3-.8 9.6-1 14-.9 13.1-1.3 15.8-3 19.7-1.6 3.9-1.9 8.5-.9 11.2.3.9 2 2.4 3.7 3.5 2.8 1.7 6.2 2 29.7 2.6 14.6.4 28.3.8 30.5.9 16.9 1.2 35.7 1.9 50.7 2 17.1.1 17.7 0 20.1-2.2 4.2-4 5-9 4.8-29.5-.1-10.3-.4-20.2-.6-22-.2-1.7-.7-8.2-1-14.2-.4-6.1-.8-12.6-1-14.5-.2-1.9-.6-7.3-1-12-.3-4.7-.8-10.8-1.1-13.5-.5-5.5-1.1-12.4-1.9-22.5-.3-3.6-.8-8.5-1-11-.3-2.5-.7-8-1.1-12.3-.3-4.3-.7-8.7-.9-9.7-2.1-11-2.1-73.2 0-115.5.1-3.3.6-12.3 1-20 1.1-23.7 1.7-32.8 3-50.5 1.8-23.1 2.1-35 1.1-44.5-1.1-10.8-1.4-15.7-2.1-34.5-.3-9.6-.8-19.8-1.1-22.5-.2-2.8-.6-7.6-.9-10.8-1.3-14.1-5-25.8-8.9-28-1.5-.8-12.7-1.2-39.9-1.2-20.8-.1-37.9 0-38 .1zm48.5 23.9c-1.8.8-10.8 7.2-20 14.3-17.8 13.8-22 16.6-26.9 17.6-2.9.7-3.3.4-5.8-3.7-2.6-4.6-7.5-21.8-7.5-26.7v-2.8h31.8c27.9-.1 31.3.1 28.4 1.3zm12.5 21.2l-.2 11.8-4 1.3c-2.2.7-6.2 2-9 2.7-2.7.8-12.3 3.4-21.1 5.8-8.9 2.5-18.1 4.8-20.4 5.2l-4.2.7 3.8-3.4c7.5-6.6 18-14.5 29.9-22.5 14.4-9.6 20.2-12.7 24.7-13.2.5-.1.7 5.2.5 11.6zm-4.2 24.5c-14.3 15.1-27.1 26.9-37.1 34.1-11.7 8.3-21.1 11-23.5 6.6-2.1-4-3.2-19.8-1.5-22 1.6-2.2 9.9-6.4 19.6-9.9 9.1-3.3 41.2-12.4 45.5-12.9.5 0-.9 1.8-3 4.1zm8.8 20.6c-.2 9.2-1.6 14.8-4.1 16.1-.9.5-10.2 3.9-20.7 7.6-10.4 3.6-21.4 7.5-24.3 8.6-5.2 1.9-5.2 1.9-4.2 0 1.8-3.5 22.9-24 29.6-28.7 7-5 21.3-12.5 22.9-12 .6.2.9 3.7.8 8.4zm-14.4 34.8c.8.8-8.2 9.4-14.4 13.9-12 8.6-25.7 14.6-36.1 16l-5.1.6.3-3.1c1.1-9.1 12.6-19.6 26.9-24.5 10.1-3.5 26.2-5.1 28.4-2.9zm13 18.9c-1 6-2.1 12.8-2.5 15-.3 2.2-.6 4.1-.7 4.1-.1.1-3.2.4-6.9.8-12.5 1.2-40.9 7.4-48.6 10.7-4.5 2-8.2 2.5-8.2 1.1 0-.4 3-3.7 6.8-7.2 7.2-7 19.4-15.5 30.7-21.4 7-3.6 30.9-14.6 31.2-14.3 0 .1-.7 5.1-1.8 11.2zm-3.9 32.1c0 1.6-4.4 7-7.9 9.7-2 1.6-11.1 7.5-20.2 13.2-18.8 11.6-19.5 12.2-26 18.8l-4.6 4.8-2.2-2.7c-1.1-1.5-2.1-4.1-2.2-5.8 0-1.7-.1-8.3-.2-14.6l-.2-11.4 7.5-1.9c32.8-8.5 56-12.6 56-10.1zm-4 33c1.4.8 3.2 1.9 4.1 2.6 1.9 1.6 5.3 6.7 4.8 7.2-.7.7-30.5 6.5-36.9 7.2l-6.3.7 2.4-3.4c3.7-5.3 9-10.8 12.4-12.9 6.2-3.8 13.9-4.4 19.5-1.4zm1.3 24c1.5 1 2.7 2.2 2.7 2.6.1 2-24.7 19.9-42.3 30.6-11 6.6-18.8 9.5-21.4 7.9-1-.6-.9-20.4.2-27.6.4-2.5 1.6-6 2.6-7.8l2-3.2 5.6 2c8.2 2.8 13.2 2.3 27.3-2.5 13.7-4.7 19-5.2 23.3-2zm11.9 20c-1 9.2-6.5 18.1-14.4 23-9.8 6.2-21.6 9.7-36.5 10.8-6.6.6-8.5-.4-5.9-2.9 2.4-2.5 55-34.4 56.1-34.1.6.2.9 1.6.7 3.2zm-29.1 38.3c-7 8.8-19.2 18-32.6 24.5-11.4 5.6-11.1 5.7-12.7-1.6l-1.3-6.3 4-2c2.2-1.1 8.5-3.9 14-6.2 5.5-2.3 14.7-6.2 20.5-8.6 5.8-2.5 10.7-4.3 10.9-4.1.2.2-1.1 2.1-2.8 4.3zm26.4 3.3c-.9 12.6-3.7 21.3-9.2 28.6-4.9 6.3-6.5 7.6-15.8 12.2-8.9 4.5-19.2 6.9-32.8 7.6l-8.9.5 1.9-3.1c6.3-10.8 39-38 56.8-47.4 7.2-3.8 8.3-3.5 8 1.6zm-18.2 51.7l3.8.1-4.5 3.9c-2.4 2.1-14.3 10.8-26.3 19.2-12 8.4-23.2 16.3-24.9 17.6l-3.1 2.3.2-14.8c.1-8.1.3-15.2.4-15.8.1-1.5 5.9-3.8 15.8-6.3 7.5-1.9 9.4-2.3 15.8-3.6 1.7-.3 3.7-.8 4.5-1 .8-.3 3.5-.7 6-1 2.4-.3 4.6-.7 4.8-.9.2-.2 1.1-.3 2-.1.9.2 3.4.4 5.5.4zm11.1 14.4c1.9 1.4 2.2 5.1 1.8 21.3l-.2 7.1-6.2 1.8c-3.5.9-9.7 2.8-13.8 4.2-11.8 4-20.1 6.3-25 6.8-2.5.3-6 .8-7.7 1.1-2.9.4-3.3.2-3.3-1.7 0-1.2 1.5-3.6 3.4-5.4 4.2-4 47.5-36.4 48.7-36.5.3 0 1.3.6 2.3 1.3zm-30.2 47.4c2.1 1.9 2.4 1.7-12.7 9.7-11.4 6.1-18.9 11.6-24 17.7-2.2 2.6-4.3 4.3-4.6 3.7-.3-.5-.5-3.5-.3-6.5.7-9.8 5.8-14.1 25.5-20.9 5.7-1.9 10.8-4 11.4-4.5 1.3-1.3 2.6-1.1 4.7.8zM384 621c3.7 10 3.7 12.2.3 15.5-4.1 3.8-28.5 12.4-42 14.9-1.5.2-3.7.7-4.8.9-3.7.8-10 1.9-13 2.3-1.6.2-5.2.6-8 1l-5 .6 2.5-2.8c6.8-7.7 13.4-12.2 32.8-22.2 17.2-8.8 25.1-13.9 28.9-18.7 2.5-3.2 2.8-3.3 4-1.5.7 1 2.6 5.5 4.3 10zm8.5 30.1c-.3 7.7-4 14.3-8.8 15.4-8.9 2-12.1 2.4-19.2 2.1-5.8-.2-8.9-.8-11.2-2.2-1.8-1-3.3-2.1-3.3-2.4.1-.8 10-6.5 16.3-9.4 10.5-4.7 26.3-6.9 26.2-3.5z"/></svg>