<?xml version="1.0" encoding="UTF-8"?>
<!DOCTYPE svg  PUBLIC '-//W3C//DTD SVG 1.1//EN'  'http://www.w3.org/Graphics/SVG/1.1/DTD/svg11.dtd'>
<svg enable-background="new 0 0 13.417 2.292" version="1.1" viewBox="0 0 13.417 2.292" xml:space="preserve" xmlns="http://www.w3.org/2000/svg">
<path d="m1.015 1.957c-0.532-0.056-0.767-0.334-0.717-0.83 0.016-0.164 0.063-0.308 0.135-0.431 0.069-0.123 0.161-0.178 0.275-0.166 0.062 7e-3 0.176 0.025 0.346 0.055 0.306 0.06 0.558 0.103 0.746 0.121 0.158 0.019 0.62-6e-3 1.38-0.063 0.607-0.047 0.984-0.067 1.135-0.063 0.247 8e-3 0.657-0.029 1.233-0.12 0.354-0.052 0.571-0.071 0.647-0.065 0.125 0.017 0.221 0.078 0.278 0.193 0.063 0.113 0.084 0.262 0.063 0.442-0.02 0.214-0.064 0.388-0.143 0.521-0.07 0.131-0.155 0.195-0.257 0.193-0.071-2e-3 -0.258 6e-3 -0.556 0.02-0.616 0.037-1.087 0.049-1.412 0.039-0.211 0-0.609 0.023-1.202 0.084-0.923 0.09-1.576 0.115-1.951 0.07z" fill="#505050"/>
<line x1="6.536" x2="13.417" y1="1.03" y2="1.03" fill="none"/>
</svg>
