<?xml version="1.0" encoding="utf-8"?>
<!-- Generator: Adobe Illustrator 15.0.0, SVG Export Plug-In . SVG Version: 6.00 Build 0)  -->
<!DOCTYPE svg PUBLIC "-//W3C//DTD SVG 1.1//EN" "http://www.w3.org/Graphics/SVG/1.1/DTD/svg11.dtd">
<svg version="1.1" id="Слой_1" xmlns="http://www.w3.org/2000/svg" xmlns:xlink="http://www.w3.org/1999/xlink" x="0px" y="0px"
	 width="254.833px" height="613px" viewBox="0 0 254.833 613" enable-background="new 0 0 254.833 613" xml:space="preserve">
<g display="none">
	<g display="inline">
		<path fill="#505050" d="M30.419,20.925h-9.086v31.669h-8.762V20.925H3.514V12.46h26.904L30.419,20.925L30.419,20.925z"/>
		<path fill="#505050" d="M40.037,52.594h-8.909V12.459h8.909V52.594z"/>
		<path fill="#505050" d="M66.884,36.759h-8.556c-2.19,0-3.758,0.74-4.705,2.221c-0.632,1.005-0.948,2.271-0.948,3.787
			c0,0.396,0.006,0.679,0.016,0.846c0.009,0.167,0.032,0.319,0.072,0.459v8.522h-8.76c0-0.672,0-1.589,0-2.753
			c0-1.165,0-2.683,0-4.558s0-3.868,0-5.979c0-3.194,0.8-5.791,2.397-7.781c1.834-2.29,4.538-3.436,8.11-3.436h10.892
			c1.006,0,1.794-0.364,2.368-1.09c0.513-0.648,0.771-1.455,0.771-2.417c0-0.982-0.257-1.817-0.771-2.505
			c-0.573-0.769-1.361-1.149-2.368-1.149H44.004v-8.465h22.879c3.414,0,6.113,1.261,8.106,3.784
			c1.813,2.287,2.724,5.075,2.724,8.366c0,3.311-0.896,6.101-2.693,8.363C73.029,35.497,70.315,36.759,66.884,36.759z"/>
		<path fill="#505050" d="M115.096,20.925H93.727c-0.965,0-1.732,0.363-2.293,1.091c-0.564,0.729-0.844,1.582-0.844,2.563
			c0,0.962,0.271,1.788,0.813,2.475c0.544,0.688,1.316,1.033,2.324,1.033h12.578c3.395,0,6.076,1.272,8.052,3.818
			c1.795,2.309,2.692,5.12,2.692,8.436c0,3.334-0.893,6.146-2.664,8.437c-1.975,2.545-4.666,3.816-8.08,3.816H83.398v-8.522h21.458
			c0.906,0,1.648-0.396,2.219-1.187c0.514-0.709,0.77-1.566,0.77-2.575c0-0.967-0.256-1.8-0.77-2.501
			c-0.512-0.698-1.252-1.05-2.219-1.05h-12.61c-3.413,0-6.114-1.262-8.108-3.785c-1.813-2.284-2.724-5.072-2.724-8.363
			s0.897-6.07,2.693-8.337c2.012-2.542,4.726-3.813,8.139-3.813h22.851L115.096,20.925L115.096,20.925z"/>
	</g>
	<g display="inline">
		<path fill="#388D3B" d="M5.741-20.654c1.161-0.718,2.432-1.151,3.814-1.305c1.382-0.151,2.81-0.174,4.285-0.07
			c1.475,0.104,2.979,0.255,4.512,0.454c1.533,0.198,3.048,0.285,4.546,0.26c1.497-0.021,2.949-0.226,4.354-0.607
			c1.405-0.382,2.724-1.121,3.955-2.211c0.509-0.464,0.986-0.72,1.427-0.769c0.442-0.045,0.803,0.034,1.081,0.244
			c0.279,0.209,0.439,0.493,0.486,0.854c0.046,0.358-0.047,0.714-0.279,1.062c-0.627,0.884-1.375,1.56-2.246,2.021
			c-0.871,0.465-1.836,0.802-2.891,1.011c-1.057,0.209-2.196,0.321-3.415,0.331c-1.217,0.01-2.489,0.014-3.813,0.014
			c-0.953,0.581-1.852,1.423-2.7,2.527c-0.849,1.103-1.65,2.345-2.404,3.727c-0.755,1.384-1.457,2.847-2.108,4.391
			c-0.651,1.546-1.266,3.043-1.846,4.494c-0.582,1.451-1.122,2.805-1.621,4.059c-0.5,1.254-0.97,2.276-1.41,3.065
			C8.956,3.827,8.381,4.524,7.743,4.989c-0.639,0.464-1.25,0.726-1.829,0.784c-0.581,0.058-1.11-0.054-1.586-0.331
			c-0.476-0.278-0.813-0.691-1.01-1.235C3.12,3.66,3.097,3.009,3.249,2.254C3.399,1.5,3.812,0.68,4.485-0.202
			c1.556-2.064,2.909-4.087,4.059-6.062c1.15-1.976,2.223-3.804,3.223-5.487c0.997-1.683,1.973-3.182,2.926-4.494
			c0.951-1.312,2.009-2.34,3.169-3.084c-1.811,0.071-3.623,0.28-5.435,0.628c-1.811,0.35-3.565,1.01-5.26,1.986
			c-1.3,0.744-2.264,1.057-2.891,0.939c-0.627-0.116-0.976-0.452-1.045-1.012C3.162-17.346,3.347-18,3.788-18.755
			C4.229-19.509,4.881-20.141,5.741-20.654z"/>
		<path fill="#388D3B" d="M15.425-1.805c0.465-0.464,0.947-1.059,1.446-1.778c0.5-0.718,0.981-1.468,1.445-2.245
			c0.464-0.778,0.889-1.551,1.272-2.316c0.383-0.768,0.703-1.416,0.958-1.95c-0.396-0.396-0.617-0.923-0.662-1.586
			c-0.047-0.662,0.093-1.343,0.417-2.039c0.256-0.533,0.615-0.875,1.08-1.027c0.464-0.149,0.877-0.116,1.237,0.104
			c0.36,0.22,0.586,0.64,0.679,1.254c0.093,0.614-0.093,1.423-0.557,2.421c0.371,0.14,0.743,0.25,1.115,0.331
			c0.371,0.083,0.743,0.146,1.114,0.19c0.394,0.07,0.696,0.197,0.907,0.385c0.208,0.187,0.33,0.418,0.365,0.694
			c0.034,0.279,0,0.582-0.105,0.906c-0.104,0.326-0.26,0.65-0.47,0.975c-0.255,0.396-0.488,0.814-0.696,1.255
			c-0.208,0.442-0.372,0.872-0.488,1.289c-0.116,0.417-0.174,0.79-0.174,1.114c0,0.326,0.081,0.569,0.244,0.732
			c0.394,0.395,0.987,0.389,1.777-0.019c0.789-0.404,1.707-1.133,2.752-2.178c0.278-0.279,0.539-0.413,0.783-0.4
			c0.243,0.014,0.441,0.101,0.592,0.265c0.151,0.162,0.226,0.376,0.226,0.644c0,0.269-0.115,0.519-0.349,0.749
			c-0.254,0.255-0.585,0.633-0.992,1.131c-0.408,0.5-0.889,1-1.446,1.499c-0.557,0.499-1.196,0.94-1.916,1.324
			c-0.72,0.384-1.51,0.574-2.37,0.574c-0.719,0-1.317-0.18-1.793-0.54c-0.477-0.36-0.796-0.866-0.958-1.515
			c-0.163-0.65-0.163-1.412,0-2.282c0.162-0.871,0.534-1.83,1.115-2.875c0.254-0.418,0.44-0.802,0.557-1.149
			c0.115-0.349,0.126-0.638,0.035-0.871c-0.093-0.186-0.279-0.349-0.557-0.486c-0.186,0.511-0.448,1.174-0.785,1.983
			c-0.336,0.814-0.731,1.667-1.185,2.563c-0.452,0.895-0.928,1.775-1.428,2.646c-0.5,0.871-0.993,1.633-1.481,2.282
			c-0.278,0.349-0.586,0.499-0.922,0.453c-0.337-0.047-0.615-0.197-0.837-0.453c-0.22-0.255-0.348-0.579-0.382-0.975
			C14.955-1.12,15.099-1.48,15.425-1.805z"/>
		<path fill="#388D3B" d="M29.535-0.517c-0.699-0.813-1.011-1.726-0.942-2.734c0.071-1.01,0.396-2.014,0.975-3.014
			c0.581-0.998,1.354-1.921,2.317-2.771c0.963-0.847,1.979-1.52,3.048-2.021c1.067-0.5,2.127-0.762,3.169-0.784
			c1.045-0.023,1.951,0.303,2.719,0.975c0.417-0.162,0.806-0.22,1.167-0.173c0.358,0.047,0.644,0.188,0.852,0.417
			c0.209,0.232,0.331,0.529,0.366,0.888c0.036,0.361-0.053,0.773-0.26,1.237c-0.374,0.769-0.833,1.533-1.378,2.3
			c-0.545,0.77-1.154,1.497-1.829,2.194c-0.046,0.348-0.052,0.65-0.017,0.906c0.035,0.256,0.144,0.429,0.33,0.521
			c0.35,0.209,0.912,0.117,1.69-0.277c0.778-0.396,1.782-1.207,3.013-2.438c0.326-0.325,0.632-0.506,0.923-0.539
			c0.29-0.036,0.511,0.028,0.663,0.191c0.15,0.162,0.21,0.395,0.175,0.695c-0.035,0.304-0.205,0.604-0.505,0.906
			c-0.676,0.674-1.359,1.313-2.057,1.917c-0.697,0.604-1.388,1.12-2.073,1.548c-0.685,0.433-1.353,0.732-2.004,0.907
			c-0.648,0.174-1.252,0.156-1.81-0.053c-0.745-0.278-1.219-0.813-1.43-1.604c-0.696,0.466-1.381,0.851-2.055,1.149
			c-0.672,0.302-1.324,0.506-1.95,0.61c-0.627,0.104-1.208,0.079-1.743-0.069C30.358,0.221,29.906-0.075,29.535-0.517z
			 M38.103-8.042c0.187-0.348,0.373-0.655,0.558-0.923c0.186-0.269,0.383-0.518,0.593-0.749c-0.42-0.093-0.901-0.045-1.446,0.14
			c-0.545,0.188-1.086,0.454-1.622,0.801c-0.533,0.35-1.05,0.757-1.55,1.221c-0.498,0.466-0.912,0.939-1.237,1.429
			c-0.325,0.488-0.544,0.964-0.66,1.428c-0.118,0.465-0.07,0.871,0.139,1.221c0.14,0.209,0.331,0.345,0.575,0.4
			c0.244,0.06,0.527,0.052,0.853-0.018c0.325-0.07,0.691-0.197,1.097-0.384c0.407-0.187,0.818-0.405,1.236-0.662
			C36.896-5.37,37.384-6.671,38.103-8.042z"/>
		<path fill="#388D3B" d="M50.331-9.748c-0.604,0.744-1.078,1.452-1.427,2.125c-0.349,0.675-0.576,1.284-0.679,1.829
			c-0.104,0.546-0.111,1-0.017,1.359c0.092,0.358,0.277,0.598,0.556,0.714c0.465,0.209,0.976,0.139,1.534-0.209
			c0.557-0.35,1.102-0.881,1.636-1.603c0.535-0.72,1.032-1.571,1.497-2.562c0.465-0.987,0.848-2.017,1.15-3.083
			c0.257-0.928,0.65-1.451,1.185-1.568c0.535-0.115,1.033,0.093,1.498,0.627c0.232,0.279,0.471,0.582,0.715,0.905
			c0.243,0.326,0.528,0.627,0.853,0.907c0.325,0.277,0.72,0.512,1.186,0.695c0.463,0.188,1.032,0.279,1.707,0.279
			c0.349,0,0.586,0.092,0.716,0.279c0.124,0.186,0.167,0.389,0.12,0.607c-0.047,0.223-0.187,0.426-0.418,0.609
			c-0.231,0.188-0.521,0.279-0.871,0.279c-0.882,0-1.724-0.116-2.524-0.35c-0.802-0.229-1.459-0.545-1.968-0.939
			c-0.674,1.811-1.442,3.396-2.301,4.756c-0.859,1.359-1.764,2.421-2.716,3.188c-0.953,0.769-1.916,1.207-2.893,1.323
			c-0.975,0.116-1.916-0.149-2.822-0.801c-0.626-0.465-1.051-1.109-1.27-1.934c-0.222-0.823-0.245-1.726-0.071-2.7
			c0.174-0.977,0.553-1.986,1.133-3.031s1.358-2.031,2.334-2.961c0.509-0.486,0.985-0.788,1.427-0.905
			c0.441-0.117,0.786-0.098,1.028,0.053c0.245,0.15,0.359,0.412,0.348,0.782C50.965-10.701,50.75-10.259,50.331-9.748z"/>
		<path fill="#388D3B" d="M62.978-12.012c0.743-0.396,1.451-0.641,2.125-0.732c0.673-0.092,1.281-0.063,1.83,0.087
			c0.545,0.152,1.021,0.396,1.431,0.733c0.403,0.336,0.729,0.725,0.958,1.166c0.51,0.976,0.604,1.881,0.275,2.717
			c-0.326,0.837-0.889,1.504-1.688,2.004c-0.8,0.499-1.747,0.772-2.838,0.818c-1.093,0.046-2.16-0.245-3.205-0.871
			c-0.048,0.396-0.02,0.784,0.086,1.167c0.105,0.383,0.308,0.738,0.61,1.063c0.465,0.487,1.028,0.809,1.689,0.958
			c0.662,0.152,1.364,0.157,2.108,0.02c0.741-0.142,1.489-0.413,2.246-0.819c0.756-0.406,1.444-0.935,2.071-1.585
			c0.304-0.301,0.604-0.471,0.907-0.506c0.302-0.033,0.533,0.023,0.697,0.174c0.161,0.151,0.226,0.372,0.19,0.663
			c-0.037,0.291-0.215,0.598-0.541,0.923c-1.188,1.186-2.354,2.143-3.5,2.873c-1.149,0.733-2.248,1.232-3.292,1.499
			c-1.046,0.268-2.01,0.31-2.894,0.121c-0.881-0.186-1.648-0.603-2.297-1.253c-0.675-0.697-1.087-1.568-1.237-2.614
			c-0.151-1.045-0.076-2.119,0.226-3.222c0.301-1.104,0.796-2.145,1.48-3.118C61.102-10.724,61.955-11.479,62.978-12.012z
			 M64.408-9.748C63.757-9.4,63.2-8.878,62.735-8.18c0.51,0.326,1.045,0.517,1.602,0.575c0.558,0.059,1.05,0.021,1.479-0.104
			c0.431-0.127,0.772-0.336,1.028-0.627c0.256-0.291,0.336-0.621,0.244-0.993c-0.096-0.371-0.406-0.627-0.939-0.766
			C65.614-10.236,65.033-10.12,64.408-9.748z"/>
		<path fill="#388D3B" d="M83.429-22.116c1.068,0,1.777,0.465,2.125,1.395c0.352,0.93,0.211,2.179-0.418,3.745
			c-0.625,1.566-1.807,3.401-3.537,5.505c-1.729,2.103-4.125,4.313-7.19,6.636c0.118,0.466,0.276,0.813,0.485,1.045
			c0.396,0.511,0.871,0.801,1.431,0.871c0.562,0.069,1.128,0,1.708-0.209c0.581-0.209,1.152-0.516,1.729-0.922
			c0.566-0.406,1.07-0.819,1.516-1.237c0.371-0.371,0.701-0.575,0.994-0.608c0.287-0.034,0.504,0.033,0.645,0.21
			c0.139,0.174,0.184,0.417,0.139,0.73c-0.047,0.313-0.22,0.622-0.521,0.923c-1.254,1.253-2.403,2.225-3.449,2.908
			c-1.046,0.688-1.999,1.15-2.856,1.395c-0.857,0.243-1.639,0.284-2.334,0.121c-0.693-0.16-1.313-0.464-1.846-0.904
			c-0.722-0.604-1.18-1.47-1.377-2.596c-0.197-1.127-0.063-2.489,0.399-4.094c0.231-0.813,0.598-1.748,1.097-2.805
			c0.5-1.059,1.094-2.137,1.775-3.24c0.688-1.103,1.424-2.188,2.216-3.257c0.787-1.068,1.604-2.014,2.453-2.838
			c0.851-0.826,1.687-1.493,2.509-2.004C81.936-21.86,82.708-22.116,83.429-22.116z M82.207-18.074
			c-0.185-0.14-0.479-0.081-0.887,0.174c-0.406,0.257-0.866,0.65-1.376,1.186c-0.512,0.534-1.053,1.185-1.621,1.95
			c-0.568,0.767-1.113,1.581-1.637,2.438c-0.523,0.861-0.982,1.737-1.377,2.632c-0.396,0.896-0.674,1.748-0.836,2.562
			c0.976-0.837,1.982-1.823,3.031-2.96c1.045-1.14,1.967-2.253,2.77-3.347c0.803-1.092,1.398-2.065,1.794-2.927
			C82.464-17.226,82.509-17.796,82.207-18.074z"/>
		<path fill="#388D3B" d="M97.223-18.981c-0.465,0.885-1.094,1.859-1.881,2.929c-0.791,1.067-1.729,2.188-2.809,3.36
			c-1.082,1.175-2.294,2.382-3.646,3.623c-1.346,1.243-2.809,2.491-4.387,3.745c-0.117,0.65-0.164,1.228-0.14,1.728
			c0.022,0.499,0.163,0.897,0.417,1.201c0.396,0.512,0.906,0.73,1.533,0.66c0.627-0.067,1.277-0.296,1.951-0.678
			c0.672-0.384,1.328-0.854,1.969-1.413c0.637-0.557,1.178-1.044,1.619-1.463c0.371-0.371,0.701-0.575,0.992-0.609
			c0.291-0.033,0.506,0.034,0.646,0.211c0.138,0.174,0.187,0.417,0.138,0.73c-0.045,0.313-0.222,0.622-0.521,0.923
			c-2.506,2.508-4.727,4.174-6.653,4.999c-1.928,0.824-3.438,0.795-4.528-0.087c-0.349-0.302-0.604-0.744-0.768-1.324
			c-0.163-0.581-0.25-1.235-0.262-1.967c-0.01-0.732,0.053-1.511,0.193-2.335c0.137-0.824,0.321-1.643,0.559-2.456
			c0.371-1.275,0.893-2.631,1.566-4.059c0.672-1.431,1.444-2.822,2.313-4.183c0.87-1.357,1.8-2.624,2.786-3.797
			c0.984-1.172,1.988-2.144,3.014-2.909c1.143-0.883,2.188-1.417,3.152-1.603c0.964-0.188,1.729-0.105,2.3,0.243
			c0.567,0.348,0.909,0.924,1.022,1.725C97.93-20.984,97.735-20.049,97.223-18.981z M94.123-20.443
			c-0.233-0.163-0.559-0.123-0.975,0.122c-0.421,0.243-0.878,0.641-1.378,1.186c-0.5,0.546-1.033,1.213-1.604,2.003
			c-0.567,0.789-1.124,1.644-1.67,2.56c-0.546,0.919-1.075,1.869-1.585,2.857c-0.513,0.987-0.953,1.957-1.324,2.908
			c0.721-0.721,1.475-1.479,2.264-2.281c0.791-0.801,1.55-1.604,2.27-2.404c0.723-0.8,1.38-1.58,1.982-2.333
			c0.604-0.754,1.104-1.439,1.496-2.056c0.396-0.615,0.646-1.15,0.75-1.604C94.453-19.938,94.378-20.258,94.123-20.443z"/>
		<path fill="#388D3B" d="M95.9-11.073c0.997-0.533,1.909-0.821,2.733-0.871c0.82-0.046,1.523,0.07,2.105,0.351
			c0.581,0.277,1.021,0.685,1.322,1.22c0.304,0.534,0.435,1.121,0.398,1.759c-0.035,0.642-0.269,1.289-0.695,1.951
			c-0.432,0.662-1.072,1.26-1.938,1.794c-0.58,0.349-1.223,0.626-1.934,0.836c-0.709,0.208-1.469,0.302-2.279,0.277
			c0.371,0.558,0.893,0.919,1.566,1.081c0.672,0.163,1.396,0.163,2.177,0c0.778-0.161,1.567-0.47,2.37-0.922
			c0.801-0.453,1.535-1.018,2.211-1.69c0.303-0.301,0.604-0.471,0.904-0.506c0.303-0.033,0.535,0.021,0.695,0.174
			c0.163,0.151,0.229,0.372,0.189,0.663c-0.032,0.291-0.217,0.598-0.538,0.923c-0.323,0.326-0.771,0.748-1.345,1.271
			c-0.565,0.521-1.219,1.025-1.949,1.516c-0.729,0.487-1.53,0.905-2.401,1.254c-0.869,0.35-1.78,0.522-2.731,0.522
			c-1.16,0-2.107-0.224-2.84-0.662c-0.729-0.441-1.277-1.018-1.641-1.727c-0.357-0.708-0.538-1.499-0.538-2.368
			c0-0.871,0.16-1.735,0.486-2.597c0.321-0.856,0.795-1.666,1.407-2.422C94.266-9.998,95.018-10.608,95.9-11.073z M97.326-8.808
			c-0.535,0.324-1.009,0.762-1.427,1.308s-0.674,1.155-0.768,1.828c0.721,0.095,1.395,0.048,2.021-0.138
			c0.628-0.188,1.157-0.467,1.604-0.837c0.481-0.42,0.785-0.823,0.902-1.221c0.113-0.396,0.089-0.715-0.066-0.958
			c-0.164-0.245-0.441-0.384-0.836-0.419C98.361-9.278,97.884-9.133,97.326-8.808z"/>
		<path fill="#388D3B" d="M103.946-5.289c0.744-0.742,1.365-1.538,1.865-2.385c0.496-0.848,0.91-1.645,1.236-2.387
			c-0.441-0.396-0.69-0.925-0.752-1.585c-0.059-0.662,0.088-1.354,0.438-2.074c0.254-0.533,0.613-0.875,1.076-1.027
			c0.468-0.148,0.877-0.116,1.238,0.104c0.357,0.221,0.586,0.64,0.678,1.254c0.097,0.614-0.092,1.423-0.558,2.421
			c0.372,0.14,0.744,0.25,1.115,0.331c0.37,0.083,0.74,0.146,1.11,0.19c0.396,0.07,0.697,0.197,0.906,0.385s0.334,0.418,0.367,0.694
			c0.033,0.279,0,0.582-0.104,0.906c-0.104,0.326-0.264,0.65-0.473,0.975c-0.254,0.396-0.484,0.814-0.697,1.257
			c-0.209,0.44-0.371,0.87-0.485,1.287c-0.116,0.417-0.174,0.79-0.174,1.114c0,0.326,0.081,0.569,0.241,0.732
			c0.396,0.395,0.986,0.389,1.776-0.019c0.791-0.404,1.707-1.133,2.755-2.178c0.274-0.279,0.539-0.413,0.782-0.4
			c0.242,0.015,0.438,0.101,0.591,0.265c0.151,0.162,0.229,0.376,0.229,0.644c0,0.269-0.115,0.519-0.352,0.749
			c-0.254,0.255-0.586,0.633-0.992,1.131c-0.405,0.5-0.889,1-1.442,1.499c-0.562,0.499-1.197,0.94-1.916,1.324
			c-0.722,0.384-1.513,0.574-2.371,0.574c-0.718,0-1.313-0.18-1.794-0.54c-0.477-0.36-0.793-0.866-0.958-1.515
			c-0.158-0.65-0.158-1.412,0-2.282c0.165-0.871,0.535-1.83,1.114-2.875c0.258-0.418,0.439-0.802,0.562-1.149
			c0.113-0.349,0.125-0.638,0.033-0.871c-0.093-0.186-0.278-0.349-0.563-0.486c-0.188,0.44-0.402,0.905-0.657,1.394
			c-0.259,0.488-0.529,0.97-0.82,1.446c-0.291,0.476-0.589,0.917-0.89,1.325c-0.305,0.404-0.594,0.748-0.87,1.025
			c-0.208,0.208-0.437,0.302-0.683,0.277c-0.242-0.022-0.438-0.109-0.592-0.261c-0.146-0.15-0.236-0.35-0.262-0.594
			C103.643-4.854,103.737-5.08,103.946-5.289z"/>
	</g>
	<path display="inline" fill="#FFFFFF" d="M48.208,17.511c-0.412-0.043-0.593-0.259-0.555-0.644c0.012-0.126,0.05-0.236,0.104-0.332
		c0.053-0.095,0.125-0.137,0.213-0.129c0.047,0.005,0.136,0.021,0.267,0.042c0.237,0.046,0.431,0.079,0.577,0.094
		c0.123,0.013,0.479-0.004,1.067-0.049c0.47-0.037,0.761-0.052,0.878-0.047c0.191,0.005,0.509-0.024,0.952-0.096
		c0.276-0.037,0.443-0.055,0.502-0.051c0.097,0.014,0.171,0.063,0.216,0.15c0.047,0.088,0.064,0.202,0.047,0.343
		c-0.015,0.166-0.05,0.299-0.109,0.403c-0.055,0.102-0.12,0.151-0.2,0.149c-0.055-0.002-0.199,0.003-0.429,0.015
		c-0.477,0.027-0.841,0.038-1.093,0.028c-0.163,0.001-0.471,0.021-0.93,0.065C49.003,17.527,48.498,17.545,48.208,17.511z"/>
	<path display="inline" fill="#FFFFFF" d="M57.113,17.494c-0.409-0.046-0.589-0.263-0.546-0.648c0.014-0.126,0.05-0.234,0.107-0.33
		c0.055-0.095,0.125-0.135,0.214-0.127c0.047,0.009,0.136,0.022,0.267,0.044c0.235,0.05,0.429,0.083,0.576,0.102
		c0.123,0.014,0.48,0,1.067-0.04c0.47-0.032,0.762-0.045,0.878-0.04c0.19,0.008,0.508-0.021,0.954-0.084
		c0.275-0.037,0.442-0.052,0.503-0.047c0.097,0.013,0.17,0.062,0.213,0.149c0.047,0.091,0.064,0.203,0.045,0.345
		c-0.017,0.165-0.054,0.298-0.111,0.399c-0.057,0.103-0.125,0.152-0.204,0.15c-0.056-0.001-0.201,0-0.428,0.01
		c-0.479,0.025-0.843,0.03-1.092,0.021c-0.164-0.001-0.473,0.016-0.931,0.056C57.91,17.517,57.406,17.531,57.113,17.494z"/>
	<path display="inline" fill="#FFFFFF" d="M51.095,35.047c-0.243,0.304-0.566,0.311-0.712-0.049
		c-0.049-0.117-0.123-0.246-0.066-0.342c1.424-2.336,3.391-2.252,4.078-2.286c0.099-0.004,0.152,0.146,0.203,0.28
		c0.063,0.152,0.098,0.287,0.094,0.404c0,0.116-0.033,0.193-0.104,0.229C54.537,33.309,52.841,32.845,51.095,35.047z"/>
	<path display="inline" fill="#FFFFFF" d="M69.966,29.856c0.276-0.274,0.596-0.241,0.703,0.132c0.034,0.123,0.092,0.26,0.024,0.347
		c-1.681,2.156-3.628,1.847-4.313,1.801c-0.099-0.007-0.133-0.164-0.168-0.302c-0.047-0.159-0.063-0.296-0.047-0.414
		c0.014-0.116,0.055-0.188,0.131-0.216C66.346,31.187,67.977,31.843,69.966,29.856z"/>
	<path display="inline" fill="#FFFFFF" d="M65.947,17.293c-0.076-0.026-0.118-0.1-0.131-0.215c-0.017-0.118,0-0.255,0.047-0.415
		c0.036-0.137,0.069-0.295,0.17-0.302c0.685-0.045,2.631-0.355,4.312,1.801c0.068,0.088,0.01,0.225-0.021,0.347
		c-0.104,0.373-0.43,0.407-0.702,0.13C67.628,16.655,65.998,17.312,65.947,17.293z"/>
	<path display="inline" fill="#FFFFFF" d="M57.816,33.314c-0.412-0.048-0.591-0.265-0.548-0.648c0.013-0.125,0.05-0.236,0.108-0.329
		c0.054-0.096,0.124-0.136,0.213-0.128c0.047,0.007,0.136,0.022,0.267,0.043c0.234,0.049,0.429,0.084,0.575,0.1
		c0.123,0.017,0.481,0,1.067-0.038c0.47-0.032,0.763-0.047,0.879-0.04c0.192,0.008,0.508-0.021,0.953-0.084
		c0.277-0.037,0.444-0.054,0.504-0.048c0.097,0.014,0.17,0.063,0.214,0.152c0.046,0.088,0.062,0.202,0.043,0.342
		c-0.017,0.165-0.054,0.298-0.112,0.401c-0.055,0.102-0.122,0.152-0.202,0.149c-0.055-0.003-0.199,0.001-0.429,0.01
		c-0.478,0.023-0.84,0.028-1.093,0.021c-0.163-0.001-0.471,0.017-0.929,0.057C58.611,33.337,58.106,33.351,57.816,33.314z"/>
	<path display="inline" fill="#FFFFFF" d="M72.328,22.118c0.047-0.41,0.265-0.589,0.649-0.545c0.125,0.012,0.234,0.049,0.33,0.105
		c0.096,0.056,0.136,0.124,0.127,0.216c-0.008,0.046-0.021,0.135-0.045,0.266c-0.049,0.235-0.082,0.43-0.102,0.576
		c-0.014,0.123,0,0.479,0.041,1.065c0.032,0.472,0.049,0.765,0.039,0.879c-0.007,0.19,0.021,0.511,0.086,0.953
		c0.036,0.277,0.055,0.444,0.049,0.505c-0.017,0.098-0.064,0.169-0.15,0.215c-0.092,0.046-0.204,0.063-0.346,0.044
		c-0.164-0.019-0.301-0.056-0.402-0.113c-0.102-0.056-0.15-0.123-0.147-0.202c0.001-0.055-0.001-0.199-0.01-0.428
		c-0.024-0.479-0.03-0.841-0.021-1.091c0-0.164-0.02-0.475-0.06-0.933C72.305,22.915,72.291,22.409,72.328,22.118z"/>
	<path display="inline" fill="#FFFFFF" d="M48.06,38.924c0.046-0.41,0.264-0.59,0.647-0.546c0.126,0.013,0.237,0.049,0.331,0.107
		c0.096,0.054,0.136,0.124,0.127,0.213c-0.007,0.046-0.021,0.135-0.045,0.268c-0.048,0.234-0.083,0.431-0.099,0.575
		c-0.014,0.122,0,0.479,0.04,1.066c0.033,0.47,0.045,0.763,0.038,0.88c-0.005,0.188,0.021,0.507,0.086,0.953
		c0.038,0.274,0.053,0.44,0.047,0.504c-0.014,0.097-0.063,0.17-0.152,0.213c-0.09,0.047-0.203,0.063-0.343,0.044
		c-0.165-0.019-0.3-0.053-0.404-0.113c-0.101-0.056-0.151-0.123-0.147-0.202c0.001-0.055-0.002-0.197-0.009-0.429
		c-0.026-0.479-0.032-0.84-0.021-1.091c0-0.165-0.018-0.476-0.058-0.934C48.036,39.72,48.023,39.216,48.06,38.924z"/>
	<path display="inline" fill="#FFFFFF" d="M48.06,47.192c0.046-0.41,0.264-0.589,0.647-0.546c0.126,0.014,0.237,0.05,0.331,0.105
		c0.096,0.055,0.136,0.125,0.127,0.214c-0.007,0.047-0.021,0.135-0.045,0.268c-0.048,0.234-0.083,0.431-0.099,0.575
		c-0.014,0.123,0,0.479,0.04,1.067c0.033,0.469,0.045,0.763,0.038,0.879c-0.005,0.19,0.021,0.508,0.086,0.952
		c0.038,0.276,0.053,0.443,0.047,0.505c-0.014,0.096-0.063,0.168-0.152,0.213c-0.09,0.045-0.203,0.063-0.343,0.043
		c-0.165-0.018-0.3-0.054-0.404-0.11c-0.101-0.059-0.151-0.124-0.147-0.203c0.001-0.057-0.002-0.198-0.009-0.43
		c-0.026-0.476-0.032-0.84-0.021-1.09c0-0.163-0.018-0.473-0.058-0.931C48.036,47.989,48.023,47.485,48.06,47.192z"/>
</g>
<g>
	<path fill="#388D3B" d="M9.332,12.124c1.33-0.823,2.787-1.319,4.37-1.495c1.584-0.173,3.221-0.2,4.911-0.081
		c1.69,0.12,3.414,0.292,5.17,0.521c1.757,0.227,3.494,0.327,5.21,0.298c1.715-0.024,3.379-0.259,4.989-0.695
		c1.61-0.438,3.122-1.285,4.532-2.534c0.583-0.531,1.13-0.824,1.636-0.881c0.506-0.052,0.92,0.039,1.239,0.28
		c0.319,0.239,0.503,0.565,0.557,0.979c0.053,0.41-0.053,0.818-0.319,1.217c-0.719,1.013-1.576,1.788-2.574,2.315
		c-0.999,0.533-2.104,0.919-3.313,1.159c-1.211,0.24-2.516,0.368-3.914,0.379c-1.395,0.012-2.852,0.017-4.37,0.017
		c-1.092,0.666-2.122,1.631-3.094,2.896c-0.973,1.264-1.891,2.688-2.755,4.271c-0.865,1.587-1.67,3.263-2.416,5.033
		c-0.746,1.771-1.451,3.487-2.116,5.15c-0.667,1.663-1.286,3.214-1.857,4.652c-0.573,1.438-1.112,2.608-1.616,3.512
		c-0.587,1.064-1.246,1.863-1.977,2.396c-0.732,0.532-1.432,0.832-2.096,0.899c-0.666,0.066-1.272-0.063-1.818-0.379
		c-0.545-0.319-0.932-0.792-1.157-1.416c-0.228-0.627-0.254-1.373-0.08-2.238c0.172-0.864,0.646-1.804,1.417-2.814
		c1.783-2.365,3.333-4.684,4.651-6.947c1.318-2.265,2.547-4.36,3.693-6.288c1.143-1.928,2.261-3.646,3.354-5.15
		c1.089-1.503,2.302-2.681,3.631-3.534c-2.075,0.081-4.152,0.32-6.228,0.72c-2.076,0.401-4.085,1.157-6.028,2.275
		c-1.49,0.853-2.594,1.212-3.313,1.076c-0.719-0.133-1.119-0.518-1.197-1.159c-0.08-0.64,0.132-1.389,0.638-2.254
		C7.6,13.436,8.347,12.712,9.332,12.124z"/>
	<path fill="#388D3B" d="M20.43,33.725c0.533-0.531,1.085-1.214,1.657-2.038c0.573-0.823,1.124-1.683,1.656-2.572
		c0.531-0.892,1.018-1.778,1.458-2.655c0.439-0.88,0.805-1.622,1.098-2.235c-0.454-0.454-0.708-1.057-0.759-1.817
		c-0.054-0.758,0.106-1.539,0.478-2.336c0.293-0.611,0.705-1.002,1.238-1.177c0.531-0.17,1.005-0.133,1.417,0.119
		s0.671,0.733,0.778,1.437c0.106,0.703-0.106,1.63-0.638,2.774c0.425,0.16,0.852,0.287,1.278,0.379
		c0.425,0.095,0.852,0.167,1.276,0.218c0.452,0.08,0.798,0.226,1.04,0.441c0.238,0.214,0.378,0.479,0.418,0.795
		c0.039,0.319,0,0.667-0.121,1.038c-0.119,0.374-0.298,0.745-0.539,1.117c-0.292,0.454-0.559,0.933-0.797,1.438
		c-0.239,0.507-0.426,1-0.559,1.478c-0.133,0.478-0.2,0.906-0.2,1.277c0,0.374,0.093,0.652,0.28,0.839
		c0.452,0.453,1.131,0.446,2.036-0.021c0.904-0.463,1.957-1.299,3.154-2.497c0.319-0.319,0.618-0.473,0.897-0.458
		c0.279,0.016,0.505,0.115,0.678,0.304c0.173,0.186,0.259,0.431,0.259,0.738c0,0.309-0.131,0.595-0.4,0.858
		c-0.291,0.292-0.67,0.725-1.137,1.296c-0.468,0.573-1.019,1.146-1.657,1.718c-0.638,0.571-1.37,1.077-2.196,1.517
		c-0.825,0.44-1.73,0.658-2.716,0.658c-0.824,0-1.509-0.206-2.055-0.619c-0.546-0.413-0.913-0.992-1.098-1.736
		c-0.187-0.746-0.187-1.619,0-2.615c0.185-0.999,0.611-2.097,1.277-3.295c0.292-0.479,0.504-0.919,0.639-1.316
		c0.131-0.4,0.145-0.731,0.041-0.999c-0.107-0.213-0.32-0.4-0.639-0.557c-0.213,0.585-0.513,1.345-0.899,2.272
		c-0.385,0.933-0.837,1.911-1.358,2.937c-0.518,1.026-1.063,2.035-1.636,3.033c-0.573,0.998-1.138,1.871-1.697,2.615
		c-0.319,0.4-0.672,0.572-1.057,0.519c-0.386-0.053-0.705-0.225-0.959-0.519c-0.252-0.292-0.398-0.663-0.438-1.117
		C19.891,34.51,20.056,34.097,20.43,33.725z"/>
	<path fill="#388D3B" d="M36.6,35.201c-0.801-0.932-1.159-1.978-1.08-3.133c0.081-1.157,0.454-2.308,1.117-3.454
		c0.666-1.144,1.552-2.201,2.655-3.175c1.104-0.971,2.268-1.742,3.493-2.316c1.223-0.573,2.438-0.874,3.631-0.899
		c1.198-0.026,2.236,0.348,3.117,1.118c0.478-0.186,0.923-0.252,1.337-0.198c0.411,0.054,0.738,0.216,0.977,0.478
		c0.24,0.266,0.379,0.606,0.419,1.017c0.041,0.414-0.061,0.886-0.298,1.418c-0.428,0.881-0.954,1.756-1.579,2.635
		c-0.625,0.883-1.323,1.716-2.096,2.515c-0.052,0.399-0.06,0.745-0.02,1.038c0.041,0.293,0.166,0.491,0.378,0.597
		c0.401,0.24,1.045,0.134,1.937-0.317c0.891-0.454,2.042-1.383,3.453-2.793c0.373-0.373,0.724-0.58,1.057-0.618
		c0.333-0.042,0.586,0.032,0.76,0.219c0.172,0.186,0.241,0.453,0.2,0.796c-0.04,0.349-0.235,0.692-0.579,1.038
		c-0.774,0.772-1.558,1.504-2.357,2.197c-0.798,0.692-1.59,1.284-2.375,1.774c-0.785,0.496-1.55,0.839-2.296,1.04
		c-0.744,0.2-1.436,0.179-2.075-0.061c-0.854-0.318-1.397-0.931-1.639-1.838c-0.797,0.534-1.582,0.976-2.355,1.316
		c-0.77,0.347-1.517,0.58-2.234,0.699c-0.719,0.119-1.385,0.091-1.998-0.079C37.542,36.046,37.025,35.708,36.6,35.201z
		 M46.417,26.578c0.214-0.399,0.428-0.751,0.64-1.058c0.213-0.309,0.439-0.594,0.68-0.859c-0.482-0.106-1.033-0.051-1.657,0.161
		c-0.625,0.215-1.245,0.52-1.859,0.917c-0.61,0.401-1.203,0.868-1.776,1.399c-0.571,0.534-1.045,1.076-1.417,1.638
		c-0.373,0.559-0.624,1.105-0.757,1.636c-0.135,0.533-0.08,0.998,0.16,1.399c0.16,0.24,0.378,0.395,0.659,0.458
		c0.279,0.068,0.604,0.059,0.978-0.021c0.373-0.08,0.792-0.226,1.257-0.439c0.466-0.214,0.937-0.464,1.416-0.759
		C45.037,29.64,45.595,28.148,46.417,26.578z"/>
	<path fill="#388D3B" d="M60.431,24.623c-0.692,0.852-1.235,1.664-1.635,2.435c-0.4,0.773-0.66,1.471-0.778,2.096
		c-0.119,0.626-0.127,1.146-0.02,1.557c0.105,0.411,0.317,0.685,0.637,0.818c0.533,0.24,1.119,0.159,1.758-0.239
		c0.638-0.401,1.263-1.01,1.875-1.837c0.613-0.825,1.183-1.8,1.716-2.936c0.532-1.13,0.972-2.311,1.317-3.533
		c0.295-1.064,0.746-1.663,1.358-1.797c0.612-0.132,1.184,0.106,1.717,0.718c0.265,0.32,0.54,0.667,0.819,1.037
		c0.278,0.374,0.605,0.718,0.977,1.04c0.373,0.317,0.826,0.586,1.359,0.796c0.531,0.215,1.184,0.32,1.957,0.32
		c0.4,0,0.671,0.105,0.82,0.32c0.143,0.213,0.191,0.446,0.137,0.696c-0.053,0.255-0.214,0.488-0.479,0.698
		c-0.265,0.215-0.598,0.32-0.998,0.32c-1.011,0-1.975-0.133-2.893-0.401c-0.919-0.262-1.672-0.625-2.255-1.076
		c-0.772,2.076-1.653,3.892-2.638,5.451c-0.984,1.557-2.021,2.774-3.112,3.653c-1.092,0.882-2.196,1.383-3.315,1.517
		c-1.118,0.133-2.196-0.171-3.234-0.918c-0.717-0.533-1.205-1.271-1.455-2.216c-0.255-0.943-0.281-1.978-0.082-3.094
		c0.2-1.12,0.634-2.276,1.299-3.474c0.665-1.198,1.556-2.327,2.675-3.394c0.583-0.557,1.128-0.903,1.635-1.037
		c0.505-0.134,0.901-0.113,1.179,0.06c0.28,0.172,0.411,0.473,0.398,0.897C61.158,23.531,60.912,24.036,60.431,24.623z"/>
	<path fill="#388D3B" d="M74.925,22.028c0.852-0.454,1.662-0.735,2.436-0.839c0.771-0.105,1.467-0.072,2.096,0.1
		c0.625,0.174,1.171,0.454,1.64,0.84c0.463,0.385,0.836,0.831,1.099,1.337c0.584,1.118,0.691,2.155,0.314,3.114
		c-0.373,0.958-1.018,1.723-1.934,2.296c-0.916,0.572-2.002,0.884-3.252,0.938c-1.253,0.052-2.476-0.281-3.673-0.999
		c-0.055,0.454-0.022,0.899,0.099,1.337c0.12,0.439,0.354,0.847,0.699,1.218c0.533,0.559,1.178,0.928,1.936,1.098
		c0.758,0.175,1.563,0.18,2.416,0.023c0.85-0.163,1.706-0.473,2.574-0.938c0.865-0.465,1.654-1.071,2.373-1.816
		c0.348-0.345,0.693-0.54,1.039-0.58c0.347-0.038,0.611,0.026,0.8,0.2c0.185,0.172,0.259,0.426,0.218,0.759
		c-0.042,0.333-0.246,0.685-0.619,1.058c-1.361,1.359-2.697,2.456-4.012,3.292c-1.316,0.84-2.576,1.412-3.773,1.718
		c-1.197,0.307-2.303,0.355-3.316,0.139c-1.009-0.213-1.889-0.691-2.631-1.436c-0.773-0.799-1.246-1.797-1.418-2.996
		c-0.174-1.197-0.088-2.428,0.259-3.692c0.345-1.265,0.913-2.458,1.695-3.573C72.774,23.504,73.753,22.638,74.925,22.028z
		 M76.563,24.623c-0.746,0.398-1.385,0.996-1.917,1.796c0.584,0.373,1.198,0.592,1.836,0.659c0.639,0.067,1.204,0.024,1.694-0.119
		c0.494-0.146,0.886-0.385,1.179-0.719c0.294-0.333,0.386-0.711,0.28-1.137c-0.109-0.426-0.466-0.719-1.076-0.878
		C77.946,24.063,77.28,24.196,76.563,24.623z"/>
	<path fill="#388D3B" d="M98.36,10.448c1.225,0,2.037,0.533,2.436,1.599c0.402,1.066,0.242,2.498-0.479,4.292
		c-0.717,1.795-2.07,3.897-4.055,6.309c-1.98,2.41-4.727,4.943-8.239,7.604c0.136,0.534,0.316,0.932,0.556,1.198
		c0.455,0.585,0.998,0.917,1.641,0.998c0.643,0.079,1.292,0,1.957-0.24c0.666-0.24,1.32-0.591,1.98-1.056
		c0.648-0.465,1.227-0.938,1.737-1.417c0.425-0.425,0.804-0.659,1.139-0.697c0.329-0.039,0.577,0.038,0.739,0.241
		c0.158,0.199,0.21,0.478,0.158,0.836c-0.054,0.359-0.252,0.713-0.596,1.058c-1.438,1.436-2.754,2.55-3.953,3.332
		c-1.199,0.789-2.291,1.318-3.273,1.599c-0.982,0.278-1.878,0.325-2.675,0.139c-0.794-0.183-1.504-0.532-2.115-1.036
		c-0.827-0.692-1.352-1.685-1.578-2.975c-0.226-1.291-0.072-2.852,0.458-4.691c0.266-0.931,0.686-2.003,1.256-3.214
		c0.574-1.214,1.254-2.449,2.035-3.713c0.788-1.264,1.632-2.507,2.539-3.732c0.902-1.224,1.84-2.308,2.813-3.252
		c0.975-0.947,1.932-1.711,2.874-2.296C96.65,10.742,97.535,10.448,98.36,10.448z M96.96,15.081
		c-0.211-0.161-0.549-0.093-1.016,0.199c-0.465,0.295-0.992,0.745-1.576,1.359c-0.587,0.612-1.207,1.358-1.858,2.235
		c-0.651,0.879-1.275,1.812-1.876,2.793c-0.6,0.987-1.125,1.991-1.577,3.017c-0.455,1.026-0.772,2.003-0.958,2.936
		c1.117-0.959,2.271-2.089,3.474-3.393c1.197-1.307,2.253-2.582,3.174-3.835c0.92-1.251,1.603-2.366,2.056-3.354
		C97.255,16.052,97.306,15.399,96.96,15.081z"/>
	<path fill="#388D3B" d="M114.169,14.041c-0.532,1.015-1.254,2.131-2.154,3.357c-0.906,1.223-1.981,2.507-3.219,3.85
		c-1.24,1.347-2.629,2.73-4.18,4.152c-1.542,1.425-3.219,2.855-5.027,4.292c-0.133,0.745-0.188,1.408-0.159,1.98
		c0.026,0.571,0.187,1.027,0.478,1.376c0.455,0.586,1.039,0.837,1.758,0.756c0.718-0.077,1.463-0.339,2.235-0.777
		c0.771-0.44,1.522-0.979,2.257-1.62c0.729-0.638,1.349-1.196,1.855-1.676c0.424-0.425,0.803-0.659,1.137-0.698
		c0.333-0.038,0.579,0.039,0.739,0.242c0.157,0.199,0.214,0.478,0.157,0.836c-0.051,0.359-0.254,0.713-0.598,1.058
		c-2.871,2.874-5.416,4.784-7.624,5.729c-2.209,0.944-3.94,0.911-5.188-0.1c-0.4-0.346-0.692-0.853-0.881-1.518
		c-0.187-0.666-0.286-1.415-0.299-2.254c-0.012-0.838,0.061-1.732,0.221-2.676c0.157-0.944,0.369-1.883,0.641-2.815
		c0.426-1.461,1.022-3.015,1.795-4.651c0.77-1.64,1.655-3.234,2.65-4.793c0.998-1.555,2.063-3.007,3.193-4.351
		c1.129-1.343,2.279-2.458,3.454-3.334c1.31-1.011,2.507-1.624,3.612-1.836c1.104-0.216,1.982-0.121,2.636,0.279
		c0.649,0.398,1.042,1.058,1.171,1.977C114.979,11.746,114.756,12.817,114.169,14.041z M110.616,12.365
		c-0.268-0.187-0.641-0.141-1.117,0.14c-0.482,0.278-1.006,0.735-1.579,1.359c-0.573,0.626-1.185,1.39-1.839,2.295
		c-0.65,0.904-1.287,1.884-1.913,2.934c-0.626,1.053-1.232,2.142-1.816,3.274c-0.587,1.132-1.093,2.243-1.518,3.333
		c0.826-0.827,1.69-1.695,2.594-2.614c0.907-0.918,1.776-1.838,2.601-2.755c0.828-0.917,1.582-1.811,2.272-2.674
		c0.692-0.864,1.266-1.649,1.714-2.356c0.455-0.705,0.742-1.318,0.859-1.838C110.994,12.945,110.908,12.578,110.616,12.365z"/>
	<path fill="#388D3B" d="M112.653,23.104c1.143-0.611,2.188-0.941,3.133-0.998c0.939-0.053,1.745,0.081,2.412,0.402
		c0.666,0.317,1.17,0.786,1.516,1.398c0.348,0.612,0.498,1.284,0.456,2.016c-0.04,0.736-0.308,1.477-0.796,2.236
		c-0.496,0.759-1.229,1.444-2.221,2.056c-0.665,0.4-1.401,0.717-2.217,0.958c-0.813,0.238-1.683,0.346-2.611,0.317
		c0.426,0.639,1.023,1.053,1.795,1.239c0.77,0.188,1.6,0.188,2.494,0c0.893-0.185,1.797-0.538,2.717-1.057
		c0.918-0.519,1.76-1.167,2.533-1.937c0.348-0.346,0.693-0.54,1.037-0.58c0.347-0.038,0.611,0.025,0.797,0.199
		c0.188,0.173,0.262,0.427,0.217,0.76c-0.037,0.333-0.248,0.685-0.617,1.058c-0.371,0.374-0.884,0.857-1.541,1.457
		c-0.648,0.597-1.396,1.174-2.233,1.737c-0.835,0.558-1.753,1.037-2.752,1.437c-0.997,0.401-2.04,0.598-3.13,0.598
		c-1.33,0-2.416-0.257-3.255-0.759c-0.836-0.505-1.464-1.167-1.88-1.979c-0.41-0.812-0.617-1.718-0.617-2.713
		c0-0.998,0.184-1.989,0.558-2.976c0.368-0.981,0.911-1.91,1.612-2.776C110.78,24.336,111.642,23.637,112.653,23.104z M114.287,25.7
		c-0.614,0.371-1.156,0.873-1.636,1.499c-0.479,0.625-0.771,1.323-0.879,2.094c0.826,0.109,1.598,0.055,2.315-0.158
		c0.72-0.215,1.326-0.535,1.839-0.959c0.552-0.481,0.9-0.943,1.033-1.399c0.131-0.454,0.102-0.819-0.076-1.098
		c-0.188-0.281-0.505-0.44-0.957-0.48C115.473,25.16,114.926,25.327,114.287,25.7z"/>
	<path fill="#388D3B" d="M121.874,29.732c0.853-0.85,1.564-1.762,2.137-2.733c0.568-0.972,1.043-1.885,1.418-2.735
		c-0.506-0.454-0.793-1.061-0.863-1.817c-0.066-0.758,0.104-1.551,0.502-2.376c0.291-0.61,0.703-1.002,1.234-1.176
		c0.535-0.169,1.004-0.133,1.418,0.119c0.409,0.253,0.672,0.733,0.776,1.437c0.108,0.703-0.104,1.63-0.642,2.774
		c0.429,0.16,0.854,0.286,1.276,0.379c0.425,0.095,0.851,0.167,1.271,0.217c0.455,0.08,0.803,0.226,1.039,0.442
		c0.24,0.215,0.385,0.479,0.424,0.795c0.035,0.319,0,0.667-0.119,1.038c-0.119,0.374-0.305,0.745-0.541,1.117
		c-0.293,0.454-0.559,0.933-0.803,1.44c-0.234,0.505-0.424,0.997-0.557,1.475c-0.135,0.478-0.197,0.905-0.197,1.277
		c0,0.373,0.094,0.652,0.273,0.838c0.453,0.453,1.133,0.446,2.035-0.021c0.904-0.463,1.955-1.298,3.156-2.496
		c0.314-0.32,0.617-0.473,0.896-0.458c0.275,0.017,0.502,0.116,0.678,0.304c0.174,0.186,0.262,0.431,0.262,0.738
		c0,0.309-0.131,0.595-0.402,0.858c-0.291,0.292-0.67,0.725-1.137,1.296c-0.465,0.573-1.02,1.146-1.652,1.718
		c-0.645,0.572-1.371,1.078-2.193,1.518c-0.828,0.44-1.732,0.657-2.719,0.657c-0.822,0-1.504-0.206-2.055-0.619
		c-0.547-0.412-0.91-0.992-1.098-1.736c-0.184-0.745-0.184-1.618,0-2.615c0.188-0.998,0.611-2.097,1.275-3.295
		c0.295-0.479,0.502-0.919,0.645-1.316c0.129-0.4,0.143-0.731,0.037-0.999c-0.105-0.213-0.318-0.4-0.645-0.557
		c-0.215,0.504-0.461,1.037-0.754,1.598c-0.297,0.559-0.604,1.111-0.938,1.657s-0.676,1.051-1.021,1.519
		c-0.352,0.462-0.681,0.856-0.998,1.174c-0.238,0.238-0.5,0.346-0.781,0.317c-0.277-0.025-0.503-0.125-0.679-0.299
		c-0.166-0.172-0.271-0.401-0.3-0.681C121.526,30.231,121.634,29.972,121.874,29.732z"/>
</g>
<g>
	<g>
		<path fill="#505050" d="M164.917,13.797h-8.029v27.99h-7.744v-27.99h-8.004V6.315h23.775v7.482H164.917z"/>
		<path fill="#505050" d="M176.418,41.787h-7.875V6.314h7.875V41.787z"/>
		<path fill="#505050" d="M200.145,27.792h-7.563c-1.938,0-3.32,0.653-4.158,1.963c-0.563,0.888-0.836,2.006-0.836,3.346
			c0,0.351,0.004,0.601,0.012,0.748c0.01,0.148,0.029,0.281,0.063,0.406v7.532h-7.74c0-0.593,0-1.404,0-2.433s0-2.371,0-4.028
			c0-1.657,0-3.418,0-5.285c0-2.823,0.709-5.119,2.117-6.877c1.621-2.024,4.012-3.037,7.17-3.037h9.627
			c0.891,0,1.586-0.322,2.096-0.964c0.451-0.573,0.682-1.286,0.682-2.136c0-0.868-0.229-1.606-0.682-2.214
			c-0.51-0.68-1.205-1.015-2.096-1.015h-18.912V6.316h20.223c3.021,0,5.402,1.115,7.166,3.345c1.604,2.021,2.404,4.485,2.404,7.394
			c0,2.927-0.791,5.393-2.381,7.391C205.577,26.676,203.178,27.792,200.145,27.792z"/>
		<path fill="#505050" d="M242.758,13.797h-18.887c-0.854,0-1.531,0.321-2.027,0.963c-0.498,0.645-0.746,1.398-0.746,2.265
			c0,0.851,0.24,1.581,0.719,2.188c0.48,0.607,1.164,0.913,2.055,0.913h11.117c3,0,5.371,1.124,7.115,3.375
			c1.588,2.041,2.381,4.524,2.381,7.456c0,2.947-0.789,5.432-2.354,7.457c-1.744,2.25-4.123,3.373-7.145,3.373h-20.246v-7.532
			h18.965c0.803,0,1.459-0.35,1.963-1.049c0.453-0.627,0.68-1.385,0.68-2.276c0-0.854-0.227-1.591-0.68-2.21
			c-0.453-0.617-1.105-0.928-1.963-0.928H222.56c-3.017,0-5.404-1.116-7.166-3.346c-1.603-2.018-2.408-4.483-2.408-7.391
			c0-2.909,0.795-5.365,2.382-7.368c1.776-2.247,4.18-3.371,7.192-3.371h20.196v7.481H242.758z"/>
	</g>
	<path fill="#FFFFFF" d="M183.639,10.779c-0.365-0.038-0.523-0.229-0.49-0.569c0.01-0.111,0.043-0.208,0.092-0.293
		c0.047-0.084,0.111-0.121,0.189-0.114c0.041,0.004,0.119,0.018,0.234,0.038c0.207,0.04,0.381,0.07,0.51,0.083
		c0.105,0.012,0.424-0.004,0.939-0.043c0.416-0.033,0.674-0.046,0.775-0.042c0.17,0.004,0.449-0.021,0.844-0.085
		c0.242-0.032,0.395-0.048,0.441-0.044c0.084,0.013,0.15,0.056,0.189,0.132c0.041,0.078,0.057,0.178,0.041,0.303
		c-0.014,0.146-0.043,0.264-0.098,0.356c-0.049,0.09-0.104,0.133-0.178,0.131c-0.047-0.001-0.178,0.003-0.379,0.014
		c-0.422,0.023-0.742,0.034-0.967,0.024c-0.145,0.001-0.416,0.019-0.82,0.057C184.342,10.793,183.895,10.81,183.639,10.779z"/>
	<path fill="#FFFFFF" d="M191.51,10.764c-0.361-0.041-0.521-0.233-0.482-0.573c0.012-0.111,0.045-0.207,0.094-0.292
		c0.051-0.084,0.111-0.119,0.189-0.112c0.041,0.008,0.119,0.019,0.236,0.038c0.207,0.045,0.379,0.074,0.51,0.091
		c0.107,0.013,0.424,0,0.941-0.036c0.416-0.028,0.674-0.04,0.773-0.036c0.168,0.008,0.449-0.018,0.846-0.074
		c0.242-0.032,0.391-0.045,0.441-0.041c0.086,0.011,0.148,0.055,0.188,0.132c0.041,0.081,0.06,0.18,0.039,0.305
		c-0.015,0.146-0.048,0.263-0.099,0.353c-0.049,0.091-0.108,0.134-0.181,0.132c-0.051-0.001-0.18,0-0.379,0.01
		c-0.424,0.021-0.744,0.026-0.967,0.018c-0.146,0-0.418,0.014-0.82,0.049C192.213,10.784,191.768,10.797,191.51,10.764z"/>
	<path fill="#FFFFFF" d="M186.19,26.278c-0.215,0.269-0.5,0.275-0.629-0.043c-0.043-0.103-0.109-0.217-0.059-0.302
		c1.26-2.065,2.996-1.99,3.604-2.021c0.088-0.003,0.135,0.13,0.18,0.249c0.057,0.133,0.086,0.253,0.082,0.356
		c0,0.103-0.027,0.171-0.092,0.202C189.233,24.741,187.735,24.331,186.19,26.278z"/>
	<path fill="#FFFFFF" d="M202.87,21.691c0.244-0.243,0.525-0.213,0.621,0.116c0.029,0.109,0.082,0.23,0.021,0.307
		c-1.484,1.905-3.207,1.632-3.814,1.592c-0.088-0.006-0.117-0.146-0.146-0.267c-0.039-0.141-0.057-0.262-0.039-0.366
		c0.012-0.103,0.047-0.166,0.111-0.191C199.67,22.866,201.112,23.446,202.87,21.691z"/>
	<path fill="#FFFFFF" d="M199.317,10.586c-0.064-0.023-0.104-0.087-0.115-0.189c-0.014-0.104,0-0.225,0.041-0.367
		c0.033-0.121,0.064-0.261,0.15-0.267c0.604-0.04,2.324-0.313,3.811,1.592c0.063,0.078,0.01,0.199-0.02,0.307
		c-0.092,0.33-0.379,0.36-0.619,0.115C200.803,10.022,199.362,10.603,199.317,10.586z"/>
	<path fill="#FFFFFF" d="M192.131,24.746c-0.363-0.042-0.523-0.234-0.484-0.572c0.012-0.11,0.045-0.208,0.096-0.291
		c0.047-0.085,0.109-0.121,0.189-0.113c0.043,0.006,0.121,0.019,0.236,0.037c0.205,0.044,0.379,0.075,0.508,0.089
		c0.107,0.015,0.426,0,0.941-0.034c0.416-0.029,0.674-0.042,0.775-0.035c0.17,0.006,0.447-0.019,0.842-0.074
		c0.244-0.033,0.396-0.048,0.445-0.043c0.086,0.013,0.146,0.055,0.188,0.135c0.041,0.078,0.057,0.178,0.039,0.302
		c-0.017,0.146-0.05,0.264-0.103,0.354c-0.048,0.09-0.104,0.135-0.179,0.132c-0.051-0.002-0.179,0.001-0.381,0.009
		c-0.423,0.021-0.74,0.025-0.968,0.019c-0.144-0.001-0.416,0.015-0.817,0.05C192.834,24.767,192.387,24.779,192.131,24.746z"/>
	<path fill="#FFFFFF" d="M204.958,14.851c0.041-0.363,0.232-0.521,0.572-0.481c0.111,0.01,0.209,0.043,0.293,0.093
		c0.084,0.049,0.119,0.109,0.109,0.19c-0.006,0.041-0.02,0.12-0.039,0.236c-0.043,0.207-0.07,0.38-0.09,0.509
		c-0.012,0.108,0,0.423,0.037,0.941c0.025,0.417,0.043,0.677,0.033,0.777c-0.008,0.167,0.02,0.452,0.076,0.842
		c0.029,0.245,0.047,0.392,0.043,0.446c-0.018,0.087-0.061,0.149-0.135,0.19c-0.082,0.041-0.184,0.057-0.309,0.04
		c-0.145-0.017-0.266-0.05-0.354-0.1c-0.09-0.05-0.133-0.109-0.131-0.179c0.002-0.048,0-0.176-0.008-0.378
		c-0.021-0.423-0.025-0.743-0.021-0.964c0-0.145-0.018-0.419-0.053-0.825C204.938,15.555,204.924,15.108,204.958,14.851z"/>
	<path fill="#FFFFFF" d="M183.508,29.705c0.041-0.363,0.234-0.521,0.57-0.482c0.111,0.011,0.211,0.043,0.293,0.094
		c0.086,0.048,0.121,0.109,0.111,0.188c-0.008,0.041-0.021,0.12-0.041,0.237c-0.041,0.207-0.07,0.381-0.086,0.508
		c-0.016,0.107,0,0.423,0.033,0.942c0.027,0.416,0.041,0.674,0.031,0.777c-0.004,0.166,0.021,0.448,0.076,0.843
		c0.031,0.243,0.047,0.389,0.043,0.445c-0.016,0.086-0.059,0.15-0.137,0.188c-0.08,0.041-0.18,0.055-0.303,0.038
		c-0.145-0.017-0.266-0.046-0.357-0.1c-0.09-0.049-0.135-0.108-0.131-0.178c0-0.048-0.002-0.174-0.008-0.379
		c-0.021-0.422-0.029-0.743-0.018-0.964c0-0.146-0.02-0.421-0.053-0.826C183.487,30.409,183.475,29.963,183.508,29.705z"/>
	<path fill="#FFFFFF" d="M183.508,37.013c0.041-0.363,0.234-0.521,0.57-0.483c0.111,0.013,0.211,0.044,0.293,0.093
		c0.086,0.048,0.121,0.111,0.111,0.189c-0.008,0.042-0.021,0.12-0.041,0.237c-0.041,0.207-0.07,0.381-0.086,0.508
		c-0.016,0.109,0,0.423,0.033,0.943c0.027,0.414,0.041,0.674,0.031,0.777c-0.004,0.167,0.021,0.449,0.076,0.841
		c0.031,0.244,0.047,0.392,0.043,0.447c-0.016,0.084-0.059,0.148-0.137,0.188c-0.08,0.04-0.18,0.056-0.303,0.038
		c-0.145-0.016-0.266-0.048-0.357-0.097c-0.09-0.052-0.135-0.109-0.131-0.18c0-0.05-0.002-0.175-0.008-0.379
		c-0.021-0.422-0.029-0.744-0.018-0.964c0-0.144-0.02-0.418-0.053-0.823C183.487,37.717,183.475,37.272,183.508,37.013z"/>
</g>
<path fill="#FFFFFF" enable-background="new    " d="M28.962,66.468c-11.044,0-20,8.954-20,20.001c0,11.045,8.956,19.999,20,19.999
	s20-8.954,20-19.999C48.964,75.422,40.007,66.468,28.962,66.468z M40.858,81.758c-0.203,9.58-6.243,16.236-15.401,16.654
	c-3.755,0.213-6.458-1.038-8.959-2.492c2.703,0.416,6.254-0.631,8.123-2.297c-2.705-0.204-4.37-1.658-5.206-3.956
	c0.835,0.214,1.668,0,2.287,0c-2.501-0.832-4.155-2.289-4.369-5.622c0.63,0.418,1.452,0.63,2.284,0.63
	c-1.869-1.046-3.119-5.003-1.654-7.504c2.703,2.917,6.028,5.419,11.447,5.835c-1.452-5.835,6.456-8.957,9.578-5.001
	c1.454-0.202,2.501-0.833,3.538-1.24c-0.416,1.453-1.25,2.288-2.286,3.121c1.037-0.214,2.084-0.416,2.917-0.833
	C42.943,80.089,41.906,80.925,40.858,81.758z"/>
<path fill="#FFFFFF" enable-background="new    " d="M28.963,114.092c-11.046,0-20,8.955-20,20c0,11.046,8.953,20,20,20
	s20-8.954,20-20C48.964,123.047,40.011,114.092,28.963,114.092z M34.121,127.885h-2.722c-0.693,0-1.278,0.563-1.278,1.296v0.704
	h3.778l-0.597,4h-3.181v10h-3v-10h-3v-4h3v-1h-0.665c0.066-3,1.665-4.553,4.665-4.683v-0.317h3V127.885z"/>
<g>
	<path fill="#FFFFFF" d="M40.09,173.962c0-2.804-2.273-5.077-5.077-5.077H22.167c-2.804,0-5.077,2.273-5.077,5.077v12.846
		c0,2.806,2.273,5.077,5.077,5.077h12.846c2.804,0,5.077-2.271,5.077-5.077V173.962z M28.963,187.927
		c-3.853,0-6.987-3.135-6.987-6.986c0-3.853,3.134-6.988,6.987-6.988c3.854,0,6.987,3.136,6.987,6.988
		C35.949,184.791,32.817,187.927,28.963,187.927z M37.491,174.925c-0.329,0.328-0.783,0.517-1.248,0.517
		c-0.465,0-0.92-0.188-1.247-0.517c-0.329-0.33-0.519-0.785-0.519-1.249c0-0.465,0.189-0.92,0.519-1.248
		c0.327-0.329,0.782-0.517,1.247-0.517c0.464,0,0.92,0.188,1.248,0.517c0.328,0.327,0.516,0.782,0.516,1.248
		C38.007,174.139,37.82,174.594,37.491,174.925z"/>
	<path fill="#FFFFFF" d="M28.963,160.939c-11.044,0-20,8.952-20,20c0,11.044,8.956,20,20,20s20-8.956,20-20
		C48.964,169.892,40.007,160.939,28.963,160.939z M42.09,186.402c0,4.133-3.35,7.481-7.482,7.481H22.572
		c-4.132,0.001-7.482-3.349-7.482-7.481v-12.034c0-4.133,3.35-7.483,7.482-7.483h12.036c4.132,0,7.482,3.351,7.482,7.483V186.402z"
		/>
	<path fill="#FFFFFF" d="M28.963,176.357c-2.526,0-4.581,2.055-4.581,4.582c0,2.525,2.055,4.581,4.581,4.581
		c2.526,0,4.583-2.055,4.583-4.581C33.546,178.412,31.489,176.357,28.963,176.357z"/>
</g>
<g>
	<path fill="#FFFFFF" d="M27.177,216.648c-4.894,0-8.881,3.979-8.881,8.879c0,4.896,3.987,8.883,8.881,8.883
		c4.9,0,8.88-3.988,8.88-8.883C36.056,220.632,32.076,216.648,27.177,216.648z"/>
	<path fill="#FFFFFF" d="M28.963,207.31c-11.046,0-20,8.954-20,19.999c0,11.049,8.954,20.001,20,20.001c11.045,0,20-8.952,20-20.001
		C48.963,216.264,40.008,207.31,28.963,207.31z M40.865,239.209c-0.14,0.146-0.327,0.214-0.51,0.214
		c-0.184,0-0.371-0.074-0.511-0.214l-5.887-5.889c-1.817,1.58-4.186,2.531-6.775,2.531c-5.693,0-10.329-4.637-10.329-10.328
		c0-5.694,4.631-10.332,10.329-10.332c5.695,0,10.331,4.629,10.331,10.332c0,2.59-0.956,4.959-2.536,6.771l5.888,5.896
		C41.143,238.468,41.143,238.929,40.865,239.209z"/>
</g>
<g>
	<path fill="#505050" d="M39.221,281.611l-6.318-6.314c1.695-1.949,2.721-4.491,2.721-7.271c0-6.117-4.975-11.087-11.086-11.087
		c-6.117,0-11.086,4.977-11.086,11.087c0,6.108,4.975,11.086,11.086,11.086c2.779,0,5.321-1.023,7.27-2.725l6.319,6.316
		c0.15,0.148,0.351,0.229,0.547,0.229c0.196,0,0.398-0.073,0.548-0.229C39.52,282.406,39.52,281.91,39.221,281.611z M15.002,268.023
		c0-5.26,4.278-9.529,9.529-9.529c5.257,0,9.529,4.277,9.529,9.529s-4.272,9.533-9.529,9.533
		C19.28,277.559,15.002,273.281,15.002,268.023z"/>
</g>
<g>
	<path fill="#E9592D" d="M7.839,334.939c-1.1-0.104-1.585-0.834-1.456-2.199c0.039-0.441,0.136-0.838,0.285-1.18
		c0.15-0.34,0.346-0.498,0.584-0.479c0.12,0.015,0.356,0.051,0.713,0.11c0.636,0.129,1.154,0.216,1.546,0.25
		c0.33,0.024,1.286-0.073,2.868-0.313c1.261-0.188,2.044-0.286,2.357-0.286c0.521,0,1.374-0.148,2.565-0.445
		c0.738-0.183,1.191-0.264,1.351-0.246c0.263,0.021,0.455,0.188,0.579,0.492c0.122,0.31,0.159,0.707,0.113,1.199
		c-0.056,0.585-0.158,1.063-0.31,1.432c-0.152,0.369-0.333,0.56-0.546,0.567c-0.15-0.004-0.534,0.027-1.148,0.103
		c-1.286,0.16-2.264,0.244-2.934,0.252c-0.439,0.021-1.274,0.132-2.501,0.35C9.976,334.879,8.622,335.018,7.839,334.939z"/>
	<path fill="#E9592D" d="M23.805,307.232c0.104-1.104,0.834-1.584,2.2-1.457c0.444,0.039,0.838,0.135,1.178,0.282
		c0.341,0.148,0.498,0.349,0.477,0.584c-0.011,0.122-0.05,0.356-0.111,0.713c-0.129,0.638-0.215,1.151-0.251,1.547
		c-0.028,0.33,0.075,1.287,0.315,2.867c0.19,1.261,0.287,2.045,0.287,2.354c0,0.521,0.15,1.376,0.448,2.563
		c0.179,0.734,0.262,1.188,0.247,1.352c-0.025,0.27-0.19,0.455-0.494,0.58c-0.308,0.123-0.706,0.156-1.2,0.109
		c-0.584-0.057-1.061-0.154-1.43-0.313c-0.369-0.152-0.559-0.333-0.569-0.55c0.003-0.146-0.029-0.53-0.101-1.146
		c-0.161-1.285-0.244-2.268-0.25-2.938c-0.018-0.438-0.133-1.271-0.348-2.505C23.866,309.369,23.729,308.018,23.805,307.232z"/>
	<path fill="#E9592D" d="M26.609,351.215c0.215-1.225,0.33-2.061,0.348-2.5c0.007-0.67,0.089-1.646,0.25-2.936
		c0.072-0.611,0.104-0.996,0.101-1.146c0.011-0.215,0.201-0.395,0.569-0.548c0.369-0.147,0.846-0.255,1.43-0.31
		c0.494-0.049,0.892-0.015,1.2,0.106c0.304,0.125,0.469,0.313,0.494,0.578c0.015,0.155-0.068,0.608-0.247,1.354
		c-0.297,1.188-0.448,2.041-0.448,2.563c0,0.313-0.097,1.1-0.287,2.354c-0.24,1.58-0.344,2.537-0.315,2.865
		c0.036,0.396,0.122,0.909,0.251,1.549c0.061,0.354,0.1,0.59,0.111,0.713c0.021,0.234-0.136,0.438-0.477,0.584
		c-0.34,0.146-0.734,0.244-1.178,0.283c-1.365,0.129-2.096-0.354-2.2-1.455C26.136,354.496,26.271,353.145,26.609,351.215z"/>
	<path fill="#E9592D" d="M10.336,316.703c-0.704-0.854-0.53-1.713,0.525-2.586c0.342-0.287,0.69-0.498,1.036-0.631
		c0.347-0.141,0.596-0.107,0.75,0.07c0.077,0.098,0.217,0.285,0.424,0.582c0.358,0.541,0.665,0.975,0.916,1.271
		c0.213,0.256,0.964,0.854,2.251,1.808c1.026,0.758,1.648,1.243,1.87,1.465c0.367,0.366,1.077,0.864,2.13,1.496
		c0.648,0.396,1.028,0.657,1.13,0.778c0.168,0.203,0.187,0.459,0.059,0.762c-0.132,0.308-0.387,0.609-0.769,0.931
		c-0.453,0.371-0.861,0.64-1.23,0.793c-0.369,0.15-0.63,0.158-0.788,0.021c-0.104-0.108-0.398-0.354-0.883-0.741
		c-1.022-0.796-1.773-1.433-2.251-1.896c-0.324-0.299-0.994-0.811-2.015-1.521C11.891,318.169,10.836,317.311,10.336,316.703z"/>
	<path fill="#E9592D" d="M15.766,344.588c1.021-0.717,1.691-1.227,2.015-1.521c0.479-0.469,1.229-1.104,2.251-1.896
		c0.486-0.386,0.779-0.634,0.883-0.741c0.158-0.146,0.419-0.137,0.788,0.021c0.369,0.15,0.777,0.42,1.231,0.793
		c0.381,0.313,0.636,0.623,0.768,0.93c0.127,0.303,0.109,0.557-0.059,0.762c-0.102,0.121-0.482,0.387-1.13,0.778
		c-1.053,0.632-1.762,1.129-2.13,1.497c-0.222,0.221-0.843,0.707-1.87,1.463c-1.288,0.947-2.038,1.553-2.251,1.811
		c-0.251,0.301-0.557,0.729-0.916,1.271c-0.208,0.294-0.347,0.485-0.424,0.579c-0.154,0.184-0.403,0.212-0.75,0.074
		c-0.346-0.135-0.693-0.346-1.036-0.631c-1.055-0.873-1.229-1.731-0.525-2.588C13.111,346.572,14.166,345.713,15.766,344.588z"/>
</g>
<g>
	<path fill="#388E3B" d="M76.066,587.833c-3.859,0-7,3.142-7,7.003c0,3.854,3.141,7,7,7c3.86,0,7.002-3.146,7.002-7
		C83.068,590.975,79.928,587.833,76.066,587.833z"/>
	<path fill="#388E3B" d="M90.772,584.916h-4.976l-2.334-5.835H68.669l-2.334,5.835h-0.771v-2.918h-3.5v2.918h-0.701
		c-1.545,0-2.799,1.256-2.799,2.801v17.139c0,1.56,1.264,2.814,2.817,2.814h29.367c1.556,0,2.82-1.269,2.82-2.814v-17.139
		C93.57,586.172,92.314,584.916,90.772,584.916z M64.398,584.916H63.23v-1.751h1.168V584.916z M76.066,605.338
		c-5.789,0-10.502-4.714-10.502-10.502c0-5.793,4.713-10.503,10.502-10.503c5.793,0,10.504,4.712,10.504,10.503
		C86.57,600.624,81.859,605.338,76.066,605.338z M88.904,591.918c-1.289,0-2.334-1.047-2.334-2.334s1.045-2.335,2.334-2.335
		c1.285,0,2.332,1.048,2.332,2.335S90.189,591.918,88.904,591.918z"/>
</g>
<g>
	<path fill="#388E3B" d="M76.069,535.992c-9.441,0-17.123,7.68-17.123,17.117c0,3.494,1.049,6.854,3.029,9.729
		c0.35,0.512,0.928,0.813,1.545,0.813h6.733l8.472,2.517v3.441c0,0.75,0.606,1.354,1.354,1.354c0.75,0,1.361-0.604,1.361-1.354
		v-4.665l4.307-8.147c4.963-0.271,6.707-2.104,7.023-2.496c0.27-0.334,0.416-0.75,0.416-1.178
		C93.19,543.672,85.506,535.992,76.069,535.992z M67.291,555.354c-0.805,0-1.453-0.646-1.453-1.451c0-0.805,0.648-1.454,1.453-1.454
		c0.806,0,1.453,0.649,1.453,1.454C68.744,554.704,68.096,555.354,67.291,555.354z M79.156,563.451l-7.104-2.104
		c0.015-0.029,0.021-0.063,0.029-0.098c0.711-2.525,1.732-4.996,5.646-4.996c0.539,0,1.129,0.054,1.746,0.146
		c1.118,0.177,2.194,0.292,3.215,0.354L79.156,563.451z"/>
</g>
<g>
	<g>
		<g>
			<path fill="#388E3B" d="M78.502,65.098c0-3.575-2.896-6.485-6.475-6.485c-3.579,0-6.478,2.91-6.478,6.485V79.67
				c-1.363,1.553-2.093,3.521-2.093,5.59c0,4.725,3.836,8.564,8.562,8.564c4.724,0,8.563-3.844,8.563-8.564
				c0-2.065-0.717-4.035-2.079-5.59V65.098L78.502,65.098z M72.014,91.523c-3.451,0-6.259-2.81-6.259-6.265
				c0-1.633,0.618-3.174,1.749-4.344c0.208-0.213,0.32-0.5,0.32-0.799V65.096c0-2.309,1.866-4.188,4.175-4.188
				c2.308,0,4.175,1.877,4.175,4.188v15.021c0,0.299,0.129,0.586,0.338,0.799c1.131,1.172,1.76,2.715,1.76,4.344
				C78.269,88.716,75.471,91.523,72.014,91.523z"/>
			<path fill="#388E3B" d="M73.958,81.591v-5.274c0-1.063-0.871-1.919-1.934-1.919s-1.93,0.857-1.93,1.919v5.274
				c-1.25,0.687-2.146,2.031-2.146,3.58c0,2.242,1.813,4.063,4.063,4.063c2.241,0,4.07-1.818,4.07-4.063
				C76.09,83.622,75.208,82.275,73.958,81.591z"/>
			<path fill="#388E3B" d="M82.153,62.904h5.37c0.639,0,1.152-0.528,1.152-1.165c0-0.636-0.521-1.164-1.152-1.164h-5.37
				c-0.638,0-1.151,0.525-1.151,1.164C81.002,62.374,81.517,62.904,82.153,62.904z"/>
			<path fill="#388E3B" d="M87.523,65.97H82.15c-0.633,0-1.147,0.5-1.147,1.139c0,0.636,0.516,1.138,1.147,1.138h5.373
				c0.637,0,1.152-0.502,1.152-1.138C88.674,66.47,88.159,65.97,87.523,65.97z"/>
			<path fill="#388E3B" d="M87.523,71.312H82.15c-0.633,0-1.147,0.526-1.147,1.162c0,0.638,0.516,1.164,1.147,1.164h5.373
				c0.637,0,1.152-0.526,1.152-1.164C88.676,71.84,88.159,71.312,87.523,71.312z"/>
			<path fill="#388E3B" d="M87.523,76.708H82.15c-0.633,0-1.147,0.502-1.147,1.137c0,0.641,0.516,1.14,1.147,1.14h5.373
				c0.637,0,1.152-0.499,1.152-1.14C88.674,77.21,88.159,76.708,87.523,76.708z"/>
		</g>
	</g>
</g>
<g>
	<path fill="#388E3B" d="M82.858,102.507c-1.858-1.834-4.326-2.823-6.938-2.788c-5.229,0.072-9.521,4.393-9.549,9.625
		c-0.012,1.564,0.344,3.061,1.049,4.441l4.562,7.642c0.729-1.019,1.896-1.731,3.534-1.731c1.566,0,2.718,0.647,3.449,1.6
		c0.234,0.133,0.457,0.279,0.652,0.453h0.326l4.748-7.959c0.694-1.365,1.049-2.84,1.049-4.385
		C85.743,106.791,84.718,104.342,82.858,102.507z"/>
	<path fill="#388E3B" d="M89.846,133.594l-4.877-10.316c-0.104-0.207-0.27-0.364-0.471-0.451l-2.43-1.078l-0.938,1.576l2.332,1.037
		l3.682,7.789l-4.233-1.887c-0.232-0.104-0.506-0.104-0.74,0l-6.109,2.723l-6.108-2.723c-0.232-0.104-0.506-0.104-0.738,0
		l-4.232,1.887l3.683-7.789l2.33-1.037l-0.939-1.576l-2.438,1.086c-0.194,0.089-0.358,0.246-0.453,0.443l-4.879,10.316
		c-0.162,0.348-0.098,0.756,0.172,1.029c0.271,0.271,0.679,0.352,1.021,0.195l6.108-2.723l6.109,2.723
		c0.234,0.104,0.508,0.104,0.744,0l6.109-2.723l6.106,2.723c0.121,0.053,0.246,0.078,0.371,0.078c0.236,0,0.479-0.098,0.65-0.271
		C89.942,134.35,90.011,133.94,89.846,133.594z"/>
	<path fill="#FFFFFF" d="M83.466,124.36l-2.334-1.037l-0.226,0.373c0.229,0.707,0.3,1.473,0.214,2.218
		c0.295,2.479-1.162,5.204-4.392,5.204c-2.471,0-3.896-1.598-4.303-3.457c-1.058-1.041-1.447-4.338-1.447-4.338l-2.332,1.037
		l-3.686,7.789l4.229-1.888c0.236-0.104,0.508-0.104,0.742,0l6.111,2.724l6.106-2.725c0.236-0.104,0.511-0.104,0.744,0l4.229,1.889
		L83.466,124.36z"/>
	<path fill="#388E3B" d="M85.743,109.403c0,1.545-0.354,3.019-1.049,4.384l-7.854,13.165c-0.238,0.402-0.627,0.445-0.785,0.445
		c-0.151,0-0.543-0.043-0.78-0.445l-7.854-13.165c-0.703-1.382-1.059-2.878-1.05-4.441c0.03-5.233,4.313-9.554,9.552-9.625
		c2.609-0.032,5.077,0.954,6.938,2.788C84.718,104.342,85.743,106.791,85.743,109.403z M80.223,109.403
		c0-2.297-1.869-4.166-4.17-4.166c-2.297,0-4.166,1.869-4.166,4.166c0,2.299,1.869,4.168,4.166,4.168
		C78.354,113.571,80.223,111.701,80.223,109.403z"/>
	<path fill="#FFFFFF" d="M76.054,107.061c1.293,0,2.344,1.053,2.344,2.344c0,1.291-1.051,2.34-2.344,2.34
		c-1.289,0-2.34-1.049-2.34-2.34C73.714,108.114,74.764,107.061,76.054,107.061z"/>
</g>
<g>
	<g>
		<path fill="#388E3B" d="M84.07,144.224l-0.438,0.438v-0.438h-2.158c-0.976,1.503-3.023,2.542-5.412,2.542
			c-2.385,0-4.438-1.04-5.406-2.542h-2.158v0.438l-0.438-0.438l-7.76,7.766l4.241,4.249l3.955-3.957v19.782h15.138v-19.781
			l3.955,3.957l4.243-4.25L84.07,144.224z"/>
		<path fill="#388E3B" d="M83.629,173.808H68.494c-0.965,0-1.746-0.778-1.746-1.744v-15.569l-0.979,0.978
			c-0.324,0.325-0.771,0.513-1.232,0.513l0,0c-0.461,0-0.902-0.188-1.23-0.513l-4.244-4.249c-0.686-0.682-0.686-1.783,0-2.469
			l7.763-7.766c0.379-0.379,0.928-0.563,1.451-0.498c0.073-0.009,0.146-0.016,0.225-0.016h2.156c0.594,0,1.146,0.302,1.467,0.798
			c0.688,1.062,2.229,1.744,3.94,1.744c1.712,0,3.263-0.685,3.947-1.744c0.318-0.496,0.873-0.798,1.463-0.798h2.16
			c0.07,0,0.146,0.006,0.221,0.016c0.07-0.009,0.146-0.016,0.22-0.016l0,0c0.465,0,0.903,0.188,1.231,0.514l7.761,7.764
			c0.688,0.682,0.688,1.785,0,2.468l-4.242,4.25c-0.324,0.325-0.771,0.513-1.229,0.513c-0.002,0-0.002,0-0.002,0
			c-0.463,0.001-0.906-0.188-1.23-0.512l-0.979-0.979v15.564C85.375,173.028,84.594,173.808,83.629,173.808z M70.238,170.319h11.646
			v-18.038c0-0.705,0.426-1.341,1.075-1.611c0.652-0.27,1.4-0.121,1.9,0.377l2.723,2.725l1.777-1.781l-5.584-5.587
			c-0.275,0.022-0.554-0.021-0.814-0.125c-0.184-0.075-0.35-0.182-0.485-0.31h-0.148c-1.439,1.589-3.75,2.541-6.266,2.541
			c-2.514,0-4.816-0.952-6.262-2.541h-0.146c-0.146,0.128-0.313,0.23-0.49,0.31c-0.266,0.104-0.545,0.146-0.814,0.125l-5.584,5.589
			l1.775,1.779l2.723-2.725c0.498-0.5,1.25-0.646,1.9-0.379c0.65,0.271,1.076,0.908,1.076,1.613v18.038H70.238L70.238,170.319z"/>
	</g>
</g>
<g>
	<g>
		<g>
			<g>
				<path fill="#388E3B" d="M69.599,198.034c-1.438,1.025-2.871,1.623-4.133,2.146c-1.191,0.494-2.227,0.926-2.895,1.594
					c-2.256,2.258-2.256,5.926,0,8.182c1.128,1.129,2.605,1.691,4.095,1.691c1.479,0,2.963-0.563,4.091-1.691
					c0.668-0.668,1.098-1.697,1.594-2.889c0.522-1.264,1.121-2.693,2.146-4.135c0.188-0.264,0.128-0.627-0.136-0.813
					c-0.264-0.187-0.626-0.125-0.813,0.137c-1.104,1.549-1.757,3.107-2.275,4.363c-0.447,1.076-0.838,2.006-1.342,2.512
					c-1.802,1.801-4.729,1.801-6.53,0c-1.804-1.801-1.804-4.729,0-6.531c0.505-0.506,1.438-0.893,2.515-1.342
					c1.256-0.52,2.813-1.17,4.361-2.273c0.264-0.188,0.32-0.553,0.137-0.813C70.224,197.909,69.861,197.847,69.599,198.034z"/>
				<path fill="#388E3B" d="M67.469,202.984c0.846-0.311,1.715-0.623,2.41-1.146c0.258-0.191,0.311-0.563,0.112-0.814
					c-0.19-0.26-0.562-0.313-0.813-0.115c-0.559,0.418-1.313,0.691-2.104,0.98c-1.031,0.373-2.101,0.766-2.854,1.521
					c-0.656,0.656-1.021,1.527-1.021,2.455c0,0.93,0.357,1.801,1.021,2.457c0.652,0.652,1.524,1.018,2.457,1.018
					c0.928,0,1.799-0.357,2.452-1.018c0.668-0.668,1.099-1.697,1.595-2.893c0.523-1.264,1.121-2.691,2.146-4.133
					c0.188-0.262,0.126-0.625-0.138-0.813c-0.264-0.189-0.625-0.127-0.813,0.135c-1.104,1.547-1.755,3.108-2.274,4.361
					c-0.444,1.076-0.836,2.01-1.342,2.514c-0.871,0.873-2.392,0.873-3.263,0c-0.897-0.898-0.897-2.361,0-3.262
					C65.614,203.657,66.516,203.329,67.469,202.984z"/>
				<path fill="#388E3B" d="M78.522,203.001l-8.991-8.992c-0.229-0.227-0.599-0.227-0.823,0c-0.229,0.229-0.229,0.6,0,0.826
					l9.006,9.002c0.035,0.035,3.469,3.332,1.901,6.982c-0.127,0.295,0.013,0.641,0.308,0.766c0.073,0.033,0.151,0.047,0.229,0.047
					c0.228,0,0.44-0.133,0.534-0.354C82.579,206.87,78.678,203.146,78.522,203.001z"/>
				<path fill="#388E3B" d="M76,203.757c-0.263-0.188-0.625-0.127-0.813,0.137c-1.045,1.465-1.571,2.811-2.034,3.994
					c-0.447,1.146-0.835,2.137-1.582,2.879c-2.702,2.703-7.099,2.703-9.802,0c-1.312-1.309-2.029-3.049-2.029-4.898
					c0-1.851,0.723-3.59,2.029-4.898c0.746-0.748,1.733-1.135,2.879-1.582c1.188-0.463,2.533-0.986,3.994-2.031
					c0.265-0.189,0.324-0.555,0.138-0.814c-0.188-0.264-0.554-0.322-0.813-0.137c-1.345,0.961-2.619,1.459-3.74,1.896
					c-1.217,0.477-2.356,0.924-3.276,1.846c-1.526,1.525-2.372,3.563-2.372,5.727c0,2.162,0.846,4.195,2.372,5.729
					c1.577,1.575,3.647,2.364,5.729,2.364c2.068,0,4.146-0.789,5.728-2.364c0.918-0.923,1.366-2.063,1.842-3.278
					c0.438-1.125,0.938-2.398,1.897-3.744C76.323,204.308,76.262,203.945,76,203.757z"/>
				<path fill="#388E3B" d="M79.335,202.191c0.112,0.113,0.264,0.172,0.411,0.172s0.3-0.059,0.412-0.172
					c0.229-0.229,0.229-0.6,0-0.824l-8.991-8.991c-0.229-0.229-0.598-0.229-0.822,0c-0.229,0.229-0.229,0.598,0,0.824
					L79.335,202.191z"/>
				<path fill="#388E3B" d="M82.2,195.007c0.116,0,0.233-0.037,0.338-0.107c1.438-1.027,2.871-1.624,4.134-2.148
					c1.19-0.497,2.221-0.925,2.889-1.593c2.259-2.256,2.259-5.926,0-8.184c-1.092-1.094-2.545-1.693-4.09-1.693
					c-1.545,0-2.998,0.603-4.09,1.693c-0.67,0.668-1.099,1.696-1.595,2.891c-0.524,1.263-1.12,2.689-2.147,4.133
					c-0.188,0.262-0.125,0.627,0.138,0.813c0.268,0.188,0.627,0.129,0.813-0.136c1.104-1.546,1.754-3.104,2.273-4.358
					c0.447-1.078,0.836-2.01,1.342-2.516c0.871-0.873,2.031-1.354,3.268-1.354c1.235,0,2.395,0.479,3.268,1.354
					c1.805,1.801,1.805,4.73,0,6.532c-0.504,0.504-1.438,0.892-2.514,1.34c-1.256,0.522-2.814,1.171-4.361,2.277
					c-0.264,0.188-0.316,0.551-0.137,0.813C81.84,194.921,82.017,195.007,82.2,195.007z"/>
				<path fill="#388E3B" d="M91.194,181.34c-1.526-1.53-3.563-2.372-5.728-2.372c-2.162,0-4.195,0.842-5.729,2.372
					c-0.918,0.919-1.362,2.065-1.843,3.278c-0.438,1.123-0.938,2.396-1.896,3.744c-0.188,0.262-0.129,0.625,0.138,0.813
					c0.262,0.188,0.627,0.127,0.813-0.135c1.047-1.465,1.572-2.813,2.037-3.996c0.445-1.145,0.834-2.132,1.58-2.879
					c1.311-1.309,3.049-2.03,4.898-2.03c1.849,0,3.59,0.724,4.896,2.03c1.313,1.309,2.03,3.049,2.03,4.9s-0.722,3.592-2.03,4.898
					c-0.742,0.746-1.729,1.133-2.88,1.581c-1.187,0.464-2.528,0.992-3.993,2.037c-0.263,0.188-0.319,0.551-0.138,0.813
					c0.112,0.158,0.293,0.242,0.479,0.242c0.113,0,0.232-0.033,0.339-0.105c1.347-0.961,2.618-1.459,3.741-1.898
					c1.213-0.477,2.355-0.923,3.275-1.842c1.529-1.528,2.371-3.563,2.371-5.727C93.562,184.903,92.723,182.869,91.194,181.34z"/>
				<path fill="#388E3B" d="M74.437,189.104c-0.229-0.229-0.598-0.229-0.824,0c-0.229,0.229-0.229,0.599,0,0.824l8.99,8.991
					c0.113,0.113,0.267,0.172,0.412,0.172c0.149,0,0.299-0.059,0.412-0.172c0.229-0.229,0.229-0.596,0-0.824L74.437,189.104z"/>
				<path fill="#388E3B" d="M72.801,190.741c-0.227-0.229-0.597-0.229-0.824,0c-0.227,0.228-0.227,0.597,0,0.824l8.992,8.991
					c0.115,0.111,0.268,0.172,0.414,0.172s0.297-0.061,0.412-0.172c0.229-0.229,0.229-0.6,0-0.822L72.801,190.741z"/>
				<path fill="#388E3B" d="M84.669,189.948c-0.845,0.308-1.716,0.623-2.412,1.146c-0.256,0.191-0.31,0.561-0.111,0.814
					c0.189,0.258,0.563,0.313,0.814,0.115c0.555-0.42,1.313-0.691,2.104-0.982c1.031-0.374,2.102-0.764,2.859-1.521
					c0.653-0.658,1.018-1.529,1.018-2.457c0-0.932-0.36-1.803-1.018-2.457c-1.354-1.354-3.563-1.354-4.912,0
					c-0.668,0.668-1.101,1.697-1.593,2.891c-0.524,1.262-1.12,2.693-2.147,4.132c-0.188,0.265-0.127,0.626,0.136,0.813
					c0.104,0.07,0.224,0.105,0.34,0.105c0.183,0,0.358-0.085,0.476-0.242c1.104-1.548,1.754-3.107,2.274-4.361
					c0.449-1.078,0.837-2.008,1.343-2.514c0.896-0.898,2.362-0.898,3.262,0c0.439,0.438,0.679,1.016,0.679,1.633
					c0,0.612-0.234,1.192-0.679,1.631C86.521,189.274,85.622,189.602,84.669,189.948z"/>
			</g>
		</g>
	</g>
	<g>
		<g>
			<g>
				<path fill="#388E3B" d="M89.462,206.628c0.063-0.605-0.097-1.221-0.439-1.723c-0.084-0.123-0.182-0.236-0.28-0.342l-2.728-2.805
					c-0.502-0.514-1.194-0.799-1.916-0.779c-0.715,0.016-1.397,0.328-1.879,0.861l-0.647,0.73l1.229,1.094l0.646-0.729
					c0.179-0.194,0.431-0.313,0.688-0.317c0.266-0.006,0.52,0.1,0.701,0.287l2.727,2.801c0.037,0.039,0.07,0.082,0.104,0.127
					c0.127,0.187,0.188,0.408,0.16,0.631c-0.023,0.279-0.178,0.531-0.404,0.691l-7.234,4.961c-0.223,0.15-0.498,0.203-0.762,0.141
					C79.2,212.2,79,212.066,78.866,211.87c-0.021-0.025-0.035-0.057-0.057-0.086L77.9,210.1c-0.188-0.354-0.143-0.785,0.127-1.084
					l0.396-0.443l-1.229-1.092l-0.396,0.439c-0.726,0.814-0.859,2.002-0.346,2.959l0.91,1.688c0.043,0.08,0.093,0.154,0.145,0.229
					c0.361,0.529,0.907,0.904,1.527,1.055c0.717,0.174,1.473,0.031,2.076-0.381l7.232-4.965
					C88.978,208.075,89.385,207.39,89.462,206.628z"/>
			</g>
		</g>
		<g>
			<g>
				<path fill="#388E3B" d="M82.198,204.337l-1.228-1.092l-3.185,3.568l1.229,1.094L82.198,204.337z M78.731,206.854
					c-0.104-0.154-0.063-0.365,0.091-0.475c0.153-0.104,0.364-0.064,0.474,0.088c0.104,0.154,0.065,0.365-0.088,0.473
					C79.053,207.046,78.842,207.005,78.731,206.854z"/>
			</g>
		</g>
	</g>
</g>
<g>
	<path fill="#388E3B" d="M62.353,279.102c-0.881,0-1.596-0.717-1.596-1.598c0-0.88,0.715-1.594,1.596-1.594
		c4.396,0,7.977-3.58,7.977-7.979c0-0.881,0.715-1.596,1.595-1.596c0.881,0,1.598,0.715,1.598,1.596
		C73.514,274.092,68.508,279.102,62.353,279.102z"/>
	<path fill="#388E3B" d="M71.921,269.531c-0.879,0-1.594-0.715-1.594-1.598c0-6.152,5.006-11.158,11.162-11.158h7.973
		c0.88,0,1.595,0.713,1.595,1.594s-0.715,1.596-1.595,1.596H81.49c-4.396,0-7.979,3.576-7.979,7.975
		C73.514,268.816,72.801,269.531,71.921,269.531z"/>
	<path fill="#388E3B" d="M89.462,279.102H81.49c-2.729,0-5.35-0.988-7.389-2.791c-0.656-0.584-0.726-1.59-0.144-2.25
		c0.582-0.658,1.593-0.723,2.25-0.141c1.457,1.281,3.332,1.99,5.273,1.99h7.975c0.881,0,1.597,0.714,1.597,1.594
		C91.055,278.385,90.34,279.102,89.462,279.102z"/>
	<path fill="#388E3B" d="M68.736,262.4c-0.383,0-0.762-0.137-1.064-0.406c-1.463-1.311-3.35-2.025-5.315-2.025H60.76
		c-0.88,0-1.595-0.714-1.595-1.598c0-0.881,0.715-1.594,1.595-1.594h1.596c2.752,0,5.396,1.01,7.443,2.84
		c0.653,0.586,0.713,1.6,0.125,2.252C69.607,262.221,69.172,262.4,68.736,262.4z"/>
	<path fill="#388E3B" d="M62.353,279.102h-1.596c-0.88,0-1.595-0.717-1.595-1.598c0-0.88,0.715-1.594,1.595-1.594h1.596
		c0.883,0,1.598,0.714,1.598,1.594C63.951,278.385,63.236,279.102,62.353,279.102z"/>
	<path fill="#388E3B" d="M81.492,266.342c-0.494,0-0.979-0.227-1.291-0.656c-0.521-0.713-0.358-1.709,0.351-2.228l6.998-5.089
		l-6.996-5.088c-0.711-0.521-0.869-1.521-0.353-2.229c0.516-0.708,1.515-0.871,2.229-0.353l10.541,7.668l-10.543,7.668
		C82.142,266.244,81.812,266.342,81.492,266.342z"/>
	<path fill="#388E3B" d="M81.492,285.479c-0.494,0-0.979-0.229-1.291-0.656c-0.521-0.713-0.358-1.709,0.351-2.229l6.998-5.09
		l-6.996-5.09c-0.711-0.521-0.869-1.516-0.353-2.229c0.517-0.713,1.515-0.866,2.229-0.352l10.541,7.665l-10.543,7.671
		C82.142,285.379,81.812,285.479,81.492,285.479z"/>
</g>
<g>
	<path fill="#388E3B" d="M90.342,291.746H61.791c-1.776,0-3.223,1.447-3.223,3.223v17.574c0,1.777,1.441,3.227,3.223,3.227h28.552
		c1.776,0,3.223-1.443,3.223-3.227v-17.574C93.562,293.193,92.119,291.746,90.342,291.746z M91.551,312.543
		c0,0.666-0.543,1.209-1.209,1.209H61.791c-0.666,0-1.209-0.543-1.209-1.209v-17.574c0-0.664,0.543-1.205,1.209-1.205h28.552
		c0.666,0,1.209,0.54,1.209,1.205L91.551,312.543L91.551,312.543z"/>
	<path fill="#388E3B" d="M87.574,297.496H78.32c-0.445,0-0.809,0.361-0.809,0.805c0,0.445,0.355,0.811,0.809,0.811h9.254
		c0.443,0,0.81-0.357,0.81-0.811C88.381,297.857,88.017,297.496,87.574,297.496z"/>
	<path fill="#388E3B" d="M87.574,308.406H78.32c-0.445,0-0.809,0.357-0.809,0.807c0,0.443,0.355,0.807,0.809,0.807h9.254
		c0.443,0,0.81-0.357,0.81-0.807C88.378,308.77,88.017,308.406,87.574,308.406z"/>
	<path fill="#388E3B" d="M87.574,302.156H81.97c-0.443,0-0.811,0.357-0.811,0.807c0,0.443,0.356,0.809,0.811,0.809h5.604
		c0.443,0,0.81-0.361,0.81-0.809C88.378,302.52,88.017,302.156,87.574,302.156z"/>
	<path fill="#388E3B" d="M87.574,305.281H81.97c-0.443,0-0.811,0.357-0.811,0.805c0,0.445,0.356,0.809,0.811,0.809h5.604
		c0.443,0,0.81-0.359,0.81-0.809C88.381,305.645,88.017,305.281,87.574,305.281z"/>
	<path fill="#388E3B" d="M70,304.133c2.285,0,4.144-1.855,4.144-4.143c0-2.283-1.856-4.146-4.144-4.146
		c-2.28,0-4.145,1.854-4.145,4.146C65.855,302.277,67.719,304.133,70,304.133z M70,297.863c1.177,0,2.127,0.955,2.127,2.129
		c0,1.172-0.95,2.127-2.127,2.127c-1.172,0-2.127-0.951-2.127-2.127C67.873,298.818,68.828,297.863,70,297.863z"/>
	<path fill="#388E3B" d="M71.603,304.879h-3.18c-2.229,0-4.041,1.813-4.041,4.039v1.736c0,0.559,0.447,1.01,1.008,1.01
		c0.559,0,1.006-0.451,1.006-1.01v-1.736c0-1.119,0.91-2.023,2.027-2.023h3.18c1.117,0,2.023,0.904,2.023,2.023v1.736
		c0,0.559,0.449,1.01,1.01,1.01c0.557,0,1.006-0.451,1.006-1.01v-1.736C75.642,306.689,73.83,304.879,71.603,304.879z"/>
</g>
<g>
	<path fill="#388E3B" d="M82.105,337.182c-1.119-0.645-2.672-1.322-4.646-2.043c-1.797-0.662-2.977-1.217-3.521-1.662
		c-0.549-0.449-0.82-1.09-0.82-1.928c0-0.818,0.284-1.521,0.854-2.1c0.563-0.574,1.316-0.861,2.262-0.861
		c1.871,0,3.25,1.289,4.146,3.867l4.585-1.879c-1.097-3.768-3.503-5.865-7.222-6.313v-3.07h-3.328v3.07
		c-2.463,0.346-4.27,1.297-5.414,2.851c-1.146,1.563-1.721,3.313-1.721,5.256c0,1.479,0.32,2.785,0.965,3.903
		c0.644,1.115,1.479,1.979,2.506,2.604c1.029,0.623,2.459,1.248,4.289,1.889c2.033,0.721,3.351,1.313,3.938,1.779
		c0.59,0.471,0.889,1.151,0.889,2.063c0,0.88-0.295,1.627-0.889,2.242c-0.59,0.621-1.518,0.937-2.771,0.937
		c-2.678,0-4.256-1.446-4.73-4.353l-5.146,1.347c1.041,4.604,3.729,7.146,8.086,7.588v3.955h3.328v-3.979
		c2.604-0.271,4.604-1.188,5.983-2.734c1.388-1.551,2.076-3.479,2.076-5.807c0-1.52-0.336-2.834-1.006-3.97
		C84.126,338.711,83.23,337.822,82.105,337.182z"/>
</g>
<g>
	<path fill="#388E3B" d="M83.364,393.182l-0.492,2.006c-1.471,0.582-2.646,1.021-3.521,1.329c-0.875,0.307-1.896,0.455-3.061,0.455
		c-1.777,0-3.168-0.438-4.152-1.306c-0.988-0.872-1.479-1.979-1.479-3.313c0-0.521,0.029-1.053,0.105-1.596
		c0.07-0.546,0.191-1.154,0.355-1.843l1.84-6.517c0.164-0.625,0.307-1.217,0.414-1.771c0.113-0.562,0.166-1.065,0.166-1.526
		c0-0.832-0.172-1.414-0.515-1.734c-0.344-0.326-0.997-0.492-1.969-0.492c-0.479,0-0.965,0.076-1.463,0.229
		c-0.5,0.146-0.931,0.291-1.289,0.424l0.489-2.008c1.205-0.492,2.357-0.912,3.464-1.264c1.104-0.35,2.143-0.521,3.129-0.521
		c1.771,0,3.137,0.434,4.094,1.285c0.959,0.854,1.438,1.965,1.438,3.334c0,0.281-0.028,0.776-0.1,1.494
		c-0.066,0.713-0.189,1.364-0.369,1.963l-1.832,6.483c-0.147,0.521-0.285,1.116-0.399,1.786c-0.121,0.666-0.183,1.175-0.183,1.52
		c0,0.857,0.191,1.444,0.578,1.769c0.387,0.313,1.057,0.468,2.004,0.468c0.445,0,0.953-0.078,1.519-0.23
		C82.7,393.438,83.11,393.298,83.364,393.182z M83.829,365.947c0,1.134-0.426,2.099-1.28,2.893
		c-0.854,0.796-1.884,1.194-3.089,1.194s-2.231-0.398-3.1-1.194c-0.863-0.794-1.297-1.759-1.297-2.893
		c0-1.127,0.434-2.096,1.297-2.896c0.859-0.806,1.895-1.201,3.1-1.201s2.234,0.398,3.089,1.201
		C83.403,363.854,83.829,364.82,83.829,365.947z"/>
</g>
<g>
	<polygon fill="#388E3B" points="62.732,412.028 60.003,412.028 60.003,414.351 62.732,414.351 62.732,420.819 59.641,420.819 
		59.641,423.141 62.732,423.141 62.732,429.61 59.641,429.61 59.641,431.93 62.732,431.93 62.732,439.565 68.144,439.565 
		68.144,404.395 62.732,404.395 	"/>
	<path fill="#388E3B" d="M70.46,404.395v35.175h22.031v-35.175H70.46z M81.478,414.896c1.886,0,3.412,1.523,3.412,3.409
		c0,1.888-1.526,3.413-3.412,3.413c-1.885,0-3.412-1.525-3.412-3.413C78.066,416.423,79.596,414.896,81.478,414.896z
		 M75.292,429.063c0-3.413,2.771-6.186,6.188-6.186s6.186,2.771,6.186,6.186H75.292z"/>
</g>
<g>
	<g>
		<g>
			<path fill="#388E3B" d="M87.77,491.406H69.042c-1.27,0-2.303,1.028-2.303,2.304v0.037h-0.037c-1.271,0-2.305,1.028-2.305,2.303
				v0.039h-0.035c-1.271,0-2.305,1.032-2.305,2.305v25.746c0,1.271,1.032,2.307,2.305,2.307h18.725c1.271,0,2.306-1.027,2.306-2.307
				v-0.034h0.037c1.268,0,2.303-1.031,2.303-2.308v-0.036h0.037c1.27,0,2.305-1.034,2.305-2.305V493.71
				C90.075,492.439,89.04,491.406,87.77,491.406z M84.292,524.139c0,0.666-0.539,1.209-1.205,1.209H64.364
				c-0.666,0-1.209-0.543-1.209-1.209v-9.396h21.139L84.292,524.139L84.292,524.139z M84.292,513.643H63.155v-15.25
				c0-0.664,0.543-1.207,1.209-1.207h18.725c0.666,0,1.205,0.543,1.205,1.207L84.292,513.643L84.292,513.643z M86.638,521.797
				c0,0.666-0.543,1.207-1.207,1.207h-0.037V512.4h1.244V521.797L86.638,521.797z M86.638,511.301h-1.244v-12.908
				c0-1.271-1.033-2.305-2.306-2.305H65.495v-0.039c0-0.664,0.545-1.204,1.209-1.204h18.728c0.664,0,1.207,0.54,1.207,1.204
				L86.638,511.301L86.638,511.301z M88.975,519.456c0,0.666-0.539,1.207-1.205,1.207h-0.037v-10.604h1.242V519.456L88.975,519.456z
				 M88.975,508.959h-1.242v-12.91c0-1.271-1.035-2.303-2.303-2.303H67.835v-0.037c0-0.664,0.541-1.207,1.207-1.207H87.77
				c0.666,0,1.205,0.541,1.205,1.207V508.959L88.975,508.959z"/>
		</g>
	</g>
	<g>
		<g>
			<path fill="#388E3B" d="M74.245,510.631l-2.701-9.729c-0.207-0.741-0.893-1.267-1.666-1.267h-1.149
				c-0.773,0-1.459,0.521-1.664,1.267l-2.703,9.729c-0.08,0.295,0.09,0.604,0.383,0.684c0.295,0.08,0.603-0.092,0.685-0.385
				l0.702-2.537h6.353l0.705,2.537c0.063,0.24,0.291,0.4,0.531,0.4c0.049,0,0.1-0.007,0.146-0.021
				C74.157,511.23,74.329,510.926,74.245,510.631z M66.434,507.287l1.688-6.086c0.076-0.271,0.322-0.458,0.604-0.458h1.149
				c0.281,0,0.529,0.188,0.604,0.458l1.69,6.086H66.434z"/>
		</g>
	</g>
	<g>
		<g>
			<path fill="#388E3B" d="M82.02,510.229c-0.021,0-0.035-0.02-0.035-0.035v-2.063v-0.588v-2.646c0-0.306-0.246-0.552-0.551-0.552
				c-0.306,0-0.552,0.246-0.552,0.552v0.231c-0.563-0.488-1.295-0.783-2.098-0.783c-1.764,0-3.199,1.436-3.199,3.195v0.588
				c0,1.766,1.438,3.196,3.199,3.196c0.824,0,1.572-0.313,2.141-0.823c0.14,0.479,0.576,0.823,1.095,0.823
				c0.307,0,0.553-0.245,0.553-0.556C82.573,510.468,82.327,510.229,82.02,510.229z M80.883,508.133c0,1.155-0.94,2.1-2.098,2.1
				c-1.152,0-2.094-0.938-2.094-2.1v-0.588c0-1.154,0.938-2.096,2.094-2.096c1.156,0,2.098,0.938,2.098,2.096V508.133z"/>
		</g>
	</g>
	<g>
		<g>
			<path fill="#388E3B" d="M81.434,517.286H66.14c-0.306,0-0.552,0.246-0.552,0.552c0,0.307,0.246,0.555,0.552,0.555h15.294
				c0.305,0,0.551-0.248,0.551-0.555C81.985,517.532,81.739,517.286,81.434,517.286z"/>
		</g>
	</g>
	<g>
		<g>
			<path fill="#388E3B" d="M74.891,521.991h-9.412c-0.304,0-0.551,0.244-0.551,0.554c0,0.305,0.247,0.553,0.551,0.553h9.412
				c0.305,0,0.553-0.248,0.553-0.553C75.444,522.238,75.196,521.991,74.891,521.991z"/>
		</g>
	</g>
	<g>
		<g>
			<path fill="#388E3B" d="M69.011,519.643H65.48c-0.303,0-0.551,0.246-0.551,0.552c0,0.309,0.248,0.557,0.551,0.557h3.531
				c0.303,0,0.551-0.247,0.551-0.557C69.561,519.889,69.312,519.643,69.011,519.643z"/>
		</g>
	</g>
	<g>
		<g>
			<path fill="#388E3B" d="M81.434,519.643h-9.412c-0.303,0-0.553,0.246-0.553,0.552c0,0.309,0.25,0.557,0.553,0.557h9.412
				c0.305,0,0.551-0.247,0.551-0.557C81.985,519.889,81.739,519.643,81.434,519.643z"/>
		</g>
	</g>
</g>
<g>
	<g>
		<path fill="#388E3B" d="M87.111,459.127c0.473-0.479,0.711-0.901,0.711-1.289c0-0.254-0.103-0.455-0.3-0.604
			c-0.196-0.146-0.405-0.245-0.627-0.289c-0.223-0.044-0.459-0.063-0.713-0.063H62.904c-0.255,0-0.49,0.021-0.711,0.063
			c-0.222,0.05-0.431,0.146-0.63,0.289c-0.196,0.146-0.297,0.354-0.297,0.604c0,0.388,0.235,0.813,0.711,1.289l10.447,10.451v12.693
			h-5.289c-0.287,0-0.533,0.104-0.744,0.313c-0.209,0.209-0.313,0.457-0.313,0.744s0.104,0.532,0.313,0.743
			c0.211,0.205,0.459,0.313,0.744,0.313h14.813c0.287,0,0.529-0.104,0.74-0.313c0.21-0.209,0.313-0.456,0.313-0.743
			s-0.104-0.535-0.313-0.744c-0.211-0.209-0.453-0.313-0.74-0.313H76.66v-12.693L87.111,459.127z"/>
	</g>
	<g>
		<g>
			<path fill="#388E3B" d="M86.268,453.103c-2.313,0.005-4.269,1.729-4.56,4.021h-0.147c-0.053,0.383-0.104,0.768-0.155,1.146h3.676
				l-1.854,2.344c0.431,0.372,0.813,0.8,1.14,1.263c0.594,0.273,1.244,0.422,1.899,0.422c2.539,0,4.601-2.063,4.601-4.602
				C90.865,455.158,88.806,453.103,86.268,453.103z M86.268,461.145c-0.582,0.006-1.151-0.145-1.662-0.425l2.111-2.665
				c0.196-0.249,0.155-0.608-0.095-0.811c-0.104-0.08-0.229-0.123-0.354-0.123h-3.399c0.317-1.877,2.096-3.146,3.979-2.826
				c1.877,0.313,3.146,2.1,2.82,3.979C89.386,459.933,87.951,461.145,86.268,461.145z"/>
		</g>
	</g>
	<g>
		<g>
			<path fill="#388E3B" d="M79.111,457.697l1.995-6.863h4.388v-1.474h-4.938c-0.322,0-0.606,0.22-0.701,0.527l-2.229,7.688
				C78.117,457.615,78.615,457.656,79.111,457.697z"/>
		</g>
	</g>
</g>
<g>
	<g>
		<g>
			<path fill="#388E3B" d="M89.696,227.285H71.571c-0.888,0-2.362,0.336-2.362,2.613v3.481h22.854v-3.481
				C92.058,227.628,90.58,227.285,89.696,227.285z"/>
		</g>
	</g>
	<g>
		<g>
			<polygon fill="#388E3B" points="64.278,234.14 60.83,234.14 60.83,221.958 58.545,221.958 58.545,245.572 60.83,245.572 
				60.83,239.476 91.303,239.476 91.303,245.568 93.587,245.568 93.587,234.14 			"/>
		</g>
	</g>
	<g>
		<g>
			<circle fill="#388E3B" cx="64.639" cy="230.333" r="3.192"/>
		</g>
	</g>
</g>
<g id="Слой_2">
	<g>
		
			<linearGradient id="SVGID_1_" gradientUnits="userSpaceOnUse" x1="877.6021" y1="-1115.9814" x2="890.8882" y2="-1115.9814" gradientTransform="matrix(0.9397 -0.342 -0.342 -0.9397 -1181.7159 -335.7383)">
			<stop  offset="0.1514" style="stop-color:#FF6600"/>
			<stop  offset="0.4896" style="stop-color:#FFB054"/>
			<stop  offset="0.8814" style="stop-color:#FF6600"/>
		</linearGradient>
		<path fill="url(#SVGID_1_)" d="M44.261,427.778c0,0-1.377,2.078-5.91,3.727c-5.579,2.03-6.573,0.817-6.573,0.817l-14.72-40.442
			c0,0,4.78-1.187,6.245-1.719c1.656-0.603,6.238-2.825,6.238-2.825L44.261,427.778z"/>
		<path fill="#E64D00" d="M36.182,432.207c-0.006-0.104-0.985-2.789-0.985-2.789c-0.186-0.51-0.689-0.792-1.126-0.633
			c-0.436,0.159-0.64,0.7-0.455,1.208c0,0,0.924,2.479,0.988,2.565c0,0,0.548-0.1,0.757-0.147
			C35.587,432.358,36.182,432.207,36.182,432.207z"/>
		<path fill="#E64D00" d="M40.786,430.447c-0.061-0.084-1.015-2.712-1.015-2.712c-0.182-0.5,0.021-1.038,0.458-1.196
			c0.436-0.159,0.938,0.12,1.121,0.621c0,0,0.834,2.352,0.842,2.458c0,0-0.466,0.315-0.658,0.414
			C41.33,430.137,40.786,430.447,40.786,430.447z"/>
		
			<linearGradient id="SVGID_2_" gradientUnits="userSpaceOnUse" x1="278.481" y1="-210.8491" x2="291.7642" y2="-210.8491" gradientTransform="matrix(0.9397 -0.342 -0.342 -0.9397 -319.276 282.0156)">
			<stop  offset="0.1514" style="stop-color:#FF6600"/>
			<stop  offset="0.4896" style="stop-color:#FFB054"/>
			<stop  offset="0.8814" style="stop-color:#FF6600"/>
		</linearGradient>
		<path fill="url(#SVGID_2_)" d="M21.436,373.941l-6.833,2.485c0,0-0.466,0.231-0.626,0.382c-0.357,0.336-0.959,0.922-1.108,1.199
			c-0.129,0.246-0.21,0.872-0.248,1.266c-0.019,0.197,0.087,0.65,0.087,0.65l4.354,11.962c0,0,4.798-1.192,6.245-1.719
			c1.672-0.608,6.237-2.824,6.237-2.824l-4.323-11.877c0,0-0.219-0.469-0.358-0.646c-0.246-0.311-0.625-0.746-0.886-0.854
			c-0.269-0.109-1.149-0.152-1.689-0.164C22.026,373.793,21.436,373.941,21.436,373.941z M24.149,378.927
			c0.18,0.494-0.082,1.042-0.583,1.226l-6.552,2.385c-0.5,0.182-1.053-0.07-1.233-0.563l-0.999-2.746
			c-0.179-0.49,0.082-1.041,0.583-1.224l6.553-2.385c0.501-0.183,1.054,0.071,1.233,0.562L24.149,378.927L24.149,378.927z"/>
		<path fill="#E64D00" d="M17.127,384.878c0.008,0.108,0.027,0.213,0.065,0.317l0.79,2.17c0.186,0.51,0.688,0.793,1.125,0.634
			s0.641-0.699,0.455-1.209l-0.79-2.17c-0.038-0.104-0.093-0.202-0.154-0.285L17.127,384.878z"/>
		<path fill="#E64D00" d="M23.496,382.561c0.009,0.107,0.027,0.213,0.065,0.316l0.79,2.171c0.186,0.511,0.688,0.792,1.125,0.634
			c0.437-0.16,0.641-0.699,0.455-1.209l-0.79-2.171c-0.038-0.104-0.092-0.202-0.154-0.284L23.496,382.561z"/>
		
			<linearGradient id="SVGID_3_" gradientUnits="userSpaceOnUse" x1="285.1216" y1="-211.7061" x2="285.1216" y2="-203.5413" gradientTransform="matrix(0.9397 -0.342 -0.342 -0.9397 -319.276 282.0156)">
			<stop  offset="0.047" style="stop-color:#FF4500"/>
			<stop  offset="0.0879" style="stop-color:#FF6600"/>
			<stop  offset="0.1631" style="stop-color:#FFE345"/>
			<stop  offset="0.5272" style="stop-color:#FF6600"/>
			<stop  offset="0.7211" style="stop-color:#FFED40"/>
			<stop  offset="0.9877" style="stop-color:#FF6600"/>
		</linearGradient>
		<path opacity="0.59" fill="url(#SVGID_3_)" enable-background="new    " d="M22.867,374.077l-9.22,3.354
			c-0.804,0.293-1.193,1.254-0.869,2.146l1.181,3.242c0,0,0.639,0.986,1.317,1.673c0.423,0.43,1.849,0.382,1.849,0.382l7.86-2.861
			c0,0,1.116-0.856,1.168-1.439c0.083-0.973-0.063-2.172-0.063-2.172l-1.18-3.243C24.588,374.27,23.67,373.784,22.867,374.077z
			 M24.125,378.859c0.192,0.529-0.101,1.125-0.654,1.326l-6.36,2.314c-0.554,0.201-1.161-0.066-1.354-0.596l-0.97-2.666
			c-0.192-0.528,0.101-1.124,0.654-1.326l6.36-2.314c0.554-0.201,1.161,0.067,1.353,0.596L24.125,378.859z"/>
		<path fill="#FF4200" d="M29.63,387.58c0.021,0.059-0.01,0.122-0.066,0.143c0,0-4.503,1.955-6.035,2.514
			c-1.538,0.56-6.239,1.955-6.239,1.955c-0.058,0.021-0.123-0.016-0.142-0.067l0,0c-0.022-0.06,0.01-0.121,0.066-0.142
			c0,0,4.714-1.361,6.251-1.922c1.532-0.558,6.022-2.545,6.022-2.545C29.545,387.493,29.608,387.521,29.63,387.58L29.63,387.58z"/>
		
			<linearGradient id="SVGID_4_" gradientUnits="userSpaceOnUse" x1="877.603" y1="-1093.9834" x2="890.8872" y2="-1093.9834" gradientTransform="matrix(0.9397 -0.342 -0.342 -0.9397 -1181.7159 -335.7383)">
			<stop  offset="0" style="stop-color:#FF6600"/>
			<stop  offset="0.2116" style="stop-color:#FC7800"/>
			<stop  offset="0.5034" style="stop-color:#FFF096"/>
			<stop  offset="1" style="stop-color:#FF6600"/>
			<stop  offset="1" style="stop-color:#404040"/>
			<stop  offset="1" style="stop-color:#000000"/>
		</linearGradient>
		<path fill="url(#SVGID_4_)" d="M29.579,387.438c0.021,0.06-0.011,0.121-0.067,0.144c0,0-4.502,1.957-6.034,2.515
			c-1.538,0.561-6.24,1.952-6.24,1.952c-0.058,0.021-0.121-0.009-0.142-0.065l0,0c-0.021-0.06,0.012-0.116,0.068-0.137
			c0,0,4.715-1.361,6.251-1.921c1.532-0.558,6.021-2.547,6.021-2.547C29.494,387.354,29.558,387.382,29.579,387.438L29.579,387.438z
			"/>
	</g>
</g>
<g id="Слой_2_1_" display="none">
	
		<linearGradient id="SVGID_5_" gradientUnits="userSpaceOnUse" x1="929.3823" y1="927.0303" x2="942.6899" y2="927.0303" gradientTransform="matrix(1 0 0 1 -872.1904 -436.1172)">
		<stop  offset="0.1514" style="stop-color:#262626"/>
		<stop  offset="0.4896" style="stop-color:#666666"/>
		<stop  offset="0.8814" style="stop-color:#262626"/>
	</linearGradient>
	<path display="inline" fill="url(#SVGID_5_)" d="M70.5,511.729c0,0-2.007,1.487-6.84,1.487c-5.948,0-6.468-1.487-6.468-1.487
		V468.61c0,0,4.907,0.521,6.468,0.521c1.766,0,6.84-0.521,6.84-0.521V511.729z"/>
	<path display="inline" fill="#333333" d="M61.376,513.131c0.03-0.103,0.028-2.965,0.028-2.965c0-0.544-0.377-0.982-0.843-0.982
		s-0.843,0.438-0.843,0.982c0,0,0.021,2.652,0.05,2.756c0,0,0.551,0.094,0.765,0.119C60.764,513.068,61.376,513.131,61.376,513.131z
		"/>
	<path display="inline" fill="#333333" d="M66.315,513.052c-0.03-0.101-0.028-2.896-0.028-2.896c0-0.535,0.377-0.975,0.843-0.975
		c0.466,0,0.843,0.438,0.843,0.975c0,0-0.021,2.501-0.05,2.603c0,0-0.545,0.144-0.759,0.165
		C66.933,512.944,66.315,513.052,66.315,513.052z"/>
	
		<linearGradient id="SVGID_6_" gradientUnits="userSpaceOnUse" x1="929.3823" y1="897.293" x2="942.6899" y2="897.293" gradientTransform="matrix(1 0 0 1 -872.1904 -436.1172)">
		<stop  offset="0.1514" style="stop-color:#262626"/>
		<stop  offset="0.4896" style="stop-color:#666666"/>
		<stop  offset="0.8814" style="stop-color:#262626"/>
	</linearGradient>
	<path display="inline" fill="url(#SVGID_6_)" d="M67.46,453.218h-7.287c0,0-0.518,0.063-0.719,0.146
		c-0.452,0.188-1.221,0.542-1.455,0.75c-0.208,0.186-0.497,0.75-0.667,1.104c-0.085,0.179-0.14,0.646-0.14,0.646v12.751
		c0,0,4.926,0.521,6.468,0.521c1.785,0,6.84-0.521,6.84-0.521v-12.66c0,0-0.044-0.52-0.117-0.73
		c-0.124-0.374-0.332-0.916-0.541-1.104c-0.216-0.198-1.031-0.537-1.535-0.733C68.067,453.278,67.46,453.218,67.46,453.218z
		 M68.307,458.844c0,0.524-0.434,0.953-0.968,0.953h-6.985c-0.535,0-0.968-0.429-0.968-0.953v-2.929
		c0-0.524,0.434-0.951,0.968-0.951h6.985c0.535,0,0.968,0.427,0.968,0.951V458.844z"/>
	<path display="inline" fill="#333333" d="M59.655,462.039c-0.03,0.103-0.047,0.208-0.047,0.32v2.313
		c0,0.543,0.377,0.981,0.843,0.981c0.465,0,0.842-0.438,0.842-0.981v-2.313c0-0.112-0.017-0.226-0.047-0.32H59.655z"/>
	<path display="inline" fill="#333333" d="M66.445,462.039c-0.03,0.103-0.047,0.208-0.047,0.32v2.313
		c0,0.543,0.377,0.981,0.843,0.981c0.465,0,0.842-0.438,0.842-0.981v-2.313c0-0.112-0.017-0.226-0.047-0.32H66.445z"/>
	
		<linearGradient id="SVGID_7_" gradientUnits="userSpaceOnUse" x1="936.0366" y1="898.1563" x2="936.0366" y2="889.9751" gradientTransform="matrix(1 0 0 1 -872.1904 -436.1172)">
		<stop  offset="0.047" style="stop-color:#404040"/>
		<stop  offset="0.0879" style="stop-color:#000000"/>
		<stop  offset="0.1631" style="stop-color:#BABABA"/>
		<stop  offset="0.5272" style="stop-color:#000000"/>
		<stop  offset="0.7211" style="stop-color:#8A8A8A"/>
		<stop  offset="0.9877" style="stop-color:#000000"/>
	</linearGradient>
	<path display="inline" opacity="0.59" fill="url(#SVGID_7_)" enable-background="new    " d="M68.762,453.837H58.93
		c-0.857,0-1.552,0.771-1.552,1.722v3.458c0,0,0.264,1.146,0.667,2.029c0.251,0.549,1.61,0.993,1.61,0.993h8.382
		c0,0,1.345-0.426,1.593-0.957c0.413-0.886,0.685-2.065,0.685-2.065v-3.458C70.314,454.605,69.619,453.837,68.762,453.837z
		 M68.307,458.769c0,0.567-0.479,1.027-1.071,1.027h-6.78c-0.591,0-1.071-0.46-1.071-1.027v-2.841c0-0.563,0.479-1.021,1.071-1.021
		h6.78c0.591,0,1.071,0.459,1.071,1.021V458.769z"/>
	<path display="inline" d="M70.5,468.866c0,0.063-0.05,0.105-0.111,0.105c0,0-4.91,0.304-6.542,0.304
		c-1.638,0-6.543-0.304-6.543-0.304c-0.062,0-0.111-0.05-0.111-0.105l0,0c0-0.063,0.05-0.109,0.111-0.109
		c0,0,4.905,0.335,6.543,0.335c1.634,0,6.542-0.335,6.542-0.335C70.45,468.757,70.5,468.805,70.5,468.866L70.5,468.866z"/>
	
		<linearGradient id="SVGID_8_" gradientUnits="userSpaceOnUse" x1="929.3833" y1="904.9873" x2="942.6899" y2="904.9873" gradientTransform="matrix(1 0 0 1 -872.1904 -436.1172)">
		<stop  offset="0" style="stop-color:#000000"/>
		<stop  offset="0.2116" style="stop-color:#000000"/>
		<stop  offset="0.5034" style="stop-color:#A6A6A6"/>
		<stop  offset="1" style="stop-color:#000000"/>
		<stop  offset="1" style="stop-color:#404040"/>
		<stop  offset="1" style="stop-color:#000000"/>
	</linearGradient>
	<path display="inline" fill="url(#SVGID_8_)" d="M70.5,468.719c0,0.063-0.05,0.109-0.111,0.109c0,0-4.91,0.3-6.542,0.3
		c-1.638,0-6.543-0.3-6.543-0.3c-0.062,0-0.111-0.05-0.111-0.109l0,0c0-0.063,0.05-0.105,0.111-0.105c0,0,4.905,0.334,6.543,0.334
		c1.634,0,6.542-0.334,6.542-0.334C70.45,468.606,70.5,468.656,70.5,468.719L70.5,468.719z"/>
</g>
<path fill="#666666" d="M44.618,499.718c0,0-1.376,2.084-5.918,3.738c-5.589,2.035-6.586,0.816-6.586,0.816l-14.755-40.517
	c0,0,4.79-1.188,6.256-1.724c1.659-0.604,6.248-2.83,6.248-2.83L44.618,499.718z"/>
<path fill="#333333" d="M36.525,504.158c-0.006-0.107-0.988-2.796-0.988-2.796c-0.186-0.512-0.69-0.794-1.128-0.636
	c-0.438,0.16-0.642,0.701-0.456,1.213c0,0,0.927,2.483,0.99,2.571c0,0,0.549-0.101,0.76-0.148
	C35.929,504.309,36.525,504.158,36.525,504.158z"/>
<path fill="#333333" d="M41.139,502.394c-0.063-0.084-1.017-2.711-1.017-2.711c-0.183-0.503,0.021-1.044,0.459-1.202
	c0.438-0.16,0.942,0.122,1.125,0.626c0,0,0.836,2.356,0.843,2.463c0,0-0.463,0.318-0.656,0.414
	C41.683,502.081,41.139,502.394,41.139,502.394z"/>
<path fill="#666666" d="M15.683,445.316l-5.661,4.59c0,0-0.364,0.372-0.466,0.564c-0.231,0.435-0.607,1.189-0.658,1.498
	c-0.044,0.276,0.086,0.896,0.178,1.28c0.046,0.191,0.295,0.586,0.295,0.586l8.031,9.905c0,0,4.155-2.696,5.353-3.668
	c1.387-1.125,4.985-4.714,4.985-4.714l-7.973-9.835c0,0-0.359-0.373-0.551-0.492c-0.332-0.212-0.835-0.504-1.116-0.517
	c-0.293-0.019-1.138,0.231-1.653,0.396C16.192,444.981,15.683,445.316,15.683,445.316z M19.884,449.152
	c0.33,0.407,0.263,1.015-0.152,1.351l-5.425,4.399c-0.416,0.337-1.022,0.275-1.353-0.131l-1.845-2.276
	c-0.331-0.407-0.263-1.013,0.151-1.349l5.427-4.397c0.416-0.339,1.021-0.278,1.352,0.128L19.884,449.152z"/>
<path fill="#333333" d="M15.176,457.085c0.041,0.098,0.094,0.191,0.165,0.277l1.456,1.797c0.343,0.424,0.911,0.524,1.273,0.23
	c0.36-0.293,0.378-0.87,0.036-1.292l-1.457-1.797c-0.071-0.087-0.153-0.162-0.237-0.22L15.176,457.085z"/>
<path fill="#333333" d="M20.449,452.808c0.041,0.099,0.094,0.191,0.165,0.279l1.457,1.796c0.342,0.422,0.911,0.526,1.272,0.23
	c0.361-0.292,0.378-0.87,0.036-1.292l-1.457-1.797c-0.071-0.086-0.153-0.161-0.239-0.221L20.449,452.808z"/>
<path fill="#999999" d="M17.084,444.977l-7.637,6.192c-0.667,0.538-0.721,1.575-0.121,2.315l2.178,2.687
	c0,0,0.927,0.724,1.796,1.155c0.541,0.27,1.877-0.242,1.877-0.242l6.511-5.277c0,0,0.776-1.178,0.634-1.748
	c-0.237-0.947-0.768-2.034-0.768-2.034l-2.178-2.688C18.773,444.598,17.75,444.438,17.084,444.977z M19.837,449.095
	c0.357,0.44,0.274,1.101-0.186,1.474l-5.266,4.271c-0.46,0.371-1.122,0.316-1.479-0.124l-1.79-2.208
	c-0.355-0.438-0.271-1.096,0.188-1.469l5.267-4.271c0.459-0.371,1.122-0.317,1.476,0.12L19.837,449.095z"/>
<path fill="#333333" d="M29.951,459.443c0.021,0.059-0.01,0.116-0.068,0.138c0,0-4.51,1.964-6.044,2.521
	c-1.539,0.562-6.251,1.956-6.251,1.956c-0.058,0.021-0.122-0.009-0.141-0.063l0,0c-0.021-0.061,0.01-0.12,0.067-0.141
	c0,0,4.723-1.364,6.262-1.926c1.535-0.559,6.033-2.553,6.033-2.553C29.866,459.357,29.93,459.386,29.951,459.443L29.951,459.443z"/>
<path fill="#333333" d="M29.9,459.305c0.022,0.061-0.009,0.12-0.066,0.142c0,0-4.511,1.962-6.044,2.521
	c-1.54,0.562-6.25,1.958-6.25,1.958c-0.059,0.021-0.122-0.009-0.142-0.064l0,0c-0.021-0.06,0.011-0.117,0.068-0.139
	c0,0,4.723-1.364,6.263-1.926c1.535-0.559,6.033-2.552,6.033-2.552C29.815,459.217,29.879,459.246,29.9,459.305L29.9,459.305z"/>
</svg>
