<?xml version="1.0" encoding="utf-8"?>
<!-- Generator: Adobe Illustrator 15.0.0, SVG Export Plug-In . SVG Version: 6.00 Build 0)  -->
<!DOCTYPE svg PUBLIC "-//W3C//DTD SVG 1.1//EN" "http://www.w3.org/Graphics/SVG/1.1/DTD/svg11.dtd">
<svg version="1.1" xmlns="http://www.w3.org/2000/svg" xmlns:xlink="http://www.w3.org/1999/xlink" x="0px" y="0px" width="138px"
	 height="517px" viewBox="0 0 138 517" enable-background="new 0 0 138 517" xml:space="preserve">
<g id="Слой_1">
	<g>
		<g>
			<path fill="#505050" d="M34.678,49.04h-9.086v31.669H16.83V49.04H7.773v-8.465h26.904v8.465H34.678z"/>
			<path fill="#505050" d="M44.296,80.709h-8.909V40.574h8.909V80.709z"/>
			<path fill="#505050" d="M71.143,64.874h-8.556c-2.19,0-3.758,0.74-4.705,2.22c-0.632,1.005-0.948,2.269-0.948,3.788
				c0,0.395,0.006,0.678,0.016,0.845c0.009,0.167,0.032,0.32,0.072,0.459v8.523h-8.76c0-0.672,0-1.589,0-2.753
				c0-1.165,0-2.683,0-4.558s0-3.868,0-5.979c0-3.195,0.8-5.791,2.397-7.782c1.834-2.29,4.538-3.435,8.11-3.435h10.892
				c1.006,0,1.794-0.364,2.368-1.09c0.513-0.648,0.771-1.455,0.771-2.417c0-0.982-0.257-1.817-0.771-2.505
				c-0.573-0.768-1.361-1.149-2.368-1.149H48.263v-8.465h22.879c3.414,0,6.116,1.261,8.109,3.784
				c1.813,2.287,2.721,5.075,2.721,8.366c0,3.311-0.896,6.101-2.693,8.364C77.288,63.612,74.574,64.874,71.143,64.874z"/>
			<path fill="#505050" d="M119.355,49.04H97.986c-0.965,0-1.732,0.363-2.293,1.091c-0.564,0.728-0.844,1.582-0.844,2.563
				c0,0.962,0.271,1.788,0.813,2.475c0.544,0.688,1.316,1.033,2.324,1.033h12.578c3.395,0,6.076,1.272,8.052,3.818
				c1.795,2.309,2.692,5.12,2.692,8.436c0,3.334-0.89,6.146-2.664,8.436c-1.972,2.545-4.666,3.817-8.08,3.817H87.657v-8.523h21.458
				c0.906,0,1.648-0.396,2.219-1.186c0.514-0.709,0.77-1.567,0.77-2.575c0-0.967-0.256-1.8-0.77-2.501
				c-0.512-0.699-1.252-1.05-2.219-1.05h-12.61c-3.413,0-6.114-1.262-8.108-3.785c-1.815-2.285-2.724-5.073-2.724-8.364
				s0.897-6.07,2.693-8.337c2.012-2.542,4.726-3.813,8.139-3.813h22.851V49.04L119.355,49.04z"/>
		</g>
		<g>
			<path fill="#388D3B" d="M10,7.461c1.161-0.718,2.432-1.152,3.814-1.305c1.382-0.151,2.81-0.174,4.285-0.07
				c1.475,0.104,2.979,0.255,4.512,0.454c1.533,0.198,3.048,0.285,4.546,0.26c1.497-0.021,2.949-0.226,4.354-0.608
				c1.405-0.382,2.724-1.121,3.955-2.211c0.509-0.464,0.986-0.72,1.427-0.768c0.442-0.045,0.803,0.034,1.081,0.244
				c0.279,0.209,0.439,0.493,0.486,0.854c0.046,0.359-0.047,0.714-0.279,1.062c-0.627,0.884-1.375,1.559-2.246,2.021
				c-0.871,0.465-1.836,0.802-2.891,1.011c-1.057,0.209-2.196,0.321-3.415,0.331C28.412,8.746,27.14,8.75,25.816,8.75
				c-0.953,0.581-1.852,1.423-2.7,2.527c-0.849,1.103-1.65,2.345-2.404,3.727c-0.755,1.383-1.457,2.846-2.108,4.39
				c-0.651,1.546-1.266,3.043-1.846,4.494c-0.582,1.452-1.122,2.805-1.621,4.059c-0.5,1.254-0.97,2.276-1.41,3.065
				c-0.512,0.929-1.087,1.626-1.725,2.091c-0.639,0.464-1.25,0.726-1.829,0.784c-0.581,0.058-1.11-0.053-1.586-0.331
				s-0.813-0.691-1.01-1.235c-0.198-0.547-0.221-1.198-0.069-1.953c0.15-0.754,0.563-1.574,1.236-2.456
				c1.556-2.065,2.909-4.087,4.059-6.062c1.15-1.975,2.223-3.803,3.223-5.487c0.997-1.683,1.973-3.182,2.926-4.494
				c0.951-1.312,2.009-2.34,3.169-3.084c-1.811,0.071-3.623,0.28-5.435,0.628c-1.811,0.349-3.565,1.01-5.26,1.986
				c-1.3,0.744-2.264,1.057-2.891,0.94s-0.976-0.453-1.045-1.012c-0.069-0.558,0.116-1.212,0.557-1.967
				C8.489,8.606,9.14,7.974,10,7.461z"/>
			<path fill="#388D3B" d="M19.684,26.31c0.465-0.464,0.947-1.058,1.446-1.778c0.5-0.718,0.981-1.468,1.445-2.245
				c0.464-0.778,0.889-1.551,1.272-2.317c0.383-0.767,0.703-1.416,0.958-1.95c-0.396-0.396-0.617-0.923-0.662-1.586
				c-0.047-0.662,0.093-1.342,0.417-2.039c0.256-0.533,0.615-0.875,1.08-1.027c0.464-0.15,0.877-0.116,1.237,0.104
				s0.586,0.64,0.679,1.254c0.093,0.615-0.093,1.423-0.557,2.421c0.371,0.14,0.743,0.25,1.115,0.331
				c0.371,0.083,0.743,0.146,1.114,0.191c0.394,0.07,0.696,0.197,0.907,0.384c0.208,0.187,0.33,0.418,0.365,0.695
				c0.034,0.279,0,0.582-0.105,0.906c-0.104,0.326-0.26,0.65-0.47,0.975c-0.255,0.396-0.488,0.814-0.696,1.255
				c-0.208,0.442-0.372,0.872-0.488,1.289c-0.116,0.417-0.174,0.79-0.174,1.114c0,0.326,0.081,0.569,0.244,0.732
				c0.394,0.395,0.987,0.389,1.777-0.018c0.789-0.405,1.707-1.133,2.752-2.178c0.278-0.279,0.539-0.413,0.783-0.4
				c0.243,0.013,0.441,0.1,0.592,0.264c0.151,0.162,0.226,0.376,0.226,0.644s-0.115,0.518-0.349,0.749
				c-0.254,0.255-0.585,0.633-0.992,1.131c-0.408,0.5-0.889,1-1.446,1.499c-0.557,0.499-1.196,0.94-1.916,1.324
				c-0.72,0.384-1.51,0.574-2.37,0.574c-0.719,0-1.317-0.18-1.793-0.54c-0.477-0.36-0.796-0.866-0.958-1.515
				c-0.163-0.65-0.163-1.412,0-2.282c0.162-0.871,0.534-1.83,1.115-2.875c0.254-0.418,0.44-0.802,0.557-1.149
				c0.115-0.349,0.126-0.638,0.035-0.871c-0.093-0.186-0.279-0.349-0.557-0.487c-0.186,0.511-0.448,1.174-0.785,1.984
				c-0.336,0.814-0.731,1.667-1.185,2.562c-0.452,0.895-0.928,1.776-1.428,2.646c-0.5,0.871-0.993,1.633-1.481,2.282
				c-0.278,0.349-0.586,0.499-0.922,0.453c-0.337-0.047-0.615-0.197-0.837-0.453c-0.22-0.255-0.348-0.579-0.382-0.975
				C19.214,26.995,19.358,26.635,19.684,26.31z"/>
			<path fill="#388D3B" d="M33.794,27.598c-0.699-0.813-1.011-1.725-0.942-2.734c0.071-1.01,0.396-2.014,0.975-3.014
				c0.581-0.998,1.354-1.921,2.317-2.771c0.963-0.847,1.979-1.52,3.048-2.021c1.067-0.5,2.127-0.761,3.169-0.784
				c1.045-0.023,1.951,0.303,2.719,0.975c0.417-0.162,0.806-0.22,1.167-0.173c0.358,0.047,0.644,0.187,0.852,0.417
				c0.209,0.232,0.331,0.529,0.366,0.888c0.036,0.361-0.053,0.773-0.26,1.237c-0.374,0.768-0.833,1.533-1.378,2.3
				c-0.545,0.769-1.154,1.497-1.829,2.194c-0.046,0.348-0.052,0.65-0.017,0.906s0.144,0.429,0.33,0.521
				c0.35,0.209,0.912,0.117,1.69-0.278s1.782-1.207,3.013-2.438c0.326-0.325,0.632-0.506,0.923-0.539
				c0.29-0.036,0.511,0.028,0.663,0.191c0.15,0.162,0.21,0.395,0.175,0.696c-0.035,0.303-0.205,0.604-0.505,0.906
				c-0.676,0.674-1.359,1.313-2.057,1.917c-0.697,0.604-1.388,1.12-2.073,1.548c-0.685,0.432-1.353,0.732-2.004,0.907
				c-0.648,0.174-1.252,0.156-1.81-0.053c-0.745-0.278-1.219-0.813-1.43-1.603c-0.696,0.466-1.381,0.85-2.055,1.149
				c-0.672,0.302-1.324,0.506-1.95,0.61c-0.627,0.104-1.208,0.08-1.743-0.069C34.617,28.336,34.165,28.04,33.794,27.598z
				 M42.362,20.073c0.187-0.348,0.373-0.655,0.558-0.923c0.186-0.268,0.383-0.517,0.593-0.749c-0.42-0.093-0.901-0.045-1.446,0.14
				c-0.545,0.187-1.086,0.454-1.622,0.801c-0.533,0.349-1.05,0.756-1.55,1.22c-0.498,0.466-0.912,0.94-1.237,1.429
				c-0.325,0.488-0.544,0.964-0.66,1.428c-0.118,0.465-0.07,0.871,0.139,1.22c0.14,0.209,0.331,0.345,0.575,0.401
				c0.244,0.059,0.527,0.052,0.853-0.018c0.325-0.07,0.691-0.197,1.097-0.384c0.407-0.186,0.818-0.405,1.236-0.662
				C41.156,22.745,41.643,21.444,42.362,20.073z"/>
			<path fill="#388D3B" d="M54.59,18.367c-0.604,0.744-1.078,1.452-1.427,2.125c-0.349,0.675-0.576,1.284-0.679,1.829
				c-0.104,0.546-0.111,1-0.017,1.359c0.092,0.359,0.277,0.598,0.556,0.714c0.465,0.209,0.976,0.139,1.534-0.209
				c0.557-0.349,1.102-0.881,1.636-1.602c0.535-0.72,1.032-1.572,1.497-2.562c0.465-0.987,0.848-2.016,1.15-3.083
				c0.257-0.928,0.65-1.451,1.185-1.568c0.535-0.115,1.033,0.093,1.498,0.627c0.232,0.279,0.471,0.582,0.715,0.905
				c0.243,0.326,0.528,0.627,0.853,0.907c0.325,0.278,0.72,0.512,1.186,0.696c0.463,0.188,1.032,0.279,1.707,0.279
				c0.349,0,0.586,0.092,0.716,0.279c0.124,0.186,0.167,0.389,0.12,0.608c-0.047,0.222-0.187,0.425-0.418,0.609
				c-0.231,0.188-0.521,0.279-0.871,0.279c-0.882,0-1.724-0.116-2.524-0.349c-0.802-0.23-1.459-0.545-1.968-0.94
				c-0.674,1.811-1.442,3.396-2.301,4.756c-0.859,1.359-1.764,2.421-2.716,3.188c-0.953,0.768-1.916,1.207-2.893,1.323
				c-0.975,0.116-1.916-0.15-2.822-0.801c-0.626-0.465-1.051-1.109-1.27-1.934c-0.222-0.823-0.245-1.725-0.071-2.7
				c0.174-0.976,0.553-1.986,1.133-3.031s1.358-2.031,2.334-2.961c0.509-0.486,0.985-0.788,1.427-0.905
				c0.441-0.117,0.786-0.098,1.028,0.053c0.245,0.15,0.359,0.412,0.348,0.782C55.224,17.414,55.01,17.856,54.59,18.367z"/>
			<path fill="#388D3B" d="M67.237,16.103c0.743-0.395,1.451-0.64,2.125-0.732c0.673-0.092,1.281-0.063,1.83,0.087
				c0.545,0.152,1.021,0.396,1.428,0.733c0.406,0.336,0.727,0.725,0.958,1.166c0.51,0.976,0.603,1.881,0.278,2.717
				c-0.326,0.837-0.889,1.504-1.69,2.004c-0.8,0.499-1.747,0.772-2.838,0.818c-1.093,0.046-2.16-0.245-3.205-0.871
				c-0.048,0.396-0.02,0.784,0.086,1.167c0.105,0.383,0.308,0.738,0.61,1.063c0.465,0.487,1.028,0.808,1.689,0.958
				c0.662,0.152,1.364,0.157,2.108,0.019c0.744-0.141,1.492-0.413,2.248-0.819c0.754-0.406,1.445-0.935,2.072-1.585
				c0.303-0.301,0.604-0.471,0.907-0.506c0.302-0.033,0.533,0.023,0.697,0.174c0.161,0.151,0.226,0.372,0.19,0.663
				s-0.215,0.598-0.541,0.923c-1.185,1.185-2.351,2.142-3.5,2.873c-1.149,0.733-2.248,1.232-3.292,1.499
				c-1.046,0.267-2.01,0.309-2.894,0.121c-0.881-0.186-1.648-0.603-2.297-1.253c-0.675-0.697-1.087-1.568-1.237-2.614
				c-0.151-1.045-0.076-2.119,0.226-3.222c0.301-1.104,0.796-2.144,1.48-3.118C65.361,17.391,66.214,16.636,67.237,16.103z
				 M68.667,18.367c-0.651,0.348-1.208,0.87-1.673,1.568c0.51,0.326,1.045,0.517,1.602,0.575c0.558,0.059,1.05,0.022,1.479-0.104
				c0.431-0.127,0.772-0.336,1.028-0.627s0.336-0.621,0.244-0.993c-0.093-0.371-0.406-0.627-0.939-0.766
				C69.873,17.879,69.292,17.995,68.667,18.367z"/>
			<path fill="#388D3B" d="M87.688,5.999c1.068,0,1.777,0.465,2.125,1.394c0.349,0.93,0.211,2.179-0.418,3.745
				c-0.625,1.567-1.807,3.402-3.537,5.505c-1.729,2.103-4.125,4.313-7.193,6.636c0.118,0.466,0.279,0.813,0.488,1.045
				c0.395,0.511,0.871,0.801,1.428,0.871c0.559,0.069,1.128,0,1.708-0.209c0.581-0.209,1.155-0.516,1.726-0.922
				c0.569-0.406,1.073-0.819,1.516-1.237c0.371-0.371,0.701-0.575,0.994-0.609c0.287-0.034,0.504,0.034,0.645,0.21
				c0.139,0.174,0.184,0.417,0.139,0.731c-0.048,0.313-0.22,0.622-0.521,0.923c-1.254,1.253-2.404,2.224-3.449,2.908
				c-1.046,0.688-1.999,1.15-2.857,1.394c-0.859,0.244-1.638,0.285-2.334,0.122c-0.695-0.161-1.313-0.464-1.846-0.905
				c-0.721-0.604-1.179-1.469-1.377-2.595c-0.197-1.127-0.064-2.49,0.4-4.094c0.232-0.813,0.598-1.748,1.097-2.805
				c0.5-1.058,1.093-2.137,1.776-3.24c0.686-1.103,1.423-2.188,2.215-3.257c0.787-1.068,1.605-2.014,2.453-2.838
				c0.85-0.826,1.686-1.493,2.509-2.004C86.195,6.255,86.967,5.999,87.688,5.999z M86.466,10.041
				c-0.185-0.14-0.479-0.081-0.887,0.174c-0.406,0.256-0.866,0.65-1.376,1.185c-0.512,0.534-1.053,1.185-1.621,1.95
				c-0.568,0.767-1.113,1.581-1.637,2.438c-0.523,0.861-0.982,1.737-1.377,2.632s-0.674,1.748-0.836,2.561
				c0.976-0.837,1.985-1.823,3.031-2.96c1.045-1.139,1.967-2.253,2.77-3.346c0.803-1.092,1.398-2.066,1.794-2.927
				C86.723,10.889,86.768,10.319,86.466,10.041z"/>
			<path fill="#388D3B" d="M101.482,9.134c-0.465,0.884-1.094,1.859-1.881,2.928c-0.791,1.068-1.726,2.188-2.806,3.361
				c-1.082,1.174-2.294,2.381-3.644,3.623c-1.346,1.243-2.809,2.491-4.387,3.745c-0.117,0.65-0.164,1.227-0.14,1.727
				c0.022,0.499,0.163,0.898,0.417,1.201c0.396,0.512,0.906,0.731,1.534,0.661c0.626-0.068,1.276-0.296,1.95-0.678
				c0.673-0.384,1.328-0.854,1.969-1.413c0.637-0.557,1.178-1.044,1.619-1.463c0.371-0.371,0.701-0.575,0.992-0.609
				s0.506,0.034,0.646,0.21c0.138,0.174,0.187,0.417,0.138,0.731c-0.045,0.313-0.222,0.622-0.521,0.923
				c-2.507,2.508-4.728,4.174-6.654,4.999c-1.928,0.824-3.438,0.795-4.528-0.087c-0.349-0.302-0.604-0.744-0.768-1.324
				c-0.163-0.581-0.25-1.236-0.261-1.967c-0.011-0.732,0.052-1.511,0.192-2.335c0.137-0.824,0.324-1.643,0.559-2.456
				c0.371-1.276,0.893-2.631,1.566-4.059c0.672-1.43,1.447-2.822,2.316-4.182c0.87-1.358,1.8-2.624,2.786-3.797
				c0.987-1.172,1.991-2.144,3.014-2.909c1.14-0.883,2.188-1.417,3.153-1.603c0.963-0.188,1.729-0.105,2.299,0.243
				s0.909,0.924,1.025,1.725C102.189,7.131,101.994,8.066,101.482,9.134z M98.382,7.672c-0.233-0.163-0.559-0.123-0.975,0.122
				c-0.421,0.243-0.878,0.64-1.378,1.185c-0.5,0.546-1.033,1.213-1.604,2.003c-0.567,0.789-1.124,1.644-1.67,2.56
				c-0.546,0.919-1.075,1.869-1.585,2.857c-0.513,0.987-0.953,1.957-1.324,2.908c0.721-0.72,1.475-1.479,2.264-2.281
				c0.791-0.801,1.547-1.604,2.267-2.404s1.38-1.58,1.985-2.333c0.603-0.754,1.104-1.44,1.496-2.056
				c0.396-0.615,0.646-1.15,0.75-1.604C98.712,8.177,98.637,7.857,98.382,7.672z"/>
			<path fill="#388D3B" d="M100.159,17.042c0.997-0.533,1.909-0.822,2.733-0.871c0.823-0.046,1.526,0.07,2.108,0.35
				c0.581,0.278,1.022,0.685,1.324,1.22c0.302,0.534,0.433,1.121,0.399,1.759c-0.035,0.641-0.269,1.289-0.695,1.951
				c-0.432,0.662-1.075,1.26-1.938,1.794c-0.58,0.348-1.222,0.626-1.934,0.836c-0.708,0.208-1.469,0.302-2.279,0.277
				c0.371,0.558,0.893,0.919,1.566,1.081c0.673,0.163,1.397,0.163,2.177,0c0.778-0.161,1.567-0.47,2.37-0.922
				c0.801-0.453,1.535-1.017,2.211-1.69c0.303-0.301,0.605-0.471,0.904-0.506c0.304-0.033,0.535,0.023,0.697,0.174
				c0.164,0.151,0.227,0.372,0.191,0.663c-0.033,0.291-0.215,0.598-0.539,0.923c-0.323,0.326-0.773,0.748-1.342,1.271
				c-0.568,0.522-1.219,1.026-1.951,1.516c-0.73,0.487-1.531,0.905-2.402,1.254s-1.783,0.522-2.734,0.522
				c-1.16,0-2.107-0.223-2.84-0.662c-0.729-0.441-1.277-1.017-1.638-1.726c-0.36-0.708-0.538-1.499-0.538-2.369
				c0-0.871,0.16-1.735,0.486-2.596c0.324-0.857,0.795-1.666,1.41-2.422C98.525,18.117,99.277,17.507,100.159,17.042z
				 M101.585,19.307c-0.535,0.325-1.009,0.762-1.427,1.308s-0.674,1.155-0.768,1.828c0.721,0.095,1.395,0.048,2.021-0.138
				c0.628-0.188,1.158-0.466,1.604-0.837c0.484-0.419,0.787-0.823,0.905-1.22c0.113-0.396,0.089-0.715-0.069-0.958
				c-0.164-0.245-0.441-0.384-0.836-0.419C102.62,18.837,102.143,18.982,101.585,19.307z"/>
			<path fill="#388D3B" d="M108.205,22.826c0.744-0.742,1.365-1.538,1.865-2.385c0.496-0.848,0.91-1.644,1.236-2.387
				c-0.441-0.396-0.69-0.924-0.752-1.585c-0.056-0.662,0.088-1.354,0.438-2.074c0.254-0.533,0.614-0.875,1.077-1.027
				c0.467-0.149,0.877-0.116,1.238,0.104c0.359,0.221,0.586,0.64,0.678,1.254c0.096,0.615-0.092,1.423-0.557,2.421
				c0.373,0.14,0.745,0.25,1.116,0.331c0.37,0.083,0.74,0.146,1.112,0.191c0.395,0.07,0.697,0.197,0.906,0.384
				s0.334,0.418,0.367,0.695c0.034,0.279,0,0.582-0.104,0.906c-0.104,0.326-0.263,0.65-0.472,0.975
				c-0.254,0.396-0.485,0.814-0.697,1.256c-0.209,0.441-0.372,0.871-0.486,1.288c-0.117,0.417-0.174,0.79-0.174,1.114
				c0,0.326,0.081,0.569,0.243,0.732c0.396,0.395,0.985,0.389,1.776-0.018c0.791-0.405,1.707-1.133,2.754-2.178
				c0.276-0.279,0.539-0.413,0.783-0.4c0.243,0.014,0.44,0.1,0.59,0.264c0.153,0.162,0.229,0.376,0.229,0.644
				s-0.115,0.518-0.35,0.749c-0.254,0.255-0.586,0.633-0.991,1.131c-0.408,0.5-0.89,1-1.445,1.499
				c-0.56,0.499-1.198,0.94-1.916,1.324c-0.72,0.384-1.511,0.574-2.371,0.574c-0.718,0-1.315-0.18-1.794-0.54
				c-0.475-0.36-0.793-0.866-0.958-1.515c-0.159-0.65-0.159-1.412,0-2.282c0.165-0.871,0.535-1.83,1.114-2.875
				c0.258-0.418,0.441-0.802,0.561-1.149c0.114-0.349,0.125-0.638,0.034-0.871c-0.093-0.186-0.28-0.349-0.56-0.487
				c-0.188,0.441-0.404,0.906-0.659,1.394c-0.257,0.488-0.529,0.97-0.82,1.446c-0.291,0.476-0.589,0.917-0.89,1.325
				c-0.303,0.405-0.592,0.748-0.87,1.026c-0.208,0.208-0.435,0.302-0.681,0.277c-0.242-0.022-0.44-0.109-0.592-0.261
				c-0.147-0.15-0.235-0.349-0.261-0.593C107.902,23.261,107.996,23.035,108.205,22.826z"/>
		</g>
		<path fill="#FFFFFF" d="M52.467,45.626c-0.412-0.043-0.593-0.259-0.555-0.644c0.012-0.126,0.05-0.236,0.104-0.332
			c0.053-0.095,0.125-0.137,0.213-0.129c0.047,0.005,0.136,0.021,0.267,0.042c0.237,0.046,0.431,0.079,0.577,0.094
			c0.123,0.013,0.479-0.004,1.067-0.049c0.47-0.037,0.761-0.052,0.878-0.047c0.191,0.005,0.509-0.024,0.952-0.095
			c0.276-0.038,0.443-0.055,0.502-0.051c0.097,0.013,0.171,0.062,0.216,0.15c0.047,0.088,0.064,0.202,0.047,0.343
			c-0.015,0.166-0.05,0.299-0.109,0.403c-0.055,0.102-0.12,0.152-0.2,0.15c-0.055-0.002-0.199,0.003-0.429,0.014
			c-0.477,0.028-0.841,0.038-1.093,0.029c-0.163,0.001-0.471,0.021-0.93,0.065C53.262,45.642,52.757,45.66,52.467,45.626z"/>
		<path fill="#FFFFFF" d="M61.372,45.609c-0.409-0.046-0.589-0.263-0.546-0.648c0.014-0.126,0.05-0.235,0.107-0.33
			c0.055-0.095,0.125-0.135,0.214-0.127c0.047,0.008,0.136,0.022,0.267,0.044c0.235,0.049,0.429,0.083,0.576,0.101
			c0.123,0.014,0.48,0,1.067-0.04c0.47-0.032,0.762-0.045,0.878-0.04c0.19,0.008,0.508-0.02,0.954-0.084
			c0.275-0.037,0.442-0.052,0.503-0.047c0.097,0.013,0.17,0.062,0.213,0.15c0.047,0.09,0.064,0.203,0.045,0.344
			c-0.017,0.165-0.054,0.298-0.111,0.4s-0.125,0.152-0.204,0.15c-0.056-0.001-0.201,0-0.428,0.01
			c-0.479,0.025-0.843,0.03-1.092,0.021c-0.164-0.001-0.473,0.016-0.931,0.056C62.169,45.632,61.665,45.646,61.372,45.609z"/>
		<path fill="#FFFFFF" d="M55.354,63.162c-0.243,0.304-0.566,0.31-0.712-0.049c-0.049-0.117-0.123-0.246-0.066-0.342
			c1.424-2.336,3.391-2.252,4.078-2.286c0.099-0.004,0.152,0.146,0.203,0.28c0.063,0.153,0.098,0.287,0.094,0.405
			c0,0.116-0.033,0.193-0.104,0.229C58.796,61.424,57.1,60.96,55.354,63.162z"/>
		<path fill="#FFFFFF" d="M74.225,57.971c0.276-0.274,0.596-0.241,0.703,0.132c0.034,0.123,0.092,0.26,0.024,0.347
			c-1.681,2.156-3.628,1.847-4.313,1.801c-0.099-0.007-0.133-0.164-0.168-0.302c-0.047-0.159-0.063-0.296-0.047-0.414
			c0.014-0.116,0.055-0.188,0.131-0.216C70.605,59.302,72.236,59.958,74.225,57.971z"/>
		<path fill="#FFFFFF" d="M70.206,45.408c-0.076-0.026-0.118-0.1-0.131-0.215c-0.017-0.118,0-0.255,0.047-0.415
			c0.036-0.137,0.069-0.295,0.17-0.302c0.685-0.045,2.631-0.355,4.312,1.801c0.068,0.088,0.01,0.225-0.024,0.347
			c-0.106,0.373-0.427,0.407-0.702,0.13C71.887,44.77,70.257,45.427,70.206,45.408z"/>
		<path fill="#FFFFFF" d="M62.075,61.429c-0.412-0.047-0.591-0.264-0.548-0.648c0.013-0.125,0.05-0.236,0.108-0.329
			c0.054-0.096,0.124-0.136,0.213-0.128c0.047,0.007,0.136,0.022,0.267,0.043c0.234,0.049,0.429,0.084,0.575,0.1
			c0.123,0.016,0.481,0,1.067-0.039c0.47-0.032,0.763-0.046,0.879-0.04c0.192,0.008,0.508-0.02,0.953-0.084
			c0.277-0.037,0.444-0.053,0.504-0.047c0.097,0.013,0.17,0.063,0.214,0.152c0.046,0.088,0.062,0.202,0.043,0.342
			c-0.017,0.165-0.054,0.298-0.112,0.401c-0.055,0.102-0.122,0.152-0.202,0.149c-0.055-0.002-0.199,0.001-0.429,0.01
			c-0.478,0.024-0.84,0.029-1.093,0.021c-0.163-0.001-0.471,0.016-0.929,0.056C62.87,61.452,62.365,61.466,62.075,61.429z"/>
		<path fill="#FFFFFF" d="M76.587,50.233c0.047-0.41,0.265-0.589,0.649-0.545c0.125,0.012,0.234,0.049,0.33,0.106
			c0.096,0.056,0.136,0.124,0.127,0.215c-0.008,0.046-0.021,0.135-0.045,0.266c-0.049,0.235-0.082,0.43-0.099,0.576
			c-0.014,0.123,0,0.48,0.041,1.066c0.032,0.471,0.046,0.764,0.039,0.879c-0.007,0.19,0.021,0.51,0.086,0.953
			c0.036,0.277,0.052,0.444,0.046,0.505c-0.014,0.097-0.062,0.169-0.15,0.214c-0.092,0.046-0.204,0.063-0.346,0.044
			c-0.164-0.018-0.298-0.055-0.402-0.113c-0.102-0.056-0.15-0.123-0.147-0.202c0.001-0.055-0.001-0.199-0.01-0.428
			c-0.024-0.479-0.03-0.841-0.021-1.091c0-0.164-0.017-0.474-0.057-0.932C76.564,51.03,76.55,50.524,76.587,50.233z"/>
		<path fill="#FFFFFF" d="M52.319,67.039c0.046-0.41,0.264-0.59,0.647-0.546c0.126,0.013,0.237,0.049,0.331,0.107
			c0.096,0.054,0.136,0.124,0.127,0.213c-0.007,0.046-0.021,0.135-0.045,0.268c-0.048,0.234-0.083,0.43-0.099,0.575
			c-0.014,0.122,0,0.48,0.04,1.066c0.033,0.47,0.045,0.763,0.038,0.88c-0.005,0.188,0.021,0.507,0.086,0.953
			c0.038,0.275,0.053,0.441,0.047,0.504c-0.014,0.097-0.063,0.17-0.152,0.213c-0.09,0.047-0.203,0.063-0.343,0.044
			c-0.165-0.018-0.3-0.053-0.404-0.113c-0.101-0.056-0.151-0.123-0.147-0.202c0.001-0.055-0.002-0.198-0.009-0.429
			c-0.026-0.477-0.032-0.84-0.021-1.091c0-0.165-0.018-0.475-0.058-0.933C52.295,67.835,52.282,67.331,52.319,67.039z"/>
		<path fill="#FFFFFF" d="M52.319,75.307c0.046-0.41,0.264-0.589,0.647-0.546c0.126,0.014,0.237,0.05,0.331,0.106
			c0.096,0.055,0.136,0.125,0.127,0.214c-0.007,0.047-0.021,0.135-0.045,0.267c-0.048,0.235-0.083,0.431-0.099,0.576
			c-0.014,0.123,0,0.479,0.04,1.067c0.033,0.469,0.045,0.763,0.038,0.879c-0.005,0.19,0.021,0.508,0.086,0.952
			c0.038,0.276,0.053,0.443,0.047,0.505c-0.014,0.096-0.063,0.168-0.152,0.213c-0.09,0.045-0.203,0.063-0.343,0.043
			c-0.165-0.018-0.3-0.054-0.404-0.111c-0.101-0.058-0.151-0.124-0.147-0.203c0.001-0.056-0.002-0.198-0.009-0.429
			C52.41,78.364,52.404,78,52.415,77.75c0-0.163-0.018-0.473-0.058-0.931C52.295,76.104,52.282,75.6,52.319,75.307z"/>
	</g>
	<path opacity="0.8" fill="#FFFFFF" enable-background="new    " d="M34.677,94.583c-11.044,0-20,8.954-20,20.001
		c0,11.045,8.956,19.999,20,19.999c11.044,0,20-8.954,20-19.999C54.678,103.537,45.721,94.583,34.677,94.583z M46.573,109.873
		c-0.203,9.58-6.243,16.236-15.401,16.654c-3.755,0.213-6.458-1.038-8.959-2.492c2.703,0.416,6.254-0.631,8.123-2.297
		c-2.705-0.204-4.37-1.658-5.206-3.956c0.835,0.214,1.668,0,2.287,0c-2.501-0.832-4.155-2.289-4.369-5.622
		c0.63,0.418,1.452,0.63,2.284,0.63c-1.869-1.046-3.119-5.003-1.654-7.504c2.703,2.917,6.028,5.419,11.447,5.835
		c-1.452-5.835,6.456-8.957,9.578-5.001c1.454-0.202,2.501-0.833,3.538-1.24c-0.416,1.453-1.25,2.288-2.286,3.121
		c1.037-0.214,2.084-0.416,2.917-0.833C48.657,108.204,47.62,109.04,46.573,109.873z"/>
	<path opacity="0.8" fill="#FFFFFF" enable-background="new    " d="M32.842,142.207c-11.046,0-20,8.955-20,20
		c0,11.046,8.953,20,20,20c11.047,0,20-8.954,20-20C52.843,151.162,43.89,142.207,32.842,142.207z M38,156h-2.722
		c-0.693,0-1.278,0.563-1.278,1.296V158h3.778l-0.597,4H34v10h-3v-10h-3v-4h3v-1h-0.665c0.066-3,1.665-4.553,4.665-4.683V152h3V156z
		"/>
	<g opacity="0.8">
		<path fill="#FFFFFF" d="M44,202.077c0-2.804-2.273-5.077-5.077-5.077H26.077c-2.804,0-5.077,2.273-5.077,5.077v12.846
			c0,2.805,2.273,5.077,5.077,5.077h12.846c2.804,0,5.077-2.272,5.077-5.077V202.077z M32.873,216.042
			c-3.853,0-6.987-3.135-6.987-6.987s3.134-6.988,6.987-6.988c3.854,0,6.987,3.136,6.987,6.988
			C39.86,212.906,36.727,216.042,32.873,216.042z M41.402,203.04c-0.329,0.328-0.783,0.516-1.248,0.516
			c-0.465,0-0.92-0.188-1.247-0.516c-0.329-0.33-0.519-0.785-0.519-1.249c0-0.465,0.189-0.92,0.519-1.248
			c0.327-0.329,0.782-0.517,1.247-0.517c0.464,0,0.92,0.188,1.248,0.517c0.328,0.327,0.516,0.782,0.516,1.248
			C41.917,202.254,41.73,202.709,41.402,203.04z"/>
		<path fill="#FFFFFF" d="M32.873,189.054c-11.044,0-20,8.953-20,20c0,11.044,8.956,20,20,20s20-8.956,20-20
			C52.874,198.007,43.917,189.054,32.873,189.054z M46,214.517c0,4.133-3.35,7.482-7.482,7.482H26.482
			C22.35,222,19,218.65,19,214.517v-12.034c0-4.133,3.35-7.483,7.482-7.483h12.036C42.65,195,46,198.35,46,202.483V214.517z"/>
		<path fill="#FFFFFF" d="M32.873,204.472c-2.526,0-4.581,2.055-4.581,4.582c0,2.526,2.055,4.581,4.581,4.581
			s4.583-2.054,4.583-4.581S35.399,204.472,32.873,204.472z"/>
	</g>
	<g opacity="0.8">
		<path fill="#FFFFFF" d="M30.708,244.763c-4.894,0-8.881,3.979-8.881,8.879c0,4.899,3.987,8.884,8.881,8.884
			c4.9,0,8.88-3.989,8.88-8.884C39.588,248.747,35.608,244.763,30.708,244.763z"/>
		<path fill="#FFFFFF" d="M32.494,235.425c-11.046,0-20,8.954-20,19.999c0,11.048,8.954,20.001,20,20.001
			c11.045,0,20-8.953,20-20.001C52.494,244.379,43.539,235.425,32.494,235.425z M44.396,267.324c-0.14,0.146-0.327,0.214-0.51,0.214
			c-0.184,0-0.371-0.074-0.511-0.214l-5.887-5.888c-1.817,1.58-4.186,2.534-6.775,2.534c-5.693,0-10.329-4.636-10.329-10.329
			c0-5.694,4.631-10.331,10.329-10.331c5.695,0,10.331,4.63,10.331,10.331c0,2.59-0.956,4.958-2.536,6.772l5.888,5.891
			C44.675,266.583,44.675,267.044,44.396,267.324z"/>
	</g>
	<g>
		<path fill="#505050" d="M43.48,309.727l-6.318-6.318c1.695-1.949,2.721-4.491,2.721-7.271c0-6.116-4.975-11.085-11.086-11.085
			c-6.117,0-11.086,4.975-11.086,11.085c0,6.111,4.975,11.087,11.086,11.087c2.779,0,5.321-1.026,7.27-2.723l6.319,6.318
			c0.15,0.15,0.351,0.231,0.547,0.231c0.196,0,0.398-0.075,0.548-0.231C43.779,310.521,43.779,310.025,43.48,309.727z
			 M19.261,296.138c0-5.258,4.278-9.528,9.529-9.528c5.257,0,9.529,4.277,9.529,9.528c0,5.253-4.272,9.535-9.529,9.535
			C23.539,305.674,19.261,301.396,19.261,296.138z"/>
	</g>
	<path fill="#505050" d="M24.69,323.165c-0.532-0.056-0.767-0.334-0.717-0.831c0.016-0.164,0.063-0.306,0.135-0.43
		c0.069-0.123,0.161-0.177,0.275-0.166c0.062,0.007,0.176,0.026,0.346,0.055c0.306,0.06,0.558,0.103,0.746,0.121
		c0.158,0.018,0.62-0.006,1.38-0.063c0.607-0.047,0.984-0.067,1.135-0.063c0.247,0.008,0.657-0.03,1.232-0.12
		c0.355-0.051,0.572-0.071,0.648-0.065c0.126,0.016,0.221,0.078,0.279,0.193c0.062,0.113,0.083,0.261,0.062,0.442
		c-0.02,0.214-0.065,0.387-0.142,0.521c-0.071,0.132-0.156,0.197-0.258,0.195c-0.071-0.003-0.258,0.004-0.556,0.018
		c-0.616,0.037-1.087,0.049-1.412,0.039c-0.211,0.001-0.609,0.025-1.202,0.084C25.718,323.185,25.065,323.21,24.69,323.165z"/>
	<g>
		<path fill="#E9592D" d="M12.098,363.055c-1.1-0.104-1.585-0.835-1.456-2.199c0.039-0.445,0.136-0.839,0.285-1.18
			c0.15-0.34,0.346-0.498,0.584-0.478c0.12,0.013,0.356,0.051,0.713,0.111c0.636,0.129,1.154,0.215,1.546,0.251
			c0.33,0.028,1.286-0.075,2.868-0.315c1.261-0.188,2.044-0.286,2.357-0.286c0.521,0,1.374-0.15,2.565-0.447
			c0.738-0.181,1.191-0.262,1.351-0.247c0.263,0.023,0.455,0.189,0.579,0.494c0.122,0.308,0.159,0.706,0.113,1.2
			c-0.056,0.584-0.158,1.061-0.31,1.43s-0.333,0.559-0.546,0.569c-0.15-0.004-0.534,0.027-1.148,0.101
			c-1.286,0.161-2.264,0.244-2.934,0.251c-0.439,0.018-1.274,0.132-2.501,0.347C14.235,362.994,12.881,363.131,12.098,363.055z"/>
		<path fill="#E9592D" d="M28.064,335.347c0.104-1.102,0.834-1.583,2.2-1.454c0.444,0.039,0.838,0.135,1.178,0.282
			c0.341,0.149,0.498,0.348,0.477,0.584c-0.011,0.122-0.05,0.357-0.111,0.713c-0.129,0.638-0.215,1.153-0.251,1.548
			c-0.028,0.33,0.075,1.286,0.315,2.866c0.19,1.261,0.287,2.046,0.287,2.356c0,0.522,0.15,1.376,0.448,2.565
			c0.179,0.738,0.262,1.191,0.247,1.35c-0.025,0.267-0.19,0.455-0.494,0.581c-0.308,0.122-0.706,0.157-1.2,0.11
			c-0.584-0.053-1.061-0.156-1.43-0.309s-0.559-0.333-0.569-0.548c0.003-0.149-0.029-0.532-0.101-1.146
			c-0.161-1.286-0.244-2.265-0.25-2.935c-0.018-0.44-0.133-1.274-0.348-2.502C28.125,337.485,27.989,336.132,28.064,335.347z"/>
		<path fill="#E9592D" d="M30.868,379.33c0.215-1.225,0.33-2.06,0.348-2.5c0.007-0.67,0.089-1.647,0.25-2.935
			c0.072-0.612,0.104-0.996,0.101-1.146c0.011-0.215,0.201-0.394,0.569-0.548c0.369-0.149,0.846-0.254,1.43-0.309
			c0.494-0.047,0.892-0.01,1.2,0.111c0.304,0.125,0.469,0.314,0.494,0.579c0.015,0.158-0.068,0.613-0.247,1.353
			c-0.297,1.188-0.448,2.041-0.448,2.563c0,0.313-0.097,1.097-0.287,2.357c-0.24,1.58-0.344,2.537-0.315,2.866
			c0.036,0.394,0.122,0.91,0.251,1.548c0.061,0.354,0.1,0.591,0.111,0.713c0.021,0.236-0.136,0.434-0.477,0.584
			c-0.34,0.146-0.734,0.244-1.178,0.283c-1.365,0.129-2.096-0.355-2.2-1.455C30.395,382.612,30.531,381.259,30.868,379.33z"/>
		<path fill="#E9592D" d="M14.595,344.818c-0.704-0.852-0.53-1.712,0.525-2.586c0.342-0.287,0.69-0.498,1.036-0.631
			c0.347-0.136,0.596-0.107,0.75,0.075c0.077,0.093,0.217,0.286,0.424,0.581c0.358,0.541,0.665,0.971,0.916,1.271
			c0.213,0.254,0.964,0.855,2.251,1.806c1.026,0.757,1.648,1.243,1.87,1.463c0.367,0.368,1.077,0.866,2.13,1.497
			c0.648,0.396,1.028,0.658,1.13,0.78c0.168,0.204,0.187,0.458,0.059,0.76c-0.132,0.305-0.387,0.612-0.769,0.929
			c-0.453,0.372-0.861,0.638-1.23,0.792c-0.369,0.153-0.63,0.16-0.788,0.018c-0.104-0.11-0.398-0.357-0.883-0.742
			c-1.022-0.795-1.773-1.429-2.251-1.897c-0.324-0.297-0.994-0.808-2.015-1.522C16.15,346.284,15.095,345.425,14.595,344.818z"/>
		<path fill="#E9592D" d="M20.025,372.703c1.021-0.717,1.691-1.227,2.015-1.522c0.479-0.469,1.229-1.104,2.251-1.898
			c0.486-0.383,0.779-0.631,0.883-0.742c0.158-0.143,0.419-0.136,0.788,0.02c0.369,0.153,0.777,0.419,1.231,0.792
			c0.381,0.313,0.636,0.623,0.768,0.928c0.127,0.301,0.109,0.555-0.059,0.76c-0.102,0.121-0.482,0.384-1.13,0.78
			c-1.053,0.631-1.762,1.129-2.13,1.497c-0.222,0.219-0.843,0.707-1.87,1.463c-1.288,0.949-2.038,1.551-2.251,1.806
			c-0.251,0.301-0.557,0.73-0.916,1.271c-0.208,0.294-0.347,0.487-0.424,0.58c-0.154,0.183-0.403,0.212-0.75,0.075
			c-0.346-0.133-0.693-0.344-1.036-0.631c-1.055-0.873-1.229-1.733-0.525-2.586C17.37,374.688,18.425,373.828,20.025,372.703z"/>
	</g>
	<g>
		<path fill="#388E3B" d="M27.752,492.448c-3.859,0-7,3.141-7,7.003c0,3.858,3.141,7,7,7c3.861,0,7.002-3.142,7.002-7
			C34.754,495.589,31.614,492.448,27.752,492.448z"/>
		<path fill="#388E3B" d="M42.458,489.531h-4.975l-2.334-5.835H20.356l-2.334,5.835H17.25v-2.918h-3.5v2.918h-0.701
			c-1.545,0-2.799,1.256-2.799,2.801v17.136c0,1.556,1.264,2.817,2.818,2.817h29.367c1.555,0,2.82-1.265,2.82-2.817v-17.136
			C45.256,490.787,44,489.531,42.458,489.531z M16.084,489.531h-1.168v-1.751h1.168V489.531z M27.752,509.953
			c-5.789,0-10.502-4.714-10.502-10.502c0-5.793,4.713-10.503,10.502-10.503c5.793,0,10.504,4.712,10.504,10.503
			C38.256,505.239,33.545,509.953,27.752,509.953z M40.59,496.533c-1.289,0-2.334-1.047-2.334-2.334s1.045-2.335,2.334-2.335
			c1.285,0,2.332,1.048,2.332,2.335S41.875,496.533,40.59,496.533z"/>
	</g>
	<g>
		<path fill="#388E3B" d="M28.047,440.607c-9.441,0-17.123,7.68-17.123,17.121c0,3.494,1.049,6.855,3.029,9.725
			c0.35,0.511,0.928,0.813,1.545,0.813h6.734l8.471,2.513v3.445c0,0.75,0.607,1.356,1.355,1.356c0.75,0,1.361-0.606,1.361-1.356
			v-4.665l4.307-8.151c4.963-0.27,6.707-2.104,7.023-2.496c0.27-0.334,0.416-0.75,0.416-1.178
			C45.168,448.287,37.485,440.607,28.047,440.607z M19.268,459.967c-0.805,0-1.453-0.649-1.453-1.452s0.648-1.454,1.453-1.454
			c0.805,0,1.453,0.651,1.453,1.454S20.073,459.967,19.268,459.967z M31.133,468.066l-7.105-2.104
			c0.014-0.031,0.021-0.063,0.029-0.097c0.711-2.526,1.732-4.996,5.646-4.996c0.539,0,1.129,0.053,1.746,0.146
			c1.119,0.173,2.195,0.292,3.215,0.355L31.133,468.066z"/>
	</g>
	<g>
		<g>
			<g>
				<path fill="#388E3B" d="M107.754,95.213c0-3.576-2.896-6.486-6.475-6.486c-3.579,0-6.477,2.91-6.477,6.486v14.572
					c-1.363,1.553-2.09,3.52-2.09,5.59c0,4.724,3.836,8.564,8.559,8.564s8.563-3.844,8.563-8.564c0-2.066-0.717-4.035-2.079-5.59
					L107.754,95.213L107.754,95.213z M101.266,121.638c-3.451,0-6.259-2.809-6.259-6.264c0-1.633,0.618-3.174,1.749-4.344
					c0.208-0.213,0.32-0.5,0.32-0.799V95.211c0-2.309,1.867-4.188,4.175-4.188s4.174,1.877,4.174,4.188v15.021
					c0,0.299,0.13,0.586,0.339,0.799c1.131,1.172,1.76,2.715,1.76,4.344C107.521,118.831,104.723,121.638,101.266,121.638z"/>
				<path fill="#388E3B" d="M103.21,111.706v-5.275c0-1.063-0.871-1.919-1.933-1.919c-1.063,0-1.93,0.858-1.93,1.919v5.275
					c-1.25,0.686-2.145,2.031-2.145,3.58c0,2.242,1.816,4.062,4.063,4.062c2.242,0,4.071-1.818,4.071-4.062
					C105.341,113.737,104.46,112.39,103.21,111.706z"/>
				<path fill="#388E3B" d="M111.404,93.019h5.371c0.638,0,1.152-0.528,1.152-1.165c0-0.636-0.518-1.164-1.152-1.164h-5.371
					c-0.637,0-1.151,0.526-1.151,1.164C110.254,92.489,110.77,93.019,111.404,93.019z"/>
				<path fill="#388E3B" d="M116.775,96.085h-5.373c-0.633,0-1.148,0.5-1.148,1.138c0,0.636,0.516,1.138,1.148,1.138h5.373
					c0.636,0,1.152-0.502,1.152-1.138C117.926,96.585,117.41,96.085,116.775,96.085z"/>
				<path fill="#388E3B" d="M116.775,101.427h-5.373c-0.633,0-1.148,0.527-1.148,1.163c0,0.637,0.516,1.164,1.148,1.164h5.373
					c0.636,0,1.152-0.527,1.152-1.164C117.928,101.955,117.41,101.427,116.775,101.427z"/>
				<path fill="#388E3B" d="M116.775,106.823h-5.373c-0.633,0-1.148,0.502-1.148,1.137c0,0.64,0.516,1.139,1.148,1.139h5.373
					c0.636,0,1.152-0.499,1.152-1.139C117.926,107.325,117.41,106.823,116.775,106.823z"/>
			</g>
		</g>
	</g>
	<g>
		<path fill="#388E3B" d="M109.29,132.622c-1.858-1.834-4.326-2.823-6.938-2.788c-5.231,0.072-9.52,4.392-9.547,9.625
			c-0.012,1.564,0.342,3.06,1.047,4.441l4.56,7.642c0.729-1.019,1.897-1.732,3.536-1.732c1.568,0,2.716,0.648,3.449,1.6
			c0.236,0.133,0.457,0.279,0.654,0.453h0.326l4.748-7.959c0.695-1.365,1.049-2.84,1.049-4.385
			C112.175,136.906,111.148,134.457,109.29,132.622z"/>
		<path fill="#388E3B" d="M116.277,163.709l-4.877-10.317c-0.1-0.207-0.266-0.364-0.469-0.451l-2.428-1.078l-0.941,1.576
			l2.332,1.037l3.683,7.789l-4.234-1.886c-0.233-0.104-0.506-0.104-0.741,0l-6.111,2.722l-6.109-2.722
			c-0.236-0.104-0.506-0.104-0.742,0l-4.232,1.886l3.683-7.789l2.33-1.037l-0.94-1.576l-2.439,1.086
			c-0.197,0.089-0.361,0.246-0.453,0.443l-4.879,10.317c-0.162,0.347-0.096,0.756,0.172,1.029c0.27,0.271,0.676,0.352,1.023,0.195
			l6.109-2.722l6.11,2.722c0.235,0.104,0.508,0.104,0.744,0l6.11-2.722l6.109,2.722c0.121,0.053,0.246,0.078,0.371,0.078
			c0.238,0,0.479-0.097,0.652-0.273C116.374,164.465,116.441,164.055,116.277,163.709z"/>
		<path fill="#FFFFFF" d="M109.896,154.475l-2.334-1.037l-0.222,0.373c0.229,0.707,0.298,1.473,0.212,2.218
			c0.295,2.479-1.162,5.204-4.39,5.204c-2.468,0-3.892-1.598-4.3-3.457c-1.057-1.041-1.45-4.338-1.45-4.338l-2.332,1.037
			l-3.683,7.789l4.23-1.887c0.236-0.104,0.508-0.104,0.742,0l6.111,2.723l6.11-2.724c0.236-0.104,0.509-0.104,0.744,0l4.231,1.888
			L109.896,154.475z"/>
		<path fill="#388E3B" d="M112.175,139.518c0,1.545-0.354,3.019-1.049,4.384l-7.854,13.165c-0.239,0.402-0.627,0.445-0.785,0.445
			c-0.153,0-0.543-0.043-0.782-0.445l-7.854-13.165c-0.703-1.382-1.057-2.878-1.049-4.441c0.031-5.234,4.314-9.554,9.551-9.625
			c2.611-0.033,5.078,0.954,6.938,2.788C111.148,134.457,112.175,136.906,112.175,139.518z M106.656,139.518
			c0-2.297-1.87-4.166-4.17-4.166c-2.297,0-4.166,1.869-4.166,4.166c0,2.299,1.869,4.168,4.166,4.168
			C104.786,143.686,106.656,141.816,106.656,139.518z"/>
		<path fill="#FFFFFF" d="M102.486,137.176c1.293,0,2.343,1.052,2.343,2.343s-1.05,2.34-2.343,2.34c-1.289,0-2.34-1.049-2.34-2.34
			S101.197,137.176,102.486,137.176z"/>
	</g>
	<g>
		<g>
			<path fill="#388E3B" d="M111.18,174.339l-0.438,0.438v-0.438h-2.157c-0.975,1.503-3.025,2.542-5.412,2.542
				c-2.385,0-4.438-1.04-5.408-2.542h-2.158v0.438l-0.438-0.438l-7.76,7.765l4.243,4.249l3.955-3.957v19.782h15.137v-19.781
				l3.955,3.957l4.244-4.25L111.18,174.339z"/>
			<path fill="#388E3B" d="M110.738,203.923H95.604c-0.965,0-1.746-0.779-1.746-1.745V186.61l-0.978,0.978
				c-0.325,0.325-0.771,0.512-1.233,0.512l0,0c-0.461,0-0.905-0.187-1.232-0.512l-4.244-4.249c-0.684-0.682-0.684-1.784,0-2.469
				l7.76-7.766c0.379-0.379,0.928-0.563,1.453-0.498c0.074-0.009,0.146-0.015,0.223-0.015h2.156c0.594,0,1.145,0.301,1.467,0.797
				c0.688,1.062,2.232,1.745,3.943,1.745s3.26-0.685,3.946-1.745c0.321-0.496,0.874-0.797,1.464-0.797h2.159
				c0.073,0,0.146,0.005,0.222,0.015c0.07-0.009,0.145-0.015,0.217-0.015l0,0c0.465,0,0.906,0.187,1.234,0.513l7.76,7.764
				c0.686,0.682,0.686,1.785,0,2.468l-4.244,4.25c-0.324,0.325-0.771,0.512-1.229,0.512c-0.003,0-0.003,0-0.003,0
				c-0.463,0.001-0.905-0.187-1.231-0.511l-0.978-0.979v15.565C112.484,203.143,111.703,203.923,110.738,203.923z M97.348,200.434
				h11.646v-18.038c0-0.705,0.427-1.341,1.077-1.611c0.652-0.27,1.4-0.121,1.9,0.377l2.723,2.724l1.777-1.781l-5.584-5.587
				c-0.275,0.023-0.552-0.02-0.814-0.125c-0.184-0.075-0.35-0.181-0.487-0.309h-0.149c-1.44,1.589-3.75,2.541-6.265,2.541
				c-2.513,0-4.817-0.952-6.262-2.541h-0.147c-0.146,0.128-0.311,0.23-0.49,0.309c-0.265,0.105-0.545,0.146-0.816,0.125
				l-5.584,5.589l1.777,1.779l2.721-2.724c0.498-0.5,1.25-0.647,1.902-0.379c0.651,0.271,1.076,0.908,1.076,1.613V200.434
				L97.348,200.434z"/>
		</g>
	</g>
	<g>
		<g>
			<g>
				<g>
					<path fill="#388E3B" d="M91.111,228.149c-1.438,1.026-2.87,1.623-4.133,2.147c-1.191,0.494-2.224,0.925-2.892,1.593
						c-2.256,2.258-2.256,5.926,0,8.182c1.128,1.129,2.608,1.691,4.093,1.691c1.48,0,2.963-0.564,4.09-1.691
						c0.668-0.668,1.099-1.697,1.594-2.889c0.523-1.263,1.121-2.693,2.146-4.134c0.188-0.264,0.127-0.627-0.136-0.813
						s-0.626-0.125-0.813,0.137c-1.104,1.549-1.756,3.107-2.275,4.363c-0.447,1.076-0.837,2.006-1.342,2.512
						c-1.801,1.801-4.729,1.801-6.53,0c-1.804-1.801-1.804-4.729,0-6.531c0.505-0.506,1.438-0.893,2.515-1.342
						c1.256-0.52,2.813-1.17,4.361-2.274c0.264-0.188,0.32-0.552,0.137-0.813C91.736,228.024,91.373,227.962,91.111,228.149z"/>
					<path fill="#388E3B" d="M88.98,233.099c0.845-0.31,1.715-0.623,2.41-1.146c0.258-0.192,0.31-0.563,0.114-0.815
						c-0.192-0.259-0.56-0.312-0.815-0.115c-0.557,0.418-1.311,0.692-2.105,0.981c-1.031,0.373-2.1,0.765-2.855,1.521
						c-0.656,0.656-1.021,1.527-1.021,2.455c0,0.93,0.358,1.801,1.021,2.457c0.653,0.653,1.525,1.018,2.457,1.018
						c0.928,0,1.799-0.358,2.453-1.018c0.668-0.668,1.098-1.697,1.594-2.892c0.524-1.264,1.121-2.692,2.146-4.133
						c0.188-0.262,0.126-0.625-0.138-0.813c-0.263-0.189-0.625-0.127-0.813,0.135c-1.105,1.547-1.755,3.109-2.275,4.361
						c-0.446,1.077-0.836,2.01-1.342,2.514c-0.871,0.873-2.391,0.873-3.262,0c-0.898-0.898-0.898-2.361,0-3.262
						C87.126,233.772,88.027,233.444,88.98,233.099z"/>
					<path fill="#388E3B" d="M100.036,233.116l-8.992-8.992c-0.229-0.227-0.599-0.227-0.823,0c-0.229,0.229-0.229,0.599,0,0.826
						l9.006,9.002c0.035,0.035,3.469,3.332,1.901,6.982c-0.127,0.295,0.013,0.641,0.308,0.766c0.073,0.033,0.151,0.047,0.229,0.047
						c0.228,0,0.44-0.133,0.535-0.354C104.091,236.985,100.189,233.261,100.036,233.116z"/>
					<path fill="#388E3B" d="M97.512,233.872c-0.263-0.188-0.625-0.127-0.813,0.137c-1.045,1.464-1.571,2.81-2.034,3.994
						c-0.447,1.146-0.835,2.136-1.582,2.879c-2.702,2.703-7.099,2.703-9.802,0c-1.311-1.309-2.029-3.049-2.029-4.899
						s0.723-3.59,2.029-4.898c0.746-0.748,1.734-1.135,2.879-1.582c1.189-0.463,2.533-0.987,3.994-2.032
						c0.265-0.189,0.324-0.554,0.138-0.814c-0.188-0.264-0.554-0.322-0.813-0.137c-1.345,0.961-2.619,1.459-3.74,1.897
						c-1.217,0.476-2.359,0.924-3.279,1.845c-1.529,1.526-2.372,3.563-2.372,5.727c0,2.162,0.843,4.195,2.372,5.729
						c1.577,1.576,3.65,2.365,5.729,2.365c2.07,0,4.146-0.789,5.727-2.365c0.918-0.922,1.367-2.065,1.842-3.278
						c0.438-1.125,0.938-2.398,1.898-3.744C97.835,234.423,97.773,234.06,97.512,233.872z"/>
					<path fill="#388E3B" d="M100.848,232.306c0.112,0.114,0.264,0.172,0.411,0.172c0.148,0,0.3-0.058,0.412-0.172
						c0.229-0.229,0.229-0.599,0-0.824l-8.991-8.991c-0.229-0.229-0.598-0.229-0.822,0c-0.229,0.229-0.229,0.598,0,0.824
						L100.848,232.306z"/>
					<path fill="#388E3B" d="M103.712,225.122c0.117,0,0.233-0.037,0.338-0.108c1.438-1.027,2.871-1.624,4.134-2.148
						c1.19-0.497,2.221-0.925,2.889-1.593c2.256-2.256,2.256-5.926,0-8.183c-1.092-1.094-2.545-1.694-4.09-1.694
						s-2.998,0.603-4.09,1.694c-0.67,0.668-1.099,1.696-1.595,2.89c-0.524,1.263-1.121,2.69-2.147,4.133
						c-0.188,0.262-0.125,0.627,0.135,0.813c0.266,0.188,0.627,0.128,0.814-0.136c1.104-1.546,1.754-3.105,2.274-4.359
						c0.448-1.078,0.836-2.009,1.342-2.515c0.871-0.873,2.031-1.354,3.267-1.354s2.393,0.479,3.266,1.354
						c1.803,1.801,1.803,4.73,0,6.532c-0.504,0.504-1.436,0.892-2.512,1.34c-1.256,0.522-2.816,1.171-4.363,2.277
						c-0.262,0.188-0.318,0.551-0.135,0.813C103.352,225.036,103.529,225.122,103.712,225.122z"/>
					<path fill="#388E3B" d="M112.706,211.455c-1.526-1.53-3.563-2.372-5.728-2.372c-2.162,0-4.194,0.842-5.729,2.372
						c-0.918,0.919-1.363,2.065-1.842,3.278c-0.438,1.123-0.938,2.397-1.896,3.744c-0.188,0.262-0.127,0.625,0.137,0.813
						c0.263,0.188,0.627,0.127,0.813-0.135c1.047-1.465,1.572-2.811,2.037-3.996c0.446-1.145,0.834-2.132,1.58-2.879
						c1.31-1.309,3.049-2.03,4.899-2.03s3.59,0.723,4.896,2.03c1.313,1.309,2.031,3.049,2.031,4.9c0,1.851-0.721,3.592-2.031,4.899
						c-0.742,0.746-1.73,1.133-2.879,1.581c-1.186,0.464-2.529,0.992-3.994,2.037c-0.262,0.188-0.32,0.551-0.137,0.813
						c0.113,0.159,0.293,0.243,0.479,0.243c0.113,0,0.232-0.034,0.338-0.106c1.346-0.961,2.619-1.459,3.742-1.898
						c1.213-0.477,2.357-0.923,3.277-1.842c1.529-1.528,2.371-3.563,2.371-5.727C115.075,215.018,114.234,212.984,112.706,211.455z"
						/>
					<path fill="#388E3B" d="M95.95,219.219c-0.229-0.229-0.599-0.229-0.825,0c-0.229,0.229-0.229,0.599,0,0.825l8.991,8.991
						c0.112,0.113,0.266,0.172,0.411,0.172c0.15,0,0.3-0.059,0.412-0.172c0.229-0.229,0.229-0.596,0-0.824L95.95,219.219z"/>
					<path fill="#388E3B" d="M94.313,220.856c-0.227-0.229-0.597-0.229-0.824,0c-0.227,0.228-0.227,0.597,0,0.824l8.992,8.992
						c0.115,0.111,0.265,0.171,0.414,0.171c0.146,0,0.297-0.06,0.412-0.171c0.229-0.229,0.229-0.6,0-0.823L94.313,220.856z"/>
					<path fill="#388E3B" d="M106.182,220.063c-0.845,0.308-1.716,0.623-2.412,1.147c-0.256,0.191-0.31,0.56-0.113,0.814
						c0.191,0.258,0.563,0.313,0.816,0.115c0.555-0.42,1.311-0.691,2.104-0.982c1.03-0.374,2.101-0.764,2.858-1.521
						c0.656-0.658,1.019-1.529,1.019-2.457c0-0.931-0.361-1.802-1.019-2.457c-1.354-1.354-3.561-1.354-4.912,0
						c-0.668,0.668-1.098,1.698-1.592,2.891c-0.524,1.262-1.121,2.693-2.147,4.132c-0.188,0.264-0.127,0.626,0.135,0.813
						c0.104,0.071,0.224,0.106,0.34,0.106c0.183,0,0.359-0.085,0.476-0.242c1.104-1.548,1.754-3.108,2.274-4.362
						c0.449-1.078,0.837-2.008,1.343-2.513c0.896-0.899,2.362-0.899,3.262,0c0.439,0.437,0.676,1.015,0.676,1.632
						c0,0.613-0.236,1.193-0.676,1.631C108.034,219.389,107.134,219.717,106.182,220.063z"/>
				</g>
			</g>
		</g>
		<g>
			<g>
				<g>
					<path fill="#388E3B" d="M110.975,236.743c0.061-0.606-0.097-1.221-0.441-1.723c-0.084-0.123-0.18-0.236-0.281-0.342
						l-2.725-2.804c-0.502-0.514-1.197-0.799-1.916-0.78c-0.715,0.016-1.4,0.329-1.879,0.862l-0.65,0.73l1.229,1.094l0.648-0.729
						c0.178-0.195,0.43-0.314,0.689-0.318c0.264-0.006,0.518,0.1,0.701,0.287l2.725,2.801c0.039,0.039,0.072,0.082,0.105,0.127
						c0.127,0.187,0.186,0.408,0.161,0.631c-0.024,0.279-0.178,0.531-0.405,0.691l-7.236,4.961c-0.221,0.151-0.498,0.203-0.76,0.141
						c-0.23-0.057-0.428-0.192-0.563-0.387c-0.021-0.025-0.035-0.057-0.054-0.086l-0.911-1.683c-0.188-0.354-0.14-0.786,0.127-1.084
						l0.396-0.444l-1.227-1.092l-0.396,0.44c-0.724,0.814-0.86,2.002-0.344,2.959l0.91,1.687c0.043,0.08,0.092,0.155,0.143,0.229
						c0.363,0.529,0.908,0.904,1.529,1.055c0.715,0.173,1.471,0.031,2.076-0.381l7.234-4.965
						C110.491,238.19,110.896,237.505,110.975,236.743z"/>
				</g>
			</g>
			<g>
				<g>
					<path fill="#388E3B" d="M103.71,234.452l-1.228-1.092l-3.182,3.568l1.227,1.094L103.71,234.452z M100.245,236.969
						c-0.104-0.154-0.063-0.365,0.09-0.474c0.153-0.104,0.365-0.065,0.474,0.088c0.104,0.154,0.065,0.365-0.088,0.472
						C100.564,237.161,100.354,237.12,100.245,236.969z"/>
				</g>
			</g>
		</g>
	</g>
	<g>
		<path fill="#388E3B" d="M87.559,309.216c-0.881,0-1.597-0.716-1.597-1.597c0-0.88,0.715-1.594,1.597-1.594
			c4.396,0,7.973-3.579,7.973-7.976c0-0.881,0.715-1.596,1.594-1.596c0.881,0,1.596,0.715,1.596,1.596
			C98.718,304.207,93.712,309.216,87.559,309.216z"/>
		<path fill="#388E3B" d="M97.125,299.646c-0.879,0-1.594-0.715-1.594-1.594c0-6.155,5.006-11.162,11.162-11.162h7.973
			c0.879,0,1.594,0.714,1.594,1.594c0,0.881-0.715,1.596-1.594,1.596h-7.973c-4.396,0-7.978,3.576-7.978,7.974
			C98.718,298.932,98.005,299.646,97.125,299.646z"/>
		<path fill="#388E3B" d="M114.666,309.216h-7.973c-2.726,0-5.348-0.989-7.387-2.79c-0.658-0.584-0.724-1.59-0.142-2.25
			c0.582-0.659,1.592-0.723,2.25-0.141c1.457,1.281,3.332,1.99,5.276,1.99h7.972c0.881,0,1.596,0.714,1.596,1.594
			C116.259,308.5,115.544,309.216,114.666,309.216z"/>
		<path fill="#388E3B" d="M93.939,292.515c-0.381,0-0.76-0.135-1.064-0.406c-1.463-1.309-3.35-2.028-5.316-2.028h-1.596
			c-0.879,0-1.594-0.714-1.594-1.595c0-0.88,0.715-1.594,1.594-1.594h1.596c2.752,0,5.396,1.01,7.443,2.841
			c0.654,0.586,0.713,1.596,0.125,2.251C94.813,292.336,94.376,292.515,93.939,292.515z"/>
		<path fill="#388E3B" d="M87.559,309.216h-1.597c-0.879,0-1.594-0.716-1.594-1.597c0-0.88,0.715-1.594,1.594-1.594h1.597
			c0.881,0,1.596,0.714,1.596,1.594C89.154,308.5,88.439,309.216,87.559,309.216z"/>
		<path fill="#388E3B" d="M106.695,296.457c-0.494,0-0.98-0.227-1.291-0.656c-0.521-0.713-0.359-1.709,0.35-2.228l6.998-5.089
			l-6.996-5.088c-0.711-0.519-0.869-1.517-0.352-2.229c0.518-0.711,1.514-0.871,2.229-0.352l10.541,7.667l-10.543,7.668
			C107.348,296.359,107.018,296.457,106.695,296.457z"/>
		<path fill="#388E3B" d="M106.695,315.594c-0.494,0-0.98-0.229-1.291-0.656c-0.521-0.713-0.359-1.71,0.35-2.229l6.998-5.09
			l-6.996-5.09c-0.711-0.521-0.869-1.516-0.352-2.229c0.517-0.713,1.514-0.867,2.229-0.352l10.541,7.666l-10.543,7.67
			C107.348,315.494,107.018,315.594,106.695,315.594z"/>
	</g>
	<g>
		<path fill="#388E3B" d="M114.951,321.861H86.4c-1.777,0-3.223,1.447-3.223,3.223v17.574c0,1.777,1.444,3.226,3.223,3.226h28.551
			c1.777,0,3.223-1.445,3.223-3.226v-17.574C118.173,323.309,116.729,321.861,114.951,321.861z M116.16,342.658
			c0,0.666-0.543,1.209-1.209,1.209H86.4c-0.666,0-1.209-0.543-1.209-1.209v-17.574c0-0.665,0.543-1.206,1.209-1.206h28.551
			c0.666,0,1.209,0.54,1.209,1.206V342.658L116.16,342.658z"/>
		<path fill="#388E3B" d="M112.184,327.611h-9.254c-0.445,0-0.808,0.361-0.808,0.805c0,0.445,0.356,0.81,0.808,0.81h9.254
			c0.444,0,0.807-0.361,0.807-0.81C112.99,327.973,112.628,327.611,112.184,327.611z"/>
		<path fill="#388E3B" d="M112.184,338.521h-9.254c-0.445,0-0.808,0.361-0.808,0.807c0,0.443,0.356,0.806,0.808,0.806h9.254
			c0.444,0,0.807-0.359,0.807-0.806C112.988,338.884,112.628,338.521,112.184,338.521z"/>
		<path fill="#388E3B" d="M112.184,332.271h-5.603c-0.444,0-0.81,0.361-0.81,0.807c0,0.443,0.359,0.808,0.81,0.808h5.603
			c0.444,0,0.807-0.361,0.807-0.808C112.988,332.634,112.628,332.271,112.184,332.271z"/>
		<path fill="#388E3B" d="M112.184,335.396h-5.603c-0.444,0-0.81,0.361-0.81,0.805c0,0.445,0.359,0.808,0.81,0.808h5.603
			c0.444,0,0.807-0.359,0.807-0.808C112.99,335.759,112.628,335.396,112.184,335.396z"/>
		<path fill="#388E3B" d="M94.609,334.248c2.285,0,4.143-1.856,4.143-4.143c0-2.283-1.857-4.143-4.143-4.143
			c-2.281,0-4.142,1.856-4.142,4.143S92.328,334.248,94.609,334.248z M94.609,327.979c1.176,0,2.127,0.955,2.127,2.129
			c0,1.172-0.951,2.127-2.127,2.127c-1.172,0-2.127-0.955-2.127-2.127C92.482,328.934,93.438,327.979,94.609,327.979z"/>
		<path fill="#388E3B" d="M96.214,334.994h-3.18c-2.229,0-4.041,1.812-4.041,4.039v1.736c0,0.559,0.448,1.01,1.008,1.01
			c0.558,0,1.006-0.451,1.006-1.01v-1.736c0-1.119,0.91-2.024,2.027-2.024h3.18c1.117,0,2.024,0.905,2.024,2.024v1.736
			c0,0.559,0.449,1.01,1.009,1.01c0.556,0,1.006-0.451,1.006-1.01v-1.736C100.253,336.805,98.439,334.994,96.214,334.994z"/>
	</g>
	<g>
		<path fill="#388E3B" d="M105.342,367.296c-1.121-0.644-2.672-1.323-4.648-2.043c-1.797-0.662-2.975-1.216-3.52-1.662
			c-0.549-0.449-0.822-1.09-0.822-1.927c0-0.819,0.285-1.521,0.855-2.099c0.563-0.575,1.316-0.862,2.262-0.862
			c1.871,0,3.25,1.289,4.145,3.868l4.584-1.88c-1.096-3.763-3.502-5.865-7.221-6.313v-3.069h-3.328v3.069
			c-2.463,0.347-4.268,1.297-5.414,2.851c-1.145,1.56-1.721,3.313-1.721,5.256c0,1.479,0.322,2.785,0.965,3.904
			c0.642,1.114,1.479,1.98,2.506,2.601c1.029,0.623,2.459,1.248,4.289,1.886c2.033,0.719,3.349,1.313,3.938,1.782
			c0.59,0.468,0.888,1.155,0.888,2.063c0,0.879-0.295,1.626-0.888,2.245c-0.59,0.621-1.517,0.932-2.771,0.932
			c-2.678,0-4.256-1.447-4.731-4.348l-5.146,1.343c1.041,4.608,3.731,7.144,8.086,7.588v3.955h3.328v-3.978
			c2.608-0.273,4.606-1.188,5.987-2.735c1.384-1.55,2.076-3.481,2.076-5.806c0-1.515-0.336-2.834-1.006-3.968
			C107.361,368.826,106.467,367.938,105.342,367.296z"/>
	</g>
	<g>
		<path fill="#388E3B" d="M105.053,423.295l-0.492,2.006c-1.471,0.582-2.646,1.022-3.522,1.33c-0.875,0.305-1.896,0.455-3.058,0.455
			c-1.78,0-3.168-0.438-4.155-1.305c-0.988-0.872-1.479-1.974-1.479-3.313c0-0.518,0.03-1.051,0.106-1.594
			c0.073-0.545,0.194-1.156,0.358-1.842l1.84-6.512c0.164-0.624,0.304-1.216,0.414-1.771c0.113-0.558,0.166-1.066,0.166-1.527
			c0-0.832-0.172-1.414-0.514-1.739c-0.344-0.326-0.998-0.492-1.969-0.492c-0.477,0-0.965,0.076-1.463,0.227
			c-0.5,0.146-0.928,0.291-1.289,0.424l0.492-2.008c1.205-0.492,2.357-0.912,3.461-1.262s2.143-0.523,3.129-0.523
			c1.771,0,3.137,0.429,4.094,1.285c0.959,0.854,1.439,1.965,1.439,3.334c0,0.281-0.031,0.778-0.1,1.494
			c-0.066,0.713-0.189,1.366-0.369,1.963l-1.832,6.485c-0.15,0.521-0.285,1.116-0.402,1.786c-0.121,0.666-0.18,1.175-0.18,1.518
			c0,0.859,0.192,1.446,0.578,1.764c0.387,0.313,1.057,0.468,2.004,0.468c0.446,0,0.953-0.078,1.516-0.232
			C104.389,423.551,104.799,423.413,105.053,423.295z M105.518,396.062c0,1.131-0.426,2.096-1.281,2.89
			c-0.854,0.796-1.883,1.194-3.088,1.194s-2.235-0.398-3.1-1.194c-0.863-0.794-1.297-1.759-1.297-2.89
			c0-1.127,0.434-2.094,1.297-2.898c0.859-0.802,1.895-1.202,3.1-1.202s2.234,0.401,3.088,1.202
			C105.092,393.969,105.518,394.935,105.518,396.062z"/>
	</g>
	<g>
		<polygon fill="#388E3B" points="84.07,442.144 81.341,442.144 81.341,444.465 84.07,444.465 84.07,450.935 80.979,450.935 
			80.979,453.255 84.07,453.255 84.07,459.726 80.979,459.726 80.979,462.044 84.07,462.044 84.07,469.681 89.482,469.681 
			89.482,434.509 84.07,434.509 		"/>
		<path fill="#388E3B" d="M91.798,434.509v35.173h22.031v-35.173H91.798z M102.816,445.011c1.885,0,3.412,1.526,3.412,3.411
			c0,1.886-1.527,3.413-3.412,3.413s-3.412-1.527-3.412-3.413C99.404,446.538,100.932,445.011,102.816,445.011z M96.63,459.178
			c0-3.415,2.771-6.185,6.187-6.185s6.184,2.77,6.184,6.185H96.63z"/>
	</g>
	<g>
		<g>
			<g>
				<path fill="#388E3B" d="M38.796,396.021H20.07c-1.27,0-2.303,1.034-2.303,2.304v0.037H17.73c-1.271,0-2.305,1.032-2.305,2.303
					v0.039H15.39c-1.271,0-2.305,1.032-2.305,2.304v25.746c0,1.271,1.033,2.305,2.305,2.305h18.725c1.271,0,2.305-1.031,2.305-2.305
					v-0.035h0.037c1.268,0,2.303-1.032,2.303-2.306v-0.036h0.037c1.27,0,2.305-1.035,2.305-2.305v-25.747
					C41.101,397.055,40.066,396.021,38.796,396.021z M35.32,428.753c0,0.666-0.539,1.209-1.205,1.209H15.39
					c-0.666,0-1.209-0.543-1.209-1.209v-9.396H35.32V428.753L35.32,428.753z M35.32,418.257H14.181v-15.25
					c0-0.664,0.543-1.207,1.209-1.207h18.725c0.666,0,1.205,0.543,1.205,1.207V418.257L35.32,418.257z M37.664,426.412
					c0,0.666-0.543,1.207-1.207,1.207H36.42v-10.604h1.244V426.412L37.664,426.412z M37.664,415.916H36.42v-12.909
					c0-1.271-1.033-2.304-2.305-2.304H16.521v-0.039c0-0.664,0.545-1.205,1.209-1.205h18.727c0.664,0,1.207,0.541,1.207,1.205
					V415.916L37.664,415.916z M40.001,424.071c0,0.666-0.539,1.207-1.205,1.207h-0.037v-10.605h1.242V424.071z M40.001,413.574
					h-1.242v-12.91c0-1.271-1.035-2.303-2.303-2.303H18.863v-0.037c0-0.664,0.541-1.207,1.207-1.207h18.727
					c0.666,0,1.205,0.541,1.205,1.207L40.001,413.574L40.001,413.574z"/>
			</g>
		</g>
		<g>
			<g>
				<path fill="#388E3B" d="M25.271,415.246l-2.701-9.726c-0.207-0.745-0.893-1.265-1.666-1.265h-1.15
					c-0.773,0-1.459,0.52-1.664,1.265l-2.703,9.726c-0.08,0.295,0.09,0.602,0.383,0.681c0.295,0.082,0.602-0.09,0.684-0.383
					l0.703-2.537h6.352l0.705,2.537c0.064,0.241,0.291,0.401,0.531,0.401c0.049,0,0.1-0.007,0.146-0.02
					C25.183,415.846,25.355,415.541,25.271,415.246z M17.46,411.902l1.689-6.086c0.076-0.27,0.322-0.458,0.604-0.458h1.15
					c0.281,0,0.529,0.188,0.604,0.458l1.691,6.086H17.46z"/>
			</g>
		</g>
		<g>
			<g>
				<path fill="#388E3B" d="M33.046,414.844c-0.02,0-0.035-0.019-0.035-0.037v-2.06v-0.588v-2.646c0-0.305-0.246-0.551-0.551-0.551
					s-0.551,0.246-0.551,0.551v0.233c-0.564-0.489-1.295-0.784-2.098-0.784c-1.764,0-3.199,1.434-3.199,3.196v0.588
					c0,1.765,1.438,3.196,3.199,3.196c0.824,0,1.572-0.313,2.141-0.823c0.139,0.477,0.576,0.823,1.094,0.823
					c0.307,0,0.553-0.245,0.553-0.551S33.353,414.844,33.046,414.844z M31.91,412.748c0,1.155-0.941,2.097-2.098,2.097
					c-1.152,0-2.094-0.938-2.094-2.097v-0.588c0-1.155,0.939-2.096,2.094-2.096c1.156,0,2.098,0.939,2.098,2.096V412.748z"/>
			</g>
		</g>
		<g>
			<g>
				<path fill="#388E3B" d="M32.46,421.901H17.166c-0.305,0-0.551,0.246-0.551,0.552s0.246,0.554,0.551,0.554H32.46
					c0.305,0,0.551-0.248,0.551-0.554S32.765,421.901,32.46,421.901z"/>
			</g>
		</g>
		<g>
			<g>
				<path fill="#388E3B" d="M25.917,426.606h-9.412c-0.303,0-0.551,0.248-0.551,0.554c0,0.304,0.248,0.552,0.551,0.552h9.412
					c0.305,0,0.553-0.248,0.553-0.552C26.47,426.854,26.222,426.606,25.917,426.606z"/>
			</g>
		</g>
		<g>
			<g>
				<path fill="#388E3B" d="M20.037,424.257h-3.531c-0.303,0-0.551,0.246-0.551,0.55c0,0.305,0.248,0.553,0.551,0.553h3.531
					c0.303,0,0.551-0.247,0.551-0.553C20.587,424.503,20.339,424.257,20.037,424.257z"/>
			</g>
		</g>
		<g>
			<g>
				<path fill="#388E3B" d="M32.46,424.257h-9.412c-0.303,0-0.553,0.246-0.553,0.55c0,0.305,0.25,0.553,0.553,0.553h9.412
					c0.305,0,0.551-0.247,0.551-0.553C33.011,424.503,32.765,424.257,32.46,424.257z"/>
			</g>
		</g>
	</g>
	<g>
		<g>
			<path fill="#388E3B" d="M108.801,489.242c0.473-0.475,0.711-0.902,0.711-1.289c0-0.254-0.102-0.455-0.299-0.604
				c-0.197-0.147-0.406-0.245-0.627-0.289c-0.223-0.044-0.459-0.065-0.713-0.065H84.594c-0.254,0-0.49,0.021-0.711,0.065
				c-0.221,0.046-0.43,0.142-0.629,0.289c-0.197,0.148-0.297,0.351-0.297,0.604c0,0.387,0.236,0.814,0.711,1.289l10.447,10.451
				v12.697h-5.289c-0.287,0-0.533,0.104-0.744,0.313c-0.209,0.209-0.314,0.457-0.314,0.744s0.105,0.535,0.314,0.744
				c0.211,0.207,0.459,0.313,0.744,0.313h14.814c0.287,0,0.532-0.106,0.743-0.313c0.21-0.209,0.313-0.457,0.313-0.744
				s-0.104-0.535-0.313-0.744c-0.211-0.209-0.456-0.313-0.743-0.313h-5.289v-12.697L108.801,489.242z"/>
		</g>
		<g>
			<g>
				<path fill="#388E3B" d="M107.959,483.217c-2.314,0.003-4.268,1.726-4.559,4.021h-0.148c-0.053,0.383-0.105,0.767-0.156,1.147
					h3.676l-1.854,2.342c0.43,0.372,0.813,0.796,1.139,1.259c0.594,0.277,1.244,0.422,1.9,0.422c2.539,0,4.6-2.059,4.6-4.598
					C112.555,485.273,110.497,483.217,107.959,483.217z M107.959,491.26c-0.582,0.004-1.152-0.144-1.662-0.425l2.111-2.665
					c0.197-0.249,0.156-0.61-0.094-0.81c-0.103-0.08-0.228-0.123-0.355-0.123h-3.4c0.318-1.877,2.096-3.144,3.976-2.826
					c1.877,0.316,3.146,2.099,2.823,3.976C111.075,490.047,109.641,491.26,107.959,491.26z"/>
			</g>
		</g>
		<g>
			<g>
				<path fill="#388E3B" d="M100.801,487.813l1.996-6.867h4.387v-1.47h-4.938c-0.322,0-0.608,0.216-0.701,0.529l-2.231,7.687
					C99.807,487.73,100.305,487.771,100.801,487.813z"/>
			</g>
		</g>
	</g>
	<g>
		<g>
			<g>
				<path fill="#388E3B" d="M114.9,257.401H96.775c-0.887,0-2.362,0.336-2.362,2.613v3.483h22.853v-3.483
					C117.264,257.743,115.784,257.401,114.9,257.401z"/>
			</g>
		</g>
		<g>
			<g>
				<polygon fill="#388E3B" points="89.482,264.255 86.034,264.255 86.034,252.073 83.75,252.073 83.75,275.688 86.034,275.688 
					86.034,269.591 116.506,269.591 116.506,275.683 118.792,275.683 118.792,264.255 				"/>
			</g>
		</g>
		<g>
			<g>
				<circle fill="#388E3B" cx="89.842" cy="260.449" r="3.192"/>
			</g>
		</g>
	</g>
</g>
<g id="Слой_2">
	
		<linearGradient id="SVGID_1_" gradientUnits="userSpaceOnUse" x1="32.2471" y1="17.447" x2="45.5552" y2="17.447" gradientTransform="matrix(1 0 0 -1 24.9448 508.3589)">
		<stop  offset="0.1514" style="stop-color:#262626"/>
		<stop  offset="0.4896" style="stop-color:#666666"/>
		<stop  offset="0.8814" style="stop-color:#262626"/>
	</linearGradient>
	<path fill="url(#SVGID_1_)" d="M70.5,511.729c0,0-2.007,1.487-6.84,1.487c-5.948,0-6.468-1.487-6.468-1.487v-43.122
		c0,0,4.907,0.521,6.468,0.521c1.766,0,6.84-0.521,6.84-0.521V511.729z"/>
	<path fill="#333333" d="M61.376,513.13c0.03-0.102,0.028-2.964,0.028-2.964c0-0.544-0.377-0.983-0.843-0.983
		s-0.843,0.439-0.843,0.983c0,0,0.021,2.652,0.05,2.755c0,0,0.551,0.094,0.765,0.12C60.764,513.068,61.376,513.13,61.376,513.13z"/>
	<path fill="#333333" d="M66.315,513.051c-0.03-0.1-0.028-2.899-0.028-2.899c0-0.535,0.377-0.969,0.843-0.969
		c0.466,0,0.843,0.434,0.843,0.969c0,0-0.021,2.501-0.05,2.602c0,0-0.545,0.139-0.759,0.165
		C66.933,512.944,66.315,513.051,66.315,513.051z"/>
	
		<linearGradient id="SVGID_2_" gradientUnits="userSpaceOnUse" x1="32.2471" y1="47.1863" x2="45.5552" y2="47.1863" gradientTransform="matrix(1 0 0 -1 24.9448 508.3589)">
		<stop  offset="0.1514" style="stop-color:#262626"/>
		<stop  offset="0.4896" style="stop-color:#666666"/>
		<stop  offset="0.8814" style="stop-color:#262626"/>
	</linearGradient>
	<path fill="url(#SVGID_2_)" d="M67.46,453.217h-7.287c0,0-0.518,0.057-0.719,0.143c-0.452,0.194-1.221,0.542-1.455,0.75
		c-0.208,0.185-0.497,0.75-0.667,1.107c-0.085,0.179-0.14,0.64-0.14,0.64v12.751c0,0,4.926,0.521,6.468,0.521
		c1.785,0,6.84-0.521,6.84-0.521v-12.658c0,0-0.044-0.514-0.117-0.731c-0.124-0.374-0.332-0.916-0.541-1.107
		c-0.216-0.198-1.031-0.537-1.535-0.734C68.067,453.278,67.46,453.217,67.46,453.217z M68.307,458.844
		c0,0.525-0.434,0.953-0.968,0.953h-6.985c-0.535,0-0.968-0.428-0.968-0.953v-2.928c0-0.525,0.434-0.952,0.968-0.952h6.985
		c0.535,0,0.968,0.427,0.968,0.952V458.844z"/>
	<path fill="#333333" d="M59.655,462.039c-0.03,0.102-0.047,0.208-0.047,0.32v2.314c0,0.543,0.377,0.982,0.843,0.982
		c0.465,0,0.842-0.439,0.842-0.982v-2.314c0-0.112-0.017-0.22-0.047-0.32H59.655z"/>
	<path fill="#333333" d="M66.445,462.039c-0.03,0.102-0.047,0.208-0.047,0.32v2.314c0,0.543,0.377,0.982,0.843,0.982
		c0.465,0,0.842-0.439,0.842-0.982v-2.314c0-0.112-0.017-0.22-0.047-0.32H66.445z"/>
	
		<linearGradient id="SVGID_3_" gradientUnits="userSpaceOnUse" x1="38.9014" y1="46.3201" x2="38.9014" y2="54.501" gradientTransform="matrix(1 0 0 -1 24.9448 508.3589)">
		<stop  offset="0.047" style="stop-color:#404040"/>
		<stop  offset="0.0879" style="stop-color:#000000"/>
		<stop  offset="0.1631" style="stop-color:#BABABA"/>
		<stop  offset="0.5272" style="stop-color:#000000"/>
		<stop  offset="0.7211" style="stop-color:#8A8A8A"/>
		<stop  offset="0.9877" style="stop-color:#000000"/>
	</linearGradient>
	<path opacity="0.59" fill="url(#SVGID_3_)" enable-background="new    " d="M68.762,453.836H58.93
		c-0.857,0-1.552,0.771-1.552,1.722v3.458c0,0,0.264,1.147,0.667,2.029c0.251,0.549,1.61,0.994,1.61,0.994h8.382
		c0,0,1.345-0.426,1.593-0.957c0.413-0.886,0.685-2.066,0.685-2.066v-3.458C70.314,454.605,69.619,453.836,68.762,453.836z
		 M68.307,458.769c0,0.567-0.479,1.027-1.071,1.027h-6.78c-0.591,0-1.071-0.46-1.071-1.027v-2.841c0-0.567,0.479-1.026,1.071-1.026
		h6.78c0.591,0,1.071,0.459,1.071,1.026V458.769z"/>
	<path d="M70.5,468.866c0,0.063-0.05,0.111-0.111,0.111c0,0-4.91,0.298-6.542,0.298c-1.638,0-6.543-0.298-6.543-0.298
		c-0.062,0-0.111-0.05-0.111-0.111l0,0c0-0.062,0.05-0.11,0.111-0.11c0,0,4.905,0.335,6.543,0.335c1.634,0,6.542-0.335,6.542-0.335
		C70.45,468.756,70.5,468.805,70.5,468.866L70.5,468.866z"/>
	
		<linearGradient id="SVGID_4_" gradientUnits="userSpaceOnUse" x1="32.2471" y1="39.4915" x2="45.5552" y2="39.4915" gradientTransform="matrix(1 0 0 -1 24.9448 508.3589)">
		<stop  offset="0" style="stop-color:#000000"/>
		<stop  offset="0.2116" style="stop-color:#000000"/>
		<stop  offset="0.5034" style="stop-color:#A6A6A6"/>
		<stop  offset="1" style="stop-color:#000000"/>
		<stop  offset="1" style="stop-color:#404040"/>
		<stop  offset="1" style="stop-color:#000000"/>
	</linearGradient>
	<path fill="url(#SVGID_4_)" d="M70.5,468.719c0,0.062-0.05,0.11-0.111,0.11c0,0-4.91,0.299-6.542,0.299
		c-1.638,0-6.543-0.299-6.543-0.299c-0.062,0-0.111-0.05-0.111-0.11l0,0c0-0.063,0.05-0.111,0.111-0.111
		c0,0,4.905,0.334,6.543,0.334c1.634,0,6.542-0.334,6.542-0.334C70.45,468.606,70.5,468.656,70.5,468.719L70.5,468.719z"/>
	<g>
		<linearGradient id="SVGID_5_" gradientUnits="userSpaceOnUse" x1="57.2046" y1="426.2048" x2="70.4883" y2="426.2048">
			<stop  offset="0.1514" style="stop-color:#FF6600"/>
			<stop  offset="0.4896" style="stop-color:#FFB054"/>
			<stop  offset="0.8814" style="stop-color:#FF6600"/>
		</linearGradient>
		<path fill="url(#SVGID_5_)" d="M70.488,446.982c0,0-2.004,1.485-6.828,1.484c-5.937-0.001-6.456-1.484-6.456-1.484v-43.038
			c0,0,4.897,0.521,6.456,0.521c1.763,0,6.828-0.521,6.828-0.521V446.982z"/>
		<path fill="#E64D00" d="M61.382,448.38c0.03-0.1,0.028-2.958,0.028-2.958c0-0.542-0.377-0.981-0.842-0.981
			c-0.464,0-0.841,0.439-0.841,0.981c0,0,0.02,2.648,0.051,2.749c0,0,0.549,0.094,0.762,0.12
			C60.771,448.319,61.382,448.38,61.382,448.38z"/>
		<path fill="#E64D00" d="M66.31,448.302c-0.029-0.099-0.026-2.895-0.026-2.895c0-0.533,0.375-0.967,0.84-0.967
			c0.464,0,0.841,0.434,0.841,0.967c0,0-0.02,2.496-0.049,2.597c0,0-0.546,0.138-0.76,0.164
			C66.927,448.196,66.31,448.302,66.31,448.302z"/>
		<linearGradient id="SVGID_6_" gradientUnits="userSpaceOnUse" x1="57.2046" y1="396.5242" x2="70.4883" y2="396.5242">
			<stop  offset="0.1514" style="stop-color:#FF6600"/>
			<stop  offset="0.4896" style="stop-color:#FFB054"/>
			<stop  offset="0.8814" style="stop-color:#FF6600"/>
		</linearGradient>
		<path fill="url(#SVGID_6_)" d="M67.453,388.584h-7.271c0,0-0.517,0.057-0.719,0.144c-0.45,0.193-1.217,0.539-1.452,0.747
			c-0.206,0.184-0.496,0.748-0.666,1.104c-0.085,0.179-0.14,0.639-0.14,0.639v12.727c0,0,4.917,0.521,6.456,0.521
			c1.78,0,6.828-0.521,6.828-0.521V391.31c0,0-0.045-0.513-0.117-0.729c-0.125-0.375-0.332-0.915-0.541-1.106
			c-0.215-0.197-1.028-0.536-1.532-0.733C68.059,388.646,67.453,388.584,67.453,388.584z M68.298,394.199
			c0,0.526-0.433,0.952-0.966,0.952H60.36c-0.533,0-0.966-0.426-0.966-0.952v-2.921c0-0.524,0.433-0.951,0.966-0.951h6.973
			c0.533,0,0.966,0.427,0.966,0.951V394.199z"/>
		<path fill="#E64D00" d="M59.664,397.389c-0.03,0.101-0.047,0.209-0.047,0.32v2.31c0,0.542,0.376,0.98,0.841,0.98
			s0.841-0.438,0.841-0.98v-2.31c0-0.111-0.018-0.22-0.047-0.32H59.664z"/>
		<path fill="#E64D00" d="M66.441,397.389c-0.029,0.101-0.047,0.209-0.047,0.32v2.31c0,0.542,0.376,0.98,0.841,0.98
			s0.841-0.438,0.841-0.98v-2.31c0-0.111-0.017-0.22-0.047-0.32H66.441z"/>
		<linearGradient id="SVGID_7_" gradientUnits="userSpaceOnUse" x1="63.8467" y1="397.3894" x2="63.8467" y2="389.2251">
			<stop  offset="0.047" style="stop-color:#FF4500"/>
			<stop  offset="0.0879" style="stop-color:#FF6600"/>
			<stop  offset="0.1631" style="stop-color:#FFE345"/>
			<stop  offset="0.5272" style="stop-color:#FF6600"/>
			<stop  offset="0.7211" style="stop-color:#FFED40"/>
			<stop  offset="0.9877" style="stop-color:#FF6600"/>
		</linearGradient>
		<path opacity="0.59" fill="url(#SVGID_7_)" d="M68.752,389.202H58.94c-0.855,0-1.55,0.769-1.55,1.718v3.452
			c0,0,0.264,1.146,0.666,2.024c0.25,0.548,1.607,0.993,1.607,0.993h8.365c0,0,1.342-0.424,1.59-0.955
			c0.412-0.885,0.684-2.063,0.684-2.063v-3.452C70.303,389.97,69.607,389.202,68.752,389.202z M68.298,394.126
			c0,0.566-0.479,1.025-1.068,1.025h-6.768c-0.59,0-1.068-0.459-1.068-1.025v-2.836c0-0.565,0.479-1.023,1.068-1.023h6.768
			c0.59,0,1.068,0.458,1.068,1.023V394.126z"/>
		<path fill="#FF4200" d="M70.488,404.204c0,0.061-0.051,0.111-0.111,0.111c0,0-4.9,0.297-6.53,0.297
			c-1.636,0-6.531-0.297-6.531-0.297c-0.061,0-0.111-0.051-0.111-0.111l0,0c0-0.062,0.051-0.111,0.111-0.111
			c0,0,4.896,0.333,6.531,0.333c1.63,0,6.53-0.333,6.53-0.333C70.438,404.093,70.488,404.142,70.488,404.204L70.488,404.204z"/>
		<linearGradient id="SVGID_8_" gradientUnits="userSpaceOnUse" x1="57.2046" y1="404.2048" x2="70.4883" y2="404.2048">
			<stop  offset="0" style="stop-color:#FF6600"/>
			<stop  offset="0.2116" style="stop-color:#FC7800"/>
			<stop  offset="0.5034" style="stop-color:#FFF096"/>
			<stop  offset="1" style="stop-color:#FF6600"/>
			<stop  offset="1" style="stop-color:#404040"/>
			<stop  offset="1" style="stop-color:#000000"/>
		</linearGradient>
		<path fill="url(#SVGID_8_)" d="M70.488,404.054c0,0.063-0.051,0.111-0.111,0.111c0,0-4.9,0.299-6.53,0.299
			c-1.636,0-6.531-0.299-6.531-0.299c-0.061,0-0.111-0.049-0.111-0.111l0,0c0-0.061,0.051-0.11,0.111-0.11
			c0,0,4.896,0.334,6.531,0.334c1.63,0,6.53-0.334,6.53-0.334C70.438,403.944,70.488,403.994,70.488,404.054L70.488,404.054z"/>
	</g>
</g>
</svg>
