<?xml version="1.0" encoding="utf-8"?>
<!-- Generator: Adobe Illustrator 15.0.0, SVG Export Plug-In . SVG Version: 6.00 Build 0)  -->
<!DOCTYPE svg PUBLIC "-//W3C//DTD SVG 1.1//EN" "http://www.w3.org/Graphics/SVG/1.1/DTD/svg11.dtd">
<svg version="1.1" id="Слой_1" xmlns="http://www.w3.org/2000/svg" xmlns:xlink="http://www.w3.org/1999/xlink" x="0px" y="0px"
	 width="138px" height="517px" viewBox="0 0 138 517" enable-background="new 0 0 138 517" xml:space="preserve">
<g>
	<g>
		<path fill="#505050" d="M34.678,49.04h-9.086v31.669H16.83V49.04H7.773v-8.465h26.904v8.465H34.678z"/>
		<path fill="#505050" d="M44.296,80.709h-8.909V40.574h8.909V80.709z"/>
		<path fill="#505050" d="M71.143,64.874h-8.556c-2.19,0-3.758,0.74-4.705,2.221c-0.632,1.005-0.948,2.27-0.948,3.787
			c0,0.396,0.006,0.679,0.016,0.846c0.009,0.167,0.032,0.319,0.072,0.459v8.522h-8.76c0-0.672,0-1.589,0-2.753
			c0-1.165,0-2.683,0-4.558s0-3.868,0-5.979c0-3.194,0.8-5.791,2.397-7.781c1.834-2.29,4.538-3.436,8.11-3.436h10.892
			c1.006,0,1.794-0.364,2.368-1.09c0.513-0.648,0.771-1.455,0.771-2.417c0-0.982-0.257-1.817-0.771-2.505
			c-0.573-0.769-1.361-1.149-2.368-1.149H48.263v-8.465h22.879c3.414,0,6.114,1.261,8.107,3.784
			c1.813,2.287,2.723,5.075,2.723,8.366c0,3.311-0.896,6.101-2.693,8.363C77.288,63.612,74.574,64.874,71.143,64.874z"/>
		<path fill="#505050" d="M119.355,49.04H97.986c-0.965,0-1.732,0.363-2.293,1.091c-0.564,0.729-0.844,1.582-0.844,2.563
			c0,0.962,0.271,1.788,0.813,2.475c0.544,0.688,1.316,1.033,2.324,1.033h12.578c3.395,0,6.076,1.272,8.052,3.818
			c1.795,2.309,2.692,5.12,2.692,8.436c0,3.334-0.892,6.146-2.664,8.437c-1.974,2.545-4.666,3.816-8.08,3.816H87.657v-8.522h21.458
			c0.906,0,1.648-0.396,2.219-1.187c0.514-0.709,0.77-1.566,0.77-2.575c0-0.967-0.256-1.8-0.77-2.501
			c-0.512-0.698-1.252-1.05-2.219-1.05h-12.61c-3.413,0-6.114-1.262-8.108-3.785c-1.813-2.284-2.724-5.072-2.724-8.363
			s0.897-6.07,2.693-8.337c2.012-2.542,4.726-3.813,8.139-3.813h22.851V49.04L119.355,49.04z"/>
	</g>
	<g>
		<path fill="#388D3B" d="M10,7.461c1.161-0.718,2.432-1.151,3.814-1.305c1.382-0.151,2.81-0.174,4.285-0.07
			s2.979,0.255,4.512,0.454c1.533,0.198,3.048,0.285,4.546,0.26c1.497-0.021,2.949-0.226,4.354-0.607
			c1.405-0.382,2.724-1.121,3.955-2.211c0.509-0.464,0.986-0.72,1.427-0.769c0.442-0.045,0.803,0.034,1.081,0.244
			c0.279,0.209,0.439,0.493,0.486,0.854c0.046,0.358-0.047,0.714-0.279,1.062c-0.627,0.884-1.375,1.56-2.246,2.021
			c-0.871,0.465-1.836,0.802-2.891,1.011c-1.057,0.209-2.196,0.321-3.415,0.331c-1.217,0.01-2.489,0.014-3.813,0.014
			c-0.953,0.581-1.852,1.423-2.7,2.527c-0.849,1.103-1.65,2.345-2.404,3.727c-0.755,1.384-1.457,2.847-2.108,4.391
			c-0.651,1.546-1.266,3.043-1.846,4.494c-0.582,1.451-1.122,2.805-1.621,4.059c-0.5,1.254-0.97,2.276-1.41,3.065
			c-0.512,0.929-1.087,1.626-1.725,2.091c-0.639,0.464-1.25,0.726-1.829,0.784c-0.581,0.058-1.11-0.054-1.586-0.331
			c-0.476-0.278-0.813-0.691-1.01-1.235c-0.198-0.547-0.221-1.198-0.069-1.953c0.15-0.754,0.563-1.574,1.236-2.456
			c1.556-2.064,2.909-4.087,4.059-6.062c1.15-1.976,2.223-3.804,3.223-5.487c0.997-1.683,1.973-3.182,2.926-4.494
			c0.951-1.312,2.009-2.34,3.169-3.084c-1.811,0.071-3.623,0.28-5.435,0.628c-1.811,0.35-3.565,1.01-5.26,1.986
			c-1.3,0.744-2.264,1.057-2.891,0.939c-0.627-0.116-0.976-0.452-1.045-1.012c-0.069-0.558,0.116-1.212,0.557-1.967
			C8.489,8.606,9.14,7.974,10,7.461z"/>
		<path fill="#388D3B" d="M19.684,26.31c0.465-0.464,0.947-1.059,1.446-1.778c0.5-0.718,0.981-1.468,1.445-2.245
			c0.464-0.778,0.889-1.551,1.272-2.316c0.383-0.768,0.703-1.416,0.958-1.95c-0.396-0.396-0.617-0.923-0.662-1.586
			c-0.047-0.662,0.093-1.343,0.417-2.039c0.256-0.533,0.615-0.875,1.08-1.027c0.464-0.149,0.877-0.116,1.237,0.104
			c0.36,0.22,0.586,0.64,0.679,1.254c0.093,0.614-0.093,1.423-0.557,2.421c0.371,0.14,0.743,0.25,1.115,0.331
			c0.371,0.083,0.743,0.146,1.114,0.19c0.394,0.07,0.696,0.197,0.907,0.385c0.208,0.187,0.33,0.418,0.365,0.694
			c0.034,0.279,0,0.582-0.105,0.906c-0.104,0.326-0.26,0.65-0.47,0.975c-0.255,0.396-0.488,0.814-0.696,1.255
			c-0.208,0.442-0.372,0.872-0.488,1.289c-0.116,0.417-0.174,0.79-0.174,1.114c0,0.326,0.081,0.569,0.244,0.732
			c0.394,0.395,0.987,0.389,1.777-0.019c0.789-0.404,1.707-1.133,2.752-2.178c0.278-0.279,0.539-0.413,0.783-0.4
			c0.243,0.014,0.441,0.101,0.592,0.265c0.151,0.162,0.226,0.376,0.226,0.644c0,0.269-0.115,0.519-0.349,0.749
			c-0.254,0.255-0.585,0.633-0.992,1.131c-0.408,0.5-0.889,1-1.446,1.499c-0.557,0.499-1.196,0.94-1.916,1.324
			c-0.72,0.384-1.51,0.574-2.37,0.574c-0.719,0-1.317-0.18-1.793-0.54c-0.477-0.36-0.796-0.866-0.958-1.515
			c-0.163-0.65-0.163-1.412,0-2.282c0.162-0.871,0.534-1.83,1.115-2.875c0.254-0.418,0.44-0.802,0.557-1.149
			c0.115-0.349,0.126-0.638,0.035-0.871c-0.093-0.186-0.279-0.349-0.557-0.486c-0.186,0.511-0.448,1.174-0.785,1.983
			c-0.336,0.814-0.731,1.667-1.185,2.563c-0.452,0.895-0.928,1.775-1.428,2.646s-0.993,1.633-1.481,2.282
			c-0.278,0.349-0.586,0.499-0.922,0.453c-0.337-0.047-0.615-0.197-0.837-0.453c-0.22-0.255-0.348-0.579-0.382-0.975
			C19.214,26.995,19.358,26.635,19.684,26.31z"/>
		<path fill="#388D3B" d="M33.794,27.598c-0.699-0.813-1.011-1.726-0.942-2.734c0.071-1.01,0.396-2.014,0.975-3.014
			c0.581-0.998,1.354-1.921,2.317-2.771c0.963-0.847,1.979-1.52,3.048-2.021c1.067-0.5,2.127-0.762,3.169-0.784
			c1.045-0.023,1.951,0.303,2.719,0.975c0.417-0.162,0.806-0.22,1.167-0.173c0.358,0.047,0.644,0.188,0.852,0.417
			c0.209,0.232,0.331,0.529,0.366,0.888c0.036,0.361-0.053,0.773-0.26,1.237c-0.374,0.769-0.833,1.533-1.378,2.3
			c-0.545,0.77-1.154,1.497-1.829,2.194c-0.046,0.348-0.052,0.65-0.017,0.906s0.144,0.429,0.33,0.521
			c0.35,0.209,0.912,0.117,1.69-0.277c0.778-0.396,1.782-1.207,3.013-2.438c0.326-0.325,0.632-0.506,0.923-0.539
			c0.29-0.036,0.511,0.028,0.663,0.191c0.15,0.162,0.21,0.395,0.175,0.695c-0.035,0.304-0.205,0.604-0.505,0.906
			c-0.676,0.674-1.359,1.313-2.057,1.917c-0.697,0.604-1.388,1.12-2.073,1.548c-0.685,0.433-1.353,0.732-2.004,0.907
			c-0.648,0.174-1.252,0.156-1.81-0.053c-0.745-0.278-1.219-0.813-1.43-1.604c-0.696,0.466-1.381,0.851-2.055,1.149
			c-0.672,0.302-1.324,0.506-1.95,0.61c-0.627,0.104-1.208,0.079-1.743-0.069C34.617,28.336,34.165,28.04,33.794,27.598z
			 M42.362,20.073c0.187-0.348,0.373-0.655,0.558-0.923c0.186-0.269,0.383-0.518,0.593-0.749c-0.42-0.093-0.901-0.045-1.446,0.14
			c-0.545,0.188-1.086,0.454-1.622,0.801c-0.533,0.35-1.05,0.757-1.55,1.221c-0.498,0.466-0.912,0.939-1.237,1.429
			c-0.325,0.488-0.544,0.964-0.66,1.428c-0.118,0.465-0.07,0.871,0.139,1.221c0.14,0.209,0.331,0.345,0.575,0.4
			c0.244,0.06,0.527,0.052,0.853-0.018c0.325-0.07,0.691-0.197,1.097-0.384c0.407-0.187,0.818-0.405,1.236-0.662
			C41.156,22.745,41.643,21.444,42.362,20.073z"/>
		<path fill="#388D3B" d="M54.59,18.367c-0.604,0.744-1.078,1.452-1.427,2.125c-0.349,0.675-0.576,1.284-0.679,1.829
			c-0.104,0.546-0.111,1-0.017,1.359c0.092,0.358,0.277,0.598,0.556,0.714c0.465,0.209,0.976,0.139,1.534-0.209
			c0.557-0.35,1.102-0.881,1.636-1.603c0.535-0.72,1.032-1.571,1.497-2.562c0.465-0.987,0.848-2.017,1.15-3.083
			c0.257-0.928,0.65-1.451,1.185-1.568c0.535-0.115,1.033,0.093,1.498,0.627c0.232,0.279,0.471,0.582,0.715,0.905
			c0.243,0.326,0.528,0.627,0.853,0.907c0.325,0.277,0.72,0.512,1.186,0.695c0.463,0.188,1.032,0.279,1.707,0.279
			c0.349,0,0.586,0.092,0.716,0.279c0.124,0.186,0.167,0.389,0.12,0.607c-0.047,0.223-0.187,0.426-0.418,0.609
			c-0.231,0.188-0.521,0.279-0.871,0.279c-0.882,0-1.724-0.116-2.524-0.35c-0.802-0.229-1.459-0.545-1.968-0.939
			c-0.674,1.811-1.442,3.396-2.301,4.756c-0.859,1.359-1.764,2.421-2.716,3.188c-0.953,0.769-1.916,1.207-2.893,1.323
			c-0.975,0.116-1.916-0.149-2.822-0.801c-0.626-0.465-1.051-1.109-1.27-1.934c-0.222-0.823-0.245-1.726-0.071-2.7
			c0.174-0.977,0.553-1.986,1.133-3.031s1.358-2.031,2.334-2.961c0.509-0.486,0.985-0.788,1.427-0.905
			c0.441-0.117,0.786-0.098,1.028,0.053c0.245,0.15,0.359,0.412,0.348,0.782C55.224,17.414,55.01,17.856,54.59,18.367z"/>
		<path fill="#388D3B" d="M67.237,16.103c0.743-0.396,1.451-0.641,2.125-0.732c0.673-0.092,1.281-0.063,1.83,0.087
			c0.545,0.152,1.021,0.396,1.43,0.733c0.404,0.336,0.729,0.725,0.958,1.166c0.51,0.976,0.604,1.881,0.276,2.717
			c-0.326,0.837-0.889,1.504-1.688,2.004c-0.8,0.499-1.747,0.772-2.838,0.818c-1.093,0.046-2.16-0.245-3.205-0.871
			c-0.048,0.396-0.02,0.784,0.086,1.167c0.105,0.383,0.308,0.738,0.61,1.063c0.465,0.487,1.028,0.809,1.689,0.958
			c0.662,0.152,1.364,0.157,2.108,0.02c0.742-0.142,1.49-0.413,2.246-0.819c0.756-0.406,1.445-0.935,2.072-1.585
			c0.303-0.301,0.604-0.471,0.907-0.506c0.302-0.033,0.533,0.023,0.697,0.174c0.161,0.151,0.226,0.372,0.19,0.663
			c-0.037,0.291-0.215,0.598-0.541,0.923c-1.187,1.186-2.353,2.143-3.5,2.873c-1.149,0.733-2.248,1.232-3.292,1.499
			c-1.046,0.268-2.01,0.31-2.894,0.121c-0.881-0.186-1.648-0.603-2.297-1.253c-0.675-0.697-1.087-1.568-1.237-2.614
			c-0.151-1.045-0.076-2.119,0.226-3.222c0.301-1.104,0.796-2.145,1.48-3.118C65.361,17.391,66.214,16.636,67.237,16.103z
			 M68.667,18.367c-0.651,0.348-1.208,0.87-1.673,1.568c0.51,0.326,1.045,0.517,1.602,0.575c0.558,0.059,1.05,0.021,1.479-0.104
			c0.431-0.127,0.772-0.336,1.028-0.627s0.336-0.621,0.244-0.993c-0.095-0.371-0.406-0.627-0.939-0.766
			C69.873,17.879,69.292,17.995,68.667,18.367z"/>
		<path fill="#388D3B" d="M87.688,5.999c1.068,0,1.777,0.465,2.125,1.395c0.351,0.93,0.211,2.179-0.418,3.745
			c-0.625,1.566-1.807,3.401-3.537,5.505c-1.729,2.103-4.125,4.313-7.191,6.636c0.118,0.466,0.277,0.813,0.486,1.045
			c0.396,0.511,0.871,0.801,1.43,0.871c0.561,0.069,1.128,0,1.708-0.209c0.581-0.209,1.153-0.516,1.728-0.922
			c0.567-0.406,1.071-0.819,1.516-1.237c0.371-0.371,0.701-0.575,0.994-0.608c0.287-0.034,0.504,0.033,0.645,0.21
			c0.139,0.174,0.184,0.417,0.139,0.73c-0.047,0.313-0.22,0.622-0.521,0.923c-1.254,1.253-2.403,2.225-3.449,2.908
			c-1.046,0.688-1.999,1.15-2.856,1.395c-0.858,0.243-1.639,0.284-2.334,0.121c-0.694-0.16-1.313-0.464-1.846-0.904
			c-0.722-0.604-1.18-1.47-1.378-2.596c-0.196-1.127-0.063-2.489,0.4-4.094c0.231-0.813,0.598-1.748,1.097-2.805
			c0.5-1.059,1.094-2.137,1.775-3.24c0.688-1.103,1.424-2.188,2.216-3.257c0.787-1.068,1.604-2.014,2.453-2.838
			c0.85-0.826,1.687-1.493,2.509-2.004C86.195,6.255,86.967,5.999,87.688,5.999z M86.466,10.041
			c-0.185-0.14-0.479-0.081-0.887,0.174c-0.406,0.257-0.866,0.65-1.376,1.186c-0.512,0.534-1.053,1.185-1.621,1.95
			c-0.568,0.767-1.113,1.581-1.637,2.438c-0.523,0.861-0.982,1.737-1.377,2.632c-0.396,0.896-0.674,1.748-0.836,2.562
			c0.976-0.837,1.983-1.823,3.031-2.96c1.045-1.14,1.967-2.253,2.77-3.347c0.803-1.092,1.398-2.065,1.794-2.927
			C86.723,10.889,86.768,10.319,86.466,10.041z"/>
		<path fill="#388D3B" d="M101.482,9.134c-0.465,0.885-1.094,1.859-1.881,2.929c-0.791,1.067-1.728,2.188-2.808,3.36
			c-1.082,1.175-2.294,2.382-3.646,3.623c-1.346,1.243-2.809,2.491-4.387,3.745c-0.117,0.65-0.164,1.228-0.14,1.728
			c0.022,0.499,0.163,0.897,0.417,1.201c0.396,0.512,0.906,0.73,1.534,0.66c0.626-0.067,1.276-0.296,1.95-0.678
			c0.672-0.384,1.328-0.854,1.969-1.413c0.637-0.557,1.178-1.044,1.619-1.463c0.371-0.371,0.701-0.575,0.992-0.609
			c0.291-0.033,0.506,0.034,0.646,0.211c0.138,0.174,0.187,0.417,0.138,0.73c-0.045,0.313-0.222,0.622-0.521,0.923
			c-2.507,2.508-4.728,4.174-6.654,4.999c-1.928,0.824-3.438,0.795-4.528-0.087c-0.349-0.302-0.604-0.744-0.768-1.324
			c-0.163-0.581-0.25-1.235-0.262-1.967c-0.01-0.732,0.053-1.511,0.193-2.335c0.137-0.824,0.322-1.643,0.559-2.456
			c0.371-1.275,0.893-2.631,1.566-4.059c0.672-1.431,1.445-2.822,2.314-4.183c0.87-1.357,1.8-2.624,2.786-3.797
			c0.985-1.172,1.989-2.144,3.014-2.909c1.142-0.883,2.188-1.417,3.153-1.603c0.963-0.188,1.729-0.105,2.299,0.243
			c0.568,0.348,0.909,0.924,1.023,1.725C102.189,7.131,101.994,8.066,101.482,9.134z M98.382,7.672
			c-0.233-0.163-0.559-0.123-0.975,0.122c-0.421,0.243-0.878,0.641-1.378,1.186c-0.5,0.546-1.033,1.213-1.604,2.003
			c-0.567,0.789-1.124,1.644-1.67,2.56c-0.546,0.919-1.075,1.869-1.585,2.857c-0.513,0.987-0.953,1.957-1.324,2.908
			c0.721-0.721,1.475-1.479,2.264-2.281c0.791-0.801,1.549-1.604,2.269-2.404c0.722-0.8,1.38-1.58,1.983-2.333
			c0.604-0.754,1.104-1.439,1.496-2.056c0.396-0.615,0.646-1.15,0.75-1.604C98.712,8.177,98.637,7.857,98.382,7.672z"/>
		<path fill="#388D3B" d="M100.159,17.042c0.997-0.533,1.909-0.821,2.733-0.871c0.821-0.046,1.524,0.07,2.106,0.351
			c0.581,0.277,1.021,0.685,1.323,1.22c0.303,0.534,0.434,1.121,0.398,1.759c-0.035,0.642-0.269,1.289-0.695,1.951
			c-0.432,0.662-1.073,1.26-1.938,1.794c-0.58,0.349-1.222,0.626-1.934,0.836c-0.709,0.208-1.469,0.302-2.279,0.277
			c0.371,0.558,0.893,0.919,1.566,1.081c0.672,0.163,1.396,0.163,2.177,0c0.778-0.161,1.567-0.47,2.37-0.922
			c0.801-0.453,1.535-1.018,2.211-1.69c0.303-0.301,0.605-0.471,0.904-0.506c0.304-0.033,0.535,0.022,0.696,0.174
			c0.163,0.151,0.228,0.372,0.19,0.663c-0.033,0.291-0.217,0.598-0.539,0.923c-0.323,0.326-0.771,0.748-1.344,1.271
			c-0.566,0.521-1.219,1.025-1.949,1.516c-0.729,0.487-1.531,0.905-2.402,1.254c-0.869,0.35-1.781,0.522-2.732,0.522
			c-1.16,0-2.107-0.224-2.84-0.662c-0.729-0.441-1.277-1.018-1.64-1.727c-0.358-0.708-0.538-1.499-0.538-2.368
			c0-0.871,0.16-1.735,0.486-2.597c0.322-0.856,0.795-1.666,1.408-2.422C98.525,18.117,99.277,17.507,100.159,17.042z
			 M101.585,19.307c-0.535,0.324-1.009,0.762-1.427,1.308c-0.418,0.546-0.674,1.155-0.768,1.828
			c0.721,0.095,1.395,0.048,2.021-0.138c0.628-0.188,1.157-0.467,1.604-0.837c0.482-0.42,0.786-0.823,0.903-1.221
			c0.113-0.396,0.089-0.715-0.067-0.958c-0.164-0.245-0.441-0.384-0.836-0.419C102.62,18.837,102.143,18.982,101.585,19.307z"/>
		<path fill="#388D3B" d="M108.205,22.826c0.744-0.742,1.365-1.538,1.865-2.385c0.496-0.848,0.91-1.645,1.236-2.387
			c-0.441-0.396-0.69-0.925-0.752-1.585c-0.058-0.662,0.088-1.354,0.438-2.074c0.254-0.533,0.613-0.875,1.076-1.027
			c0.468-0.148,0.877-0.116,1.238,0.104c0.358,0.221,0.586,0.64,0.678,1.254c0.097,0.614-0.092,1.423-0.557,2.421
			c0.372,0.14,0.744,0.25,1.115,0.331c0.37,0.083,0.74,0.146,1.111,0.19c0.396,0.07,0.697,0.197,0.906,0.385
			s0.334,0.418,0.367,0.694c0.033,0.279,0,0.582-0.104,0.906c-0.104,0.326-0.264,0.65-0.473,0.975
			c-0.254,0.396-0.484,0.814-0.697,1.257c-0.209,0.44-0.371,0.87-0.485,1.287c-0.116,0.417-0.174,0.79-0.174,1.114
			c0,0.326,0.081,0.569,0.241,0.732c0.396,0.395,0.986,0.389,1.777-0.019c0.791-0.404,1.707-1.133,2.754-2.178
			c0.275-0.279,0.539-0.413,0.783-0.4c0.242,0.015,0.439,0.101,0.59,0.265c0.152,0.162,0.229,0.376,0.229,0.644
			c0,0.269-0.115,0.519-0.351,0.749c-0.254,0.255-0.586,0.633-0.992,1.131c-0.406,0.5-0.889,1-1.443,1.499
			c-0.561,0.499-1.197,0.94-1.916,1.324c-0.721,0.384-1.512,0.574-2.371,0.574c-0.718,0-1.314-0.18-1.794-0.54
			c-0.476-0.36-0.793-0.866-0.958-1.515c-0.158-0.65-0.158-1.412,0-2.282c0.165-0.871,0.535-1.83,1.114-2.875
			c0.258-0.418,0.44-0.802,0.562-1.149c0.113-0.349,0.125-0.638,0.033-0.871c-0.093-0.186-0.279-0.349-0.561-0.486
			c-0.188,0.44-0.403,0.905-0.658,1.394c-0.258,0.488-0.529,0.97-0.82,1.446s-0.589,0.917-0.89,1.325
			c-0.304,0.404-0.593,0.748-0.87,1.025c-0.208,0.208-0.436,0.302-0.682,0.277c-0.242-0.022-0.439-0.109-0.592-0.261
			c-0.146-0.15-0.236-0.35-0.262-0.594C107.902,23.261,107.996,23.035,108.205,22.826z"/>
	</g>
	<path fill="#FFFFFF" d="M52.467,45.626c-0.412-0.043-0.593-0.259-0.555-0.644c0.012-0.126,0.05-0.236,0.104-0.332
		c0.053-0.095,0.125-0.137,0.213-0.129c0.047,0.005,0.136,0.021,0.267,0.042c0.237,0.046,0.431,0.079,0.577,0.094
		c0.123,0.013,0.479-0.004,1.067-0.049c0.47-0.037,0.761-0.052,0.878-0.047c0.191,0.005,0.509-0.024,0.952-0.096
		c0.276-0.037,0.443-0.055,0.502-0.051c0.097,0.014,0.171,0.063,0.216,0.15c0.047,0.088,0.064,0.202,0.047,0.343
		c-0.015,0.166-0.05,0.299-0.109,0.403c-0.055,0.102-0.12,0.151-0.2,0.149c-0.055-0.002-0.199,0.003-0.429,0.015
		c-0.477,0.027-0.841,0.038-1.093,0.028c-0.163,0.001-0.471,0.021-0.93,0.065C53.262,45.642,52.757,45.66,52.467,45.626z"/>
	<path fill="#FFFFFF" d="M61.372,45.609c-0.409-0.046-0.589-0.263-0.546-0.648c0.014-0.126,0.05-0.234,0.107-0.33
		c0.055-0.095,0.125-0.135,0.214-0.127c0.047,0.009,0.136,0.022,0.267,0.044c0.235,0.05,0.429,0.083,0.576,0.102
		c0.123,0.014,0.48,0,1.067-0.04c0.47-0.032,0.762-0.045,0.878-0.04c0.19,0.008,0.508-0.021,0.954-0.084
		c0.275-0.037,0.442-0.052,0.503-0.047c0.097,0.013,0.17,0.062,0.213,0.149c0.047,0.091,0.064,0.203,0.045,0.345
		c-0.017,0.165-0.054,0.298-0.111,0.399c-0.057,0.103-0.125,0.152-0.204,0.15c-0.056-0.001-0.201,0-0.428,0.01
		c-0.479,0.025-0.843,0.03-1.092,0.021c-0.164-0.001-0.473,0.016-0.931,0.056C62.169,45.632,61.665,45.646,61.372,45.609z"/>
	<path fill="#FFFFFF" d="M55.354,63.162c-0.243,0.304-0.566,0.311-0.712-0.049c-0.049-0.117-0.123-0.246-0.066-0.342
		c1.424-2.336,3.391-2.252,4.078-2.286c0.099-0.004,0.152,0.146,0.203,0.28c0.063,0.152,0.098,0.287,0.094,0.404
		c0,0.116-0.033,0.193-0.104,0.229C58.796,61.424,57.1,60.96,55.354,63.162z"/>
	<path fill="#FFFFFF" d="M74.225,57.971c0.276-0.274,0.596-0.241,0.703,0.132c0.034,0.123,0.092,0.26,0.024,0.347
		c-1.681,2.156-3.628,1.847-4.313,1.801c-0.099-0.007-0.133-0.164-0.168-0.302c-0.047-0.159-0.063-0.296-0.047-0.414
		c0.014-0.116,0.055-0.188,0.131-0.216C70.605,59.302,72.236,59.958,74.225,57.971z"/>
	<path fill="#FFFFFF" d="M70.206,45.408c-0.076-0.026-0.118-0.1-0.131-0.215c-0.017-0.118,0-0.255,0.047-0.415
		c0.036-0.137,0.069-0.295,0.17-0.302c0.685-0.045,2.631-0.355,4.312,1.801c0.068,0.088,0.01,0.225-0.022,0.347
		c-0.104,0.373-0.429,0.407-0.702,0.13C71.887,44.77,70.257,45.427,70.206,45.408z"/>
	<path fill="#FFFFFF" d="M62.075,61.429c-0.412-0.048-0.591-0.265-0.548-0.648c0.013-0.125,0.05-0.236,0.108-0.329
		c0.054-0.096,0.124-0.136,0.213-0.128c0.047,0.007,0.136,0.022,0.267,0.043c0.234,0.049,0.429,0.084,0.575,0.1
		c0.123,0.017,0.481,0,1.067-0.038c0.47-0.032,0.763-0.047,0.879-0.04c0.192,0.008,0.508-0.021,0.953-0.084
		c0.277-0.037,0.444-0.054,0.504-0.048c0.097,0.014,0.17,0.063,0.214,0.152c0.046,0.088,0.062,0.202,0.043,0.342
		c-0.017,0.165-0.054,0.298-0.112,0.401c-0.055,0.102-0.122,0.152-0.202,0.149c-0.055-0.003-0.199,0.001-0.429,0.01
		c-0.478,0.023-0.84,0.028-1.093,0.021c-0.163-0.001-0.471,0.017-0.929,0.057C62.87,61.452,62.365,61.466,62.075,61.429z"/>
	<path fill="#FFFFFF" d="M76.587,50.233c0.047-0.41,0.265-0.589,0.649-0.545c0.125,0.012,0.234,0.049,0.33,0.105
		s0.136,0.124,0.127,0.216c-0.008,0.046-0.021,0.135-0.045,0.266c-0.049,0.235-0.082,0.43-0.101,0.576
		c-0.014,0.123,0,0.479,0.041,1.065c0.032,0.472,0.048,0.765,0.039,0.879c-0.007,0.19,0.021,0.511,0.086,0.953
		c0.036,0.277,0.054,0.444,0.048,0.505c-0.016,0.098-0.064,0.169-0.15,0.215c-0.092,0.046-0.204,0.063-0.346,0.044
		c-0.164-0.019-0.3-0.056-0.402-0.113c-0.102-0.056-0.15-0.123-0.147-0.202c0.001-0.055-0.001-0.199-0.01-0.428
		c-0.024-0.479-0.03-0.841-0.021-1.091c0-0.164-0.019-0.475-0.059-0.933C76.564,51.03,76.55,50.524,76.587,50.233z"/>
	<path fill="#FFFFFF" d="M52.319,67.039c0.046-0.41,0.264-0.59,0.647-0.546c0.126,0.013,0.237,0.049,0.331,0.107
		c0.096,0.054,0.136,0.124,0.127,0.213c-0.007,0.046-0.021,0.135-0.045,0.268c-0.048,0.234-0.083,0.431-0.099,0.575
		c-0.014,0.122,0,0.479,0.04,1.066c0.033,0.47,0.045,0.763,0.038,0.88c-0.005,0.188,0.021,0.507,0.086,0.953
		c0.038,0.274,0.053,0.44,0.047,0.504c-0.014,0.097-0.063,0.17-0.152,0.213c-0.09,0.047-0.203,0.063-0.343,0.044
		c-0.165-0.019-0.3-0.053-0.404-0.113c-0.101-0.056-0.151-0.123-0.147-0.202c0.001-0.055-0.002-0.197-0.009-0.429
		c-0.026-0.478-0.032-0.84-0.021-1.091c0-0.165-0.018-0.476-0.058-0.934C52.295,67.835,52.282,67.331,52.319,67.039z"/>
	<path fill="#FFFFFF" d="M52.319,75.307c0.046-0.41,0.264-0.589,0.647-0.546c0.126,0.014,0.237,0.05,0.331,0.105
		c0.096,0.055,0.136,0.125,0.127,0.214c-0.007,0.047-0.021,0.135-0.045,0.268c-0.048,0.234-0.083,0.431-0.099,0.575
		c-0.014,0.123,0,0.479,0.04,1.067c0.033,0.469,0.045,0.763,0.038,0.879c-0.005,0.19,0.021,0.508,0.086,0.952
		c0.038,0.276,0.053,0.443,0.047,0.505c-0.014,0.096-0.063,0.168-0.152,0.213c-0.09,0.045-0.203,0.063-0.343,0.043
		c-0.165-0.018-0.3-0.054-0.404-0.11c-0.101-0.059-0.151-0.124-0.147-0.203c0.001-0.057-0.002-0.198-0.009-0.43
		c-0.026-0.476-0.032-0.84-0.021-1.09c0-0.163-0.018-0.473-0.058-0.931C52.295,76.104,52.282,75.6,52.319,75.307z"/>
</g>
<path opacity="0.8" fill="#FFFFFF" enable-background="new    " d="M33.221,94.583c-11.044,0-20,8.954-20,20.001
	c0,11.045,8.956,19.999,20,19.999s20-8.954,20-19.999C53.223,103.537,44.266,94.583,33.221,94.583z M45.117,109.873
	c-0.203,9.58-6.243,16.236-15.401,16.654c-3.755,0.213-6.458-1.038-8.959-2.492c2.703,0.416,6.254-0.631,8.123-2.297
	c-2.705-0.204-4.37-1.658-5.206-3.956c0.835,0.214,1.668,0,2.287,0c-2.501-0.832-4.155-2.289-4.369-5.622
	c0.63,0.418,1.452,0.63,2.284,0.63c-1.869-1.046-3.119-5.003-1.654-7.504c2.703,2.917,6.028,5.419,11.447,5.835
	c-1.452-5.835,6.456-8.957,9.578-5.001c1.454-0.202,2.501-0.833,3.538-1.24c-0.416,1.453-1.25,2.288-2.286,3.121
	c1.037-0.214,2.084-0.416,2.917-0.833C47.202,108.204,46.165,109.04,45.117,109.873z"/>
<path opacity="0.8" fill="#FFFFFF" enable-background="new    " d="M33.222,142.207c-11.046,0-20,8.955-20,20
	c0,11.046,8.953,20,20,20c11.047,0,20-8.954,20-20C53.223,151.162,44.27,142.207,33.222,142.207z M38.38,156h-2.722
	c-0.693,0-1.278,0.563-1.278,1.296V158h3.778l-0.597,4H34.38v10h-3v-10h-3v-4h3v-1h-0.665c0.066-3,1.665-4.553,4.665-4.683V152h3
	V156z"/>
<g opacity="0.8">
	<path fill="#FFFFFF" d="M44.349,202.077c0-2.804-2.273-5.077-5.077-5.077H26.426c-2.804,0-5.077,2.273-5.077,5.077v12.846
		c0,2.806,2.273,5.077,5.077,5.077h12.846c2.804,0,5.077-2.271,5.077-5.077V202.077z M33.222,216.042
		c-3.853,0-6.987-3.135-6.987-6.986c0-3.853,3.134-6.988,6.987-6.988c3.854,0,6.987,3.136,6.987,6.988
		C40.208,212.906,37.076,216.042,33.222,216.042z M41.75,203.04c-0.329,0.328-0.783,0.517-1.248,0.517s-0.92-0.188-1.247-0.517
		c-0.329-0.33-0.519-0.785-0.519-1.249c0-0.465,0.189-0.92,0.519-1.248c0.327-0.329,0.782-0.517,1.247-0.517
		c0.464,0,0.92,0.188,1.248,0.517c0.328,0.327,0.516,0.782,0.516,1.248C42.266,202.254,42.079,202.709,41.75,203.04z"/>
	<path fill="#FFFFFF" d="M33.222,189.054c-11.044,0-20,8.952-20,20c0,11.044,8.956,20,20,20s20-8.956,20-20
		C53.223,198.007,44.266,189.054,33.222,189.054z M46.349,214.517c0,4.133-3.35,7.481-7.482,7.481H26.831
		c-4.132,0.001-7.482-3.349-7.482-7.481v-12.034c0-4.133,3.35-7.483,7.482-7.483h12.036c4.132,0,7.482,3.351,7.482,7.483V214.517z"
		/>
	<path fill="#FFFFFF" d="M33.222,204.472c-2.526,0-4.581,2.055-4.581,4.582c0,2.525,2.055,4.581,4.581,4.581
		c2.526,0,4.583-2.055,4.583-4.581C37.805,206.527,35.748,204.472,33.222,204.472z"/>
</g>
<g opacity="0.8">
	<path fill="#FFFFFF" d="M31.436,244.763c-4.894,0-8.881,3.979-8.881,8.879c0,4.898,3.987,8.883,8.881,8.883
		c4.9,0,8.88-3.988,8.88-8.883C40.315,248.747,36.335,244.763,31.436,244.763z"/>
	<path fill="#FFFFFF" d="M33.222,235.425c-11.046,0-20,8.954-20,19.999c0,11.049,8.954,20.001,20,20.001
		c11.045,0,20-8.952,20-20.001C53.222,244.379,44.267,235.425,33.222,235.425z M45.124,267.324c-0.14,0.146-0.327,0.214-0.51,0.214
		c-0.184,0-0.371-0.074-0.511-0.214l-5.887-5.889c-1.817,1.58-4.186,2.534-6.775,2.534c-5.693,0-10.329-4.637-10.329-10.329
		c0-5.694,4.631-10.331,10.329-10.331c5.695,0,10.331,4.63,10.331,10.331c0,2.59-0.956,4.958-2.536,6.771l5.888,5.893
		C45.402,266.583,45.402,267.044,45.124,267.324z"/>
</g>
<g>
	<path fill="#505050" d="M43.48,309.727l-6.318-6.317c1.695-1.949,2.721-4.491,2.721-7.271c0-6.117-4.975-11.086-11.086-11.086
		c-6.117,0-11.086,4.975-11.086,11.086c0,6.109,4.975,11.086,11.086,11.086c2.779,0,5.321-1.025,7.27-2.724l6.319,6.317
		c0.15,0.15,0.351,0.231,0.547,0.231c0.196,0,0.398-0.075,0.548-0.231C43.779,310.521,43.779,310.025,43.48,309.727z
		 M19.261,296.139c0-5.26,4.278-9.529,9.529-9.529c5.257,0,9.529,4.277,9.529,9.529s-4.272,9.533-9.529,9.533
		C23.539,305.674,19.261,301.396,19.261,296.139z"/>
</g>
<path fill="#505050" d="M24.69,323.165c-0.532-0.056-0.767-0.334-0.717-0.83c0.016-0.164,0.063-0.308,0.135-0.431
	c0.069-0.123,0.161-0.178,0.275-0.166c0.062,0.007,0.176,0.025,0.346,0.056c0.306,0.06,0.558,0.103,0.746,0.12
	c0.158,0.02,0.62-0.006,1.38-0.063c0.607-0.047,0.984-0.067,1.135-0.063c0.247,0.009,0.657-0.028,1.232-0.119
	c0.355-0.052,0.572-0.071,0.648-0.065c0.126,0.017,0.221,0.078,0.279,0.193c0.062,0.112,0.083,0.262,0.062,0.441
	c-0.02,0.214-0.065,0.388-0.142,0.521c-0.071,0.131-0.156,0.195-0.258,0.193c-0.071-0.003-0.258,0.005-0.556,0.02
	c-0.616,0.037-1.087,0.049-1.412,0.039c-0.211,0-0.609,0.023-1.202,0.084C25.718,323.186,25.065,323.211,24.69,323.165z"/>
<g>
	<path fill="#E9592D" d="M12.098,363.055c-1.1-0.104-1.585-0.834-1.456-2.199c0.039-0.444,0.136-0.838,0.285-1.18
		c0.15-0.34,0.346-0.498,0.584-0.479c0.12,0.014,0.356,0.051,0.713,0.111c0.636,0.129,1.154,0.215,1.546,0.25
		c0.33,0.028,1.286-0.074,2.868-0.314c1.261-0.188,2.044-0.286,2.357-0.286c0.521,0,1.374-0.149,2.565-0.446
		c0.738-0.182,1.191-0.263,1.351-0.246c0.263,0.021,0.455,0.188,0.579,0.493c0.122,0.308,0.159,0.706,0.113,1.199
		c-0.056,0.585-0.158,1.062-0.31,1.431s-0.333,0.559-0.546,0.568c-0.15-0.004-0.534,0.027-1.148,0.102
		c-1.286,0.161-2.264,0.244-2.934,0.252c-0.439,0.018-1.274,0.131-2.501,0.346C14.235,362.994,12.881,363.132,12.098,363.055z"/>
	<path fill="#E9592D" d="M28.064,335.348c0.104-1.104,0.834-1.584,2.2-1.455c0.444,0.039,0.838,0.135,1.178,0.282
		c0.341,0.148,0.498,0.349,0.477,0.584c-0.011,0.122-0.05,0.356-0.111,0.714c-0.129,0.637-0.215,1.152-0.251,1.547
		c-0.028,0.33,0.075,1.287,0.315,2.867c0.19,1.26,0.287,2.045,0.287,2.354c0,0.522,0.15,1.376,0.448,2.565
		c0.179,0.737,0.262,1.189,0.247,1.35c-0.025,0.268-0.19,0.455-0.494,0.58c-0.308,0.123-0.706,0.158-1.2,0.111
		c-0.584-0.054-1.061-0.156-1.43-0.311c-0.369-0.152-0.559-0.333-0.569-0.548c0.003-0.148-0.029-0.532-0.101-1.146
		c-0.161-1.286-0.244-2.266-0.25-2.936c-0.018-0.439-0.133-1.273-0.348-2.503C28.125,337.484,27.989,336.133,28.064,335.348z"/>
	<path fill="#E9592D" d="M30.868,379.33c0.215-1.225,0.33-2.061,0.348-2.5c0.007-0.67,0.089-1.646,0.25-2.936
		c0.072-0.611,0.104-0.996,0.101-1.146c0.011-0.215,0.201-0.394,0.569-0.548c0.369-0.148,0.846-0.254,1.43-0.309
		c0.494-0.047,0.892-0.011,1.2,0.11c0.304,0.125,0.469,0.313,0.494,0.578c0.015,0.157-0.068,0.612-0.247,1.354
		c-0.297,1.188-0.448,2.041-0.448,2.563c0,0.313-0.097,1.098-0.287,2.357c-0.24,1.58-0.344,2.537-0.315,2.865
		c0.036,0.395,0.122,0.91,0.251,1.549c0.061,0.354,0.1,0.59,0.111,0.713c0.021,0.235-0.136,0.434-0.477,0.584
		c-0.34,0.146-0.734,0.244-1.178,0.283c-1.365,0.129-2.096-0.355-2.2-1.455C30.395,382.611,30.531,381.26,30.868,379.33z"/>
	<path fill="#E9592D" d="M14.595,344.818c-0.704-0.853-0.53-1.713,0.525-2.586c0.342-0.287,0.69-0.498,1.036-0.631
		c0.347-0.137,0.596-0.107,0.75,0.074c0.077,0.094,0.217,0.286,0.424,0.581c0.358,0.541,0.665,0.972,0.916,1.271
		c0.213,0.255,0.964,0.855,2.251,1.807c1.026,0.758,1.648,1.243,1.87,1.464c0.367,0.367,1.077,0.865,2.13,1.497
		c0.648,0.396,1.028,0.657,1.13,0.779c0.168,0.203,0.187,0.458,0.059,0.761c-0.132,0.306-0.387,0.61-0.769,0.929
		c-0.453,0.372-0.861,0.639-1.23,0.793c-0.369,0.152-0.63,0.159-0.788,0.018c-0.104-0.109-0.398-0.356-0.883-0.742
		c-1.022-0.795-1.773-1.43-2.251-1.896c-0.324-0.297-0.994-0.808-2.015-1.521C16.15,346.284,15.095,345.426,14.595,344.818z"/>
	<path fill="#E9592D" d="M20.025,372.703c1.021-0.717,1.691-1.227,2.015-1.521c0.479-0.469,1.229-1.104,2.251-1.897
		c0.486-0.384,0.779-0.632,0.883-0.742c0.158-0.144,0.419-0.136,0.788,0.021c0.369,0.153,0.777,0.42,1.231,0.793
		c0.381,0.313,0.636,0.623,0.768,0.928c0.127,0.301,0.109,0.556-0.059,0.76c-0.102,0.121-0.482,0.385-1.13,0.78
		c-1.053,0.631-1.762,1.129-2.13,1.497c-0.222,0.219-0.843,0.707-1.87,1.463c-1.288,0.949-2.038,1.551-2.251,1.807
		c-0.251,0.301-0.557,0.729-0.916,1.271c-0.208,0.294-0.347,0.486-0.424,0.58c-0.154,0.183-0.403,0.211-0.75,0.074
		c-0.346-0.133-0.693-0.344-1.036-0.631c-1.055-0.873-1.229-1.732-0.525-2.586C17.37,374.688,18.425,373.828,20.025,372.703z"/>
</g>
<g>
	<path fill="#388E3B" d="M27.63,492.448c-3.859,0-7,3.142-7,7.003c0,3.857,3.141,7,7,7c3.86,0,7.002-3.143,7.002-7
		C34.632,495.59,31.491,492.448,27.63,492.448z"/>
	<path fill="#388E3B" d="M42.336,489.531H37.36l-2.334-5.835H20.233l-2.334,5.835h-0.771v-2.918h-3.5v2.918h-0.701
		c-1.545,0-2.799,1.256-2.799,2.801v17.137c0,1.557,1.264,2.816,2.817,2.816h29.367c1.556,0,2.82-1.266,2.82-2.816v-17.137
		C45.134,490.787,43.878,489.531,42.336,489.531z M15.962,489.531h-1.168v-1.751h1.168V489.531z M27.63,509.953
		c-5.789,0-10.502-4.714-10.502-10.502c0-5.793,4.713-10.503,10.502-10.503c5.793,0,10.504,4.712,10.504,10.503
		C38.134,505.239,33.423,509.953,27.63,509.953z M40.468,496.533c-1.289,0-2.334-1.047-2.334-2.334s1.045-2.335,2.334-2.335
		c1.285,0,2.332,1.048,2.332,2.335S41.753,496.533,40.468,496.533z"/>
</g>
<g>
	<path fill="#388E3B" d="M27.633,440.607c-9.441,0-17.123,7.68-17.123,17.12c0,3.494,1.049,6.855,3.029,9.726
		c0.35,0.512,0.928,0.813,1.545,0.813h6.733l8.472,2.514v3.444c0,0.75,0.606,1.355,1.354,1.355c0.75,0,1.361-0.605,1.361-1.355
		v-4.665l4.307-8.15c4.963-0.271,6.707-2.104,7.023-2.496c0.27-0.334,0.416-0.75,0.416-1.178
		C44.754,448.287,37.07,440.607,27.633,440.607z M18.854,459.968c-0.805,0-1.453-0.648-1.453-1.452c0-0.803,0.648-1.454,1.453-1.454
		c0.806,0,1.453,0.651,1.453,1.454C20.307,459.319,19.659,459.968,18.854,459.968z M30.719,468.066l-7.105-2.104
		c0.015-0.031,0.021-0.063,0.029-0.098c0.711-2.525,1.732-4.996,5.646-4.996c0.539,0,1.129,0.054,1.746,0.146
		c1.118,0.174,2.194,0.292,3.215,0.354L30.719,468.066z"/>
</g>
<g>
	<g>
		<g>
			<path fill="#388E3B" d="M102.799,95.213c0-3.575-2.896-6.485-6.475-6.485c-3.579,0-6.477,2.91-6.477,6.485v14.572
				c-1.363,1.553-2.092,3.521-2.092,5.59c0,4.725,3.836,8.564,8.561,8.564c4.723,0,8.563-3.844,8.563-8.564
				c0-2.065-0.717-4.035-2.079-5.59L102.799,95.213L102.799,95.213z M96.311,121.638c-3.451,0-6.259-2.81-6.259-6.265
				c0-1.633,0.618-3.174,1.749-4.344c0.208-0.213,0.32-0.5,0.32-0.799V95.211c0-2.309,1.867-4.188,4.175-4.188
				s4.174,1.877,4.174,4.188v15.021c0,0.299,0.13,0.586,0.339,0.799c1.131,1.172,1.76,2.715,1.76,4.344
				C102.566,118.831,99.768,121.638,96.311,121.638z"/>
			<path fill="#388E3B" d="M98.255,111.706v-5.274c0-1.063-0.871-1.919-1.933-1.919c-1.063,0-1.93,0.857-1.93,1.919v5.274
				c-1.25,0.687-2.146,2.031-2.146,3.58c0,2.242,1.814,4.063,4.063,4.063c2.241,0,4.07-1.818,4.07-4.063
				C100.386,113.737,99.505,112.39,98.255,111.706z"/>
			<path fill="#388E3B" d="M106.449,93.019h5.371c0.638,0,1.152-0.528,1.152-1.165c0-0.636-0.52-1.164-1.152-1.164h-5.371
				c-0.637,0-1.151,0.525-1.151,1.164C105.299,92.489,105.814,93.019,106.449,93.019z"/>
			<path fill="#388E3B" d="M111.82,96.085h-5.373c-0.633,0-1.148,0.5-1.148,1.139c0,0.636,0.516,1.138,1.148,1.138h5.373
				c0.636,0,1.152-0.502,1.152-1.138C112.971,96.585,112.455,96.085,111.82,96.085z"/>
			<path fill="#388E3B" d="M111.82,101.427h-5.373c-0.633,0-1.148,0.526-1.148,1.162c0,0.638,0.516,1.164,1.148,1.164h5.373
				c0.636,0,1.152-0.526,1.152-1.164C112.973,101.955,112.455,101.427,111.82,101.427z"/>
			<path fill="#388E3B" d="M111.82,106.823h-5.373c-0.633,0-1.148,0.502-1.148,1.137c0,0.641,0.516,1.14,1.148,1.14h5.373
				c0.636,0,1.152-0.499,1.152-1.14C112.971,107.325,112.455,106.823,111.82,106.823z"/>
		</g>
	</g>
</g>
<g>
	<path fill="#388E3B" d="M107.158,132.622c-1.858-1.834-4.326-2.823-6.938-2.788c-5.229,0.072-9.52,4.393-9.547,9.625
		c-0.012,1.564,0.342,3.061,1.047,4.441l4.562,7.642c0.729-1.019,1.896-1.731,3.534-1.731c1.568,0,2.718,0.647,3.449,1.6
		c0.236,0.133,0.457,0.279,0.654,0.453h0.326l4.748-7.959c0.695-1.365,1.049-2.84,1.049-4.385
		C110.043,136.906,109.017,134.457,107.158,132.622z"/>
	<path fill="#388E3B" d="M114.146,163.709l-4.877-10.316c-0.102-0.207-0.268-0.364-0.469-0.451l-2.43-1.078l-0.939,1.576
		l2.332,1.037l3.683,7.789l-4.234-1.887c-0.233-0.104-0.506-0.104-0.741,0l-6.109,2.723l-6.109-2.723
		c-0.234-0.104-0.506-0.104-0.74,0l-4.232,1.887l3.683-7.789l2.33-1.037l-0.94-1.576l-2.438,1.086
		c-0.195,0.089-0.359,0.246-0.453,0.443l-4.879,10.316c-0.162,0.348-0.097,0.756,0.172,1.029c0.271,0.271,0.678,0.352,1.022,0.195
		l6.108-2.723l6.11,2.723c0.235,0.104,0.508,0.104,0.744,0l6.11-2.723l6.107,2.723c0.121,0.053,0.246,0.078,0.371,0.078
		c0.236,0,0.479-0.098,0.65-0.272C114.242,164.465,114.31,164.055,114.146,163.709z"/>
	<path fill="#FFFFFF" d="M107.765,154.475l-2.334-1.037l-0.224,0.373c0.229,0.707,0.3,1.473,0.214,2.218
		c0.295,2.479-1.162,5.204-4.392,5.204c-2.47,0-3.894-1.598-4.302-3.457c-1.057-1.041-1.448-4.338-1.448-4.338l-2.332,1.037
		l-3.685,7.789l4.23-1.888c0.236-0.104,0.508-0.104,0.742,0l6.111,2.724l6.108-2.725c0.236-0.104,0.511-0.104,0.744,0l4.229,1.889
		L107.765,154.475z"/>
	<path fill="#388E3B" d="M110.043,139.518c0,1.545-0.354,3.019-1.049,4.384l-7.854,13.165c-0.237,0.402-0.627,0.445-0.785,0.445
		c-0.151,0-0.543-0.043-0.78-0.445l-7.854-13.165c-0.703-1.382-1.058-2.878-1.049-4.441c0.03-5.233,4.313-9.554,9.551-9.625
		c2.61-0.032,5.078,0.954,6.938,2.788C109.017,134.457,110.043,136.906,110.043,139.518z M104.524,139.518
		c0-2.297-1.87-4.166-4.17-4.166c-2.297,0-4.166,1.869-4.166,4.166c0,2.299,1.869,4.168,4.166,4.168
		C102.654,143.686,104.524,141.816,104.524,139.518z"/>
	<path fill="#FFFFFF" d="M100.354,137.176c1.293,0,2.343,1.053,2.343,2.344s-1.05,2.34-2.343,2.34c-1.289,0-2.34-1.049-2.34-2.34
		S99.065,137.176,100.354,137.176z"/>
</g>
<g>
	<g>
		<path fill="#388E3B" d="M108.369,174.339l-0.438,0.438v-0.438h-2.157c-0.976,1.503-3.024,2.542-5.412,2.542
			c-2.385,0-4.438-1.04-5.407-2.542h-2.158v0.438l-0.438-0.438l-7.76,7.766l4.242,4.249l3.955-3.957v19.782h15.138v-19.781
			l3.955,3.957l4.243-4.25L108.369,174.339z"/>
		<path fill="#388E3B" d="M107.928,203.923H92.793c-0.965,0-1.746-0.778-1.746-1.744V186.61l-0.978,0.978
			c-0.325,0.325-0.771,0.513-1.233,0.513l0,0c-0.461,0-0.903-0.188-1.23-0.513l-4.244-4.249c-0.686-0.682-0.686-1.783,0-2.469
			l7.762-7.766c0.379-0.379,0.928-0.563,1.451-0.498c0.074-0.009,0.146-0.016,0.225-0.016h2.156c0.594,0,1.145,0.302,1.467,0.798
			c0.688,1.062,2.23,1.744,3.941,1.744s3.262-0.685,3.946-1.744c0.319-0.496,0.874-0.798,1.464-0.798h2.159
			c0.071,0,0.146,0.006,0.222,0.016c0.07-0.009,0.146-0.016,0.219-0.016l0,0c0.465,0,0.904,0.188,1.232,0.514l7.76,7.764
			c0.688,0.682,0.688,1.785,0,2.468l-4.242,4.25c-0.324,0.325-0.771,0.513-1.229,0.513c-0.003,0-0.003,0-0.003,0
			c-0.463,0.001-0.905-0.188-1.23-0.512l-0.979-0.979v15.564C109.674,203.143,108.893,203.923,107.928,203.923z M94.537,200.434
			h11.646v-18.038c0-0.705,0.427-1.341,1.076-1.611c0.652-0.27,1.4-0.121,1.9,0.377l2.723,2.725l1.777-1.781l-5.584-5.587
			c-0.275,0.022-0.553-0.021-0.814-0.125c-0.184-0.075-0.35-0.182-0.486-0.31h-0.148c-1.439,1.589-3.75,2.541-6.266,2.541
			c-2.513,0-4.816-0.952-6.262-2.541h-0.146c-0.146,0.128-0.312,0.23-0.49,0.31c-0.266,0.104-0.545,0.146-0.815,0.125l-5.584,5.589
			l1.776,1.779l2.722-2.725c0.498-0.5,1.25-0.646,1.901-0.379c0.65,0.271,1.076,0.908,1.076,1.613v18.038H94.537z"/>
	</g>
</g>
<g>
	<g>
		<g>
			<g>
				<path fill="#388E3B" d="M93.896,228.149c-1.438,1.025-2.87,1.623-4.133,2.146c-1.191,0.494-2.226,0.926-2.894,1.594
					c-2.256,2.258-2.256,5.926,0,8.182c1.128,1.129,2.606,1.691,4.095,1.691c1.479,0,2.963-0.563,4.09-1.691
					c0.668-0.668,1.099-1.697,1.594-2.889c0.523-1.264,1.121-2.693,2.146-4.135c0.188-0.264,0.128-0.627-0.136-0.813
					c-0.264-0.187-0.626-0.125-0.813,0.137c-1.104,1.549-1.756,3.107-2.275,4.363c-0.447,1.076-0.838,2.006-1.342,2.512
					c-1.801,1.801-4.729,1.801-6.53,0c-1.804-1.801-1.804-4.729,0-6.531c0.505-0.506,1.438-0.893,2.515-1.342
					c1.256-0.52,2.813-1.17,4.361-2.273c0.264-0.188,0.32-0.553,0.137-0.813C94.521,228.024,94.158,227.962,93.896,228.149z"/>
				<path fill="#388E3B" d="M91.766,233.099c0.845-0.311,1.715-0.623,2.41-1.146c0.258-0.191,0.31-0.563,0.112-0.814
					c-0.19-0.26-0.562-0.313-0.813-0.115c-0.559,0.418-1.313,0.691-2.105,0.98c-1.031,0.373-2.1,0.766-2.855,1.521
					c-0.656,0.656-1.021,1.527-1.021,2.455c0,0.93,0.358,1.801,1.021,2.457c0.653,0.652,1.525,1.018,2.457,1.018
					c0.928,0,1.799-0.357,2.453-1.018c0.668-0.668,1.098-1.697,1.594-2.893c0.524-1.264,1.121-2.691,2.146-4.133
					c0.188-0.262,0.126-0.625-0.138-0.813c-0.263-0.189-0.625-0.127-0.813,0.135c-1.105,1.547-1.755,3.108-2.275,4.361
					c-0.444,1.076-0.836,2.01-1.342,2.514c-0.871,0.873-2.391,0.873-3.262,0c-0.898-0.898-0.898-2.361,0-3.262
					C89.911,233.772,90.813,233.444,91.766,233.099z"/>
				<path fill="#388E3B" d="M102.821,233.116l-8.992-8.992c-0.229-0.227-0.599-0.227-0.823,0c-0.229,0.229-0.229,0.6,0,0.826
					l9.006,9.002c0.035,0.035,3.469,3.332,1.901,6.982c-0.127,0.295,0.013,0.641,0.308,0.766c0.073,0.033,0.151,0.047,0.229,0.047
					c0.228,0,0.44-0.133,0.535-0.354C106.876,236.985,102.975,233.261,102.821,233.116z"/>
				<path fill="#388E3B" d="M100.297,233.872c-0.263-0.188-0.625-0.127-0.813,0.137c-1.045,1.465-1.571,2.811-2.034,3.994
					c-0.447,1.146-0.835,2.137-1.582,2.879c-2.702,2.703-7.099,2.703-9.802,0c-1.311-1.309-2.029-3.049-2.029-4.898
					c0-1.851,0.723-3.59,2.029-4.898c0.746-0.748,1.734-1.135,2.879-1.582c1.189-0.463,2.533-0.986,3.994-2.031
					c0.265-0.189,0.324-0.555,0.138-0.814c-0.188-0.264-0.554-0.322-0.813-0.137c-1.345,0.961-2.619,1.459-3.74,1.896
					c-1.217,0.477-2.357,0.924-3.277,1.846c-1.527,1.525-2.372,3.563-2.372,5.727c0,2.162,0.845,4.195,2.372,5.729
					c1.577,1.575,3.648,2.364,5.729,2.364c2.069,0,4.146-0.789,5.728-2.364c0.918-0.923,1.367-2.064,1.842-3.278
					c0.438-1.125,0.938-2.398,1.898-3.744C100.62,234.423,100.559,234.06,100.297,233.872z"/>
				<path fill="#388E3B" d="M103.633,232.306c0.112,0.113,0.264,0.172,0.411,0.172c0.148,0,0.3-0.059,0.412-0.172
					c0.229-0.229,0.229-0.6,0-0.824l-8.991-8.991c-0.229-0.229-0.598-0.229-0.822,0c-0.229,0.229-0.229,0.598,0,0.824
					L103.633,232.306z"/>
				<path fill="#388E3B" d="M106.497,225.122c0.117,0,0.233-0.037,0.338-0.107c1.438-1.027,2.871-1.624,4.134-2.148
					c1.19-0.497,2.221-0.925,2.889-1.593c2.258-2.256,2.258-5.926,0-8.184c-1.092-1.094-2.545-1.693-4.09-1.693
					s-2.998,0.603-4.09,1.693c-0.67,0.668-1.099,1.696-1.595,2.891c-0.524,1.263-1.12,2.689-2.147,4.133
					c-0.188,0.262-0.125,0.627,0.137,0.813c0.268,0.188,0.627,0.129,0.813-0.136c1.104-1.546,1.754-3.104,2.274-4.358
					c0.448-1.078,0.836-2.01,1.342-2.516c0.871-0.873,2.031-1.354,3.267-1.354c1.236,0,2.395,0.479,3.268,1.354
					c1.805,1.801,1.805,4.73,0,6.532c-0.504,0.504-1.438,0.892-2.514,1.34c-1.256,0.522-2.814,1.171-4.361,2.277
					c-0.264,0.188-0.316,0.551-0.137,0.813C106.137,225.036,106.314,225.122,106.497,225.122z"/>
				<path fill="#388E3B" d="M115.491,211.455c-1.526-1.53-3.563-2.372-5.728-2.372c-2.162,0-4.194,0.842-5.729,2.372
					c-0.918,0.919-1.362,2.065-1.842,3.278c-0.438,1.123-0.938,2.396-1.896,3.744c-0.189,0.262-0.129,0.625,0.137,0.813
					c0.263,0.188,0.627,0.127,0.813-0.135c1.047-1.465,1.572-2.812,2.037-3.996c0.445-1.145,0.834-2.132,1.58-2.879
					c1.311-1.309,3.049-2.03,4.898-2.03c1.851,0,3.59,0.724,4.896,2.03c1.313,1.309,2.03,3.049,2.03,4.9s-0.721,3.592-2.03,4.898
					c-0.742,0.746-1.729,1.133-2.879,1.581c-1.187,0.464-2.529,0.992-3.994,2.037c-0.263,0.188-0.319,0.551-0.138,0.813
					c0.113,0.158,0.293,0.242,0.479,0.242c0.113,0,0.232-0.033,0.339-0.105c1.346-0.961,2.618-1.459,3.741-1.898
					c1.213-0.477,2.356-0.923,3.276-1.842c1.529-1.528,2.371-3.563,2.371-5.727C117.86,215.018,117.02,212.984,115.491,211.455z"/>
				<path fill="#388E3B" d="M98.735,219.219c-0.229-0.229-0.599-0.229-0.825,0c-0.229,0.229-0.229,0.599,0,0.824l8.991,8.991
					c0.112,0.113,0.266,0.172,0.411,0.172c0.15,0,0.3-0.059,0.412-0.172c0.229-0.229,0.229-0.596,0-0.824L98.735,219.219z"/>
				<path fill="#388E3B" d="M97.098,220.856c-0.227-0.229-0.597-0.229-0.824,0c-0.227,0.228-0.227,0.597,0,0.824l8.992,8.991
					c0.115,0.111,0.267,0.172,0.414,0.172c0.146,0,0.297-0.061,0.412-0.172c0.229-0.229,0.229-0.6,0-0.822L97.098,220.856z"/>
				<path fill="#388E3B" d="M108.967,220.063c-0.845,0.308-1.716,0.623-2.412,1.146c-0.256,0.191-0.31,0.561-0.111,0.814
					c0.189,0.258,0.563,0.313,0.814,0.115c0.555-0.42,1.313-0.691,2.104-0.982c1.03-0.374,2.101-0.764,2.858-1.521
					c0.654-0.658,1.019-1.529,1.019-2.457c0-0.932-0.361-1.803-1.019-2.457c-1.354-1.354-3.563-1.354-4.912,0
					c-0.668,0.668-1.1,1.697-1.592,2.891c-0.524,1.262-1.121,2.693-2.147,4.132c-0.188,0.265-0.127,0.626,0.135,0.813
					c0.104,0.07,0.224,0.105,0.34,0.105c0.183,0,0.359-0.085,0.476-0.242c1.104-1.548,1.754-3.107,2.274-4.361
					c0.449-1.078,0.837-2.008,1.343-2.514c0.896-0.898,2.362-0.898,3.262,0c0.439,0.438,0.678,1.016,0.678,1.633
					c0,0.612-0.234,1.192-0.678,1.631C110.819,219.389,109.919,219.717,108.967,220.063z"/>
			</g>
		</g>
	</g>
	<g>
		<g>
			<g>
				<path fill="#388E3B" d="M113.76,236.743c0.063-0.605-0.097-1.221-0.439-1.723c-0.084-0.123-0.182-0.236-0.281-0.342
					l-2.727-2.805c-0.502-0.514-1.195-0.799-1.916-0.779c-0.715,0.016-1.398,0.328-1.879,0.861l-0.648,0.73l1.229,1.094l0.647-0.729
					c0.179-0.194,0.431-0.313,0.688-0.317c0.265-0.006,0.519,0.1,0.701,0.287l2.726,2.801c0.038,0.039,0.071,0.082,0.104,0.127
					c0.127,0.187,0.187,0.408,0.16,0.631c-0.023,0.279-0.178,0.531-0.404,0.691l-7.235,4.961c-0.222,0.15-0.498,0.203-0.761,0.141
					c-0.229-0.057-0.428-0.191-0.563-0.387c-0.021-0.025-0.035-0.057-0.056-0.086l-0.909-1.684
					c-0.188-0.354-0.142-0.785,0.127-1.084l0.396-0.443l-1.228-1.092l-0.396,0.439c-0.726,0.814-0.86,2.002-0.346,2.959l0.91,1.688
					c0.043,0.08,0.093,0.154,0.145,0.229c0.361,0.529,0.907,0.904,1.527,1.055c0.717,0.174,1.473,0.031,2.076-0.381l7.232-4.965
					C113.276,238.19,113.682,237.505,113.76,236.743z"/>
			</g>
		</g>
		<g>
			<g>
				<path fill="#388E3B" d="M106.495,234.452l-1.228-1.092l-3.184,3.568l1.229,1.094L106.495,234.452z M103.03,236.969
					c-0.104-0.154-0.063-0.365,0.09-0.475c0.153-0.104,0.365-0.064,0.474,0.088c0.104,0.154,0.065,0.365-0.088,0.473
					C103.35,237.161,103.139,237.12,103.03,236.969z"/>
			</g>
		</g>
	</g>
</g>
<g>
	<path fill="#388E3B" d="M86.651,309.217c-0.881,0-1.597-0.717-1.597-1.598c0-0.88,0.715-1.594,1.597-1.594
		c4.396,0,7.975-3.579,7.975-7.978c0-0.881,0.715-1.596,1.594-1.596c0.881,0,1.598,0.715,1.598,1.596
		C97.811,304.207,92.805,309.217,86.651,309.217z"/>
	<path fill="#388E3B" d="M96.218,299.646c-0.879,0-1.594-0.715-1.594-1.595c0-6.155,5.006-11.161,11.162-11.161h7.973
		c0.879,0,1.594,0.713,1.594,1.594s-0.715,1.596-1.594,1.596h-7.973c-4.396,0-7.979,3.576-7.979,7.975
		C97.811,298.932,97.098,299.646,96.218,299.646z"/>
	<path fill="#388E3B" d="M113.759,309.217h-7.973c-2.728,0-5.348-0.988-7.387-2.791c-0.658-0.584-0.726-1.59-0.144-2.25
		c0.582-0.658,1.592-0.723,2.25-0.141c1.457,1.281,3.332,1.99,5.274,1.99h7.974c0.881,0,1.596,0.714,1.596,1.594
		C115.352,308.5,114.637,309.217,113.759,309.217z"/>
	<path fill="#388E3B" d="M93.032,292.516c-0.381,0-0.76-0.137-1.064-0.406c-1.463-1.311-3.35-2.028-5.316-2.028h-1.596
		c-0.879,0-1.594-0.714-1.594-1.595s0.715-1.594,1.594-1.594h1.596c2.752,0,5.396,1.01,7.443,2.84
		c0.654,0.586,0.713,1.597,0.125,2.252C93.905,292.336,93.469,292.516,93.032,292.516z"/>
	<path fill="#388E3B" d="M86.651,309.217h-1.597c-0.879,0-1.594-0.717-1.594-1.598c0-0.88,0.715-1.594,1.594-1.594h1.597
		c0.881,0,1.596,0.714,1.596,1.594C88.247,308.5,87.532,309.217,86.651,309.217z"/>
	<path fill="#388E3B" d="M105.788,296.457c-0.494,0-0.98-0.227-1.291-0.656c-0.521-0.713-0.359-1.709,0.35-2.228l6.998-5.089
		l-6.996-5.088c-0.711-0.521-0.869-1.519-0.352-2.229s1.514-0.871,2.229-0.353l10.541,7.668l-10.543,7.668
		C106.44,296.359,106.11,296.457,105.788,296.457z"/>
	<path fill="#388E3B" d="M105.788,315.594c-0.494,0-0.98-0.229-1.291-0.656c-0.521-0.713-0.359-1.709,0.35-2.229l6.998-5.09
		l-6.996-5.09c-0.711-0.521-0.869-1.516-0.352-2.229c0.517-0.713,1.514-0.866,2.229-0.352l10.541,7.665l-10.543,7.671
		C106.44,315.494,106.11,315.594,105.788,315.594z"/>
</g>
<g>
	<path fill="#388E3B" d="M114.64,321.861H86.089c-1.777,0-3.223,1.447-3.223,3.223v17.574c0,1.777,1.442,3.227,3.223,3.227h28.551
		c1.777,0,3.223-1.445,3.223-3.227v-17.574C117.861,323.309,116.417,321.861,114.64,321.861z M115.849,342.658
		c0,0.666-0.543,1.209-1.209,1.209H86.089c-0.666,0-1.209-0.543-1.209-1.209v-17.574c0-0.664,0.543-1.205,1.209-1.205h28.551
		c0.666,0,1.209,0.54,1.209,1.205V342.658L115.849,342.658z"/>
	<path fill="#388E3B" d="M111.872,327.611h-9.254c-0.445,0-0.808,0.361-0.808,0.805c0,0.445,0.356,0.811,0.808,0.811h9.254
		c0.444,0,0.809-0.36,0.809-0.811C112.679,327.973,112.316,327.611,111.872,327.611z"/>
	<path fill="#388E3B" d="M111.872,338.521h-9.254c-0.445,0-0.808,0.36-0.808,0.807c0,0.443,0.356,0.807,0.808,0.807h9.254
		c0.444,0,0.809-0.359,0.809-0.807C112.677,338.885,112.316,338.521,111.872,338.521z"/>
	<path fill="#388E3B" d="M111.872,332.271h-5.603c-0.444,0-0.81,0.36-0.81,0.807c0,0.443,0.357,0.809,0.81,0.809h5.603
		c0.444,0,0.809-0.361,0.809-0.809C112.677,332.635,112.316,332.271,111.872,332.271z"/>
	<path fill="#388E3B" d="M111.872,335.396h-5.603c-0.444,0-0.81,0.36-0.81,0.805c0,0.445,0.357,0.809,0.81,0.809h5.603
		c0.444,0,0.809-0.359,0.809-0.809C112.679,335.76,112.316,335.396,111.872,335.396z"/>
	<path fill="#388E3B" d="M94.298,334.248c2.285,0,4.143-1.855,4.143-4.143c0-2.283-1.857-4.144-4.143-4.144
		c-2.281,0-4.144,1.854-4.144,4.144C90.154,332.393,92.017,334.248,94.298,334.248z M94.298,327.979
		c1.176,0,2.127,0.955,2.127,2.129c0,1.172-0.951,2.127-2.127,2.127c-1.172,0-2.127-0.954-2.127-2.127
		C92.171,328.934,93.126,327.979,94.298,327.979z"/>
	<path fill="#388E3B" d="M95.902,334.994h-3.18c-2.229,0-4.041,1.813-4.041,4.039v1.736c0,0.559,0.448,1.01,1.008,1.01
		c0.558,0,1.006-0.451,1.006-1.01v-1.736c0-1.119,0.91-2.023,2.027-2.023h3.18c1.117,0,2.024,0.904,2.024,2.023v1.736
		c0,0.559,0.449,1.01,1.009,1.01c0.556,0,1.006-0.451,1.006-1.01v-1.736C99.941,336.805,98.128,334.994,95.902,334.994z"/>
</g>
<g>
	<path fill="#388E3B" d="M106.403,367.297c-1.121-0.645-2.672-1.322-4.648-2.043c-1.797-0.662-2.975-1.217-3.52-1.662
		c-0.549-0.449-0.822-1.09-0.822-1.928c0-0.818,0.285-1.521,0.855-2.1c0.563-0.574,1.316-0.861,2.262-0.861
		c1.871,0,3.25,1.289,4.145,3.867l4.585-1.879c-1.097-3.764-3.503-5.865-7.222-6.313v-3.069H98.71v3.069
		c-2.463,0.347-4.268,1.297-5.414,2.851c-1.145,1.561-1.721,3.313-1.721,5.256c0,1.479,0.322,2.785,0.965,3.904
		c0.644,1.114,1.479,1.979,2.506,2.602c1.029,0.623,2.459,1.248,4.289,1.887c2.033,0.719,3.351,1.313,3.938,1.781
		c0.59,0.469,0.888,1.154,0.888,2.063c0,0.879-0.295,1.627-0.888,2.245c-0.59,0.621-1.517,0.933-2.771,0.933
		c-2.678,0-4.256-1.447-4.731-4.349l-5.146,1.343c1.041,4.608,3.729,7.145,8.086,7.588v3.955h3.328v-3.978
		c2.606-0.272,4.604-1.188,5.985-2.735c1.386-1.55,2.076-3.48,2.076-5.806c0-1.517-0.336-2.834-1.006-3.969
		C108.423,368.826,107.528,367.938,106.403,367.297z"/>
</g>
<g>
	<path fill="#388E3B" d="M107.66,423.296l-0.492,2.006c-1.471,0.582-2.646,1.021-3.521,1.33c-0.875,0.305-1.896,0.455-3.06,0.455
		c-1.778,0-3.168-0.438-4.153-1.306c-0.988-0.872-1.479-1.975-1.479-3.313c0-0.519,0.029-1.051,0.105-1.594
		c0.072-0.546,0.193-1.156,0.357-1.843l1.84-6.513c0.164-0.624,0.305-1.216,0.414-1.771c0.113-0.559,0.166-1.066,0.166-1.527
		c0-0.832-0.172-1.414-0.515-1.738c-0.344-0.326-0.997-0.492-1.969-0.492c-0.478,0-0.965,0.076-1.463,0.228
		c-0.5,0.146-0.929,0.291-1.289,0.424l0.491-2.008c1.205-0.492,2.357-0.912,3.462-1.263c1.104-0.35,2.143-0.522,3.129-0.522
		c1.771,0,3.137,0.43,4.094,1.285c0.959,0.854,1.438,1.965,1.438,3.334c0,0.281-0.03,0.777-0.1,1.494
		c-0.066,0.713-0.189,1.365-0.369,1.963l-1.832,6.484c-0.149,0.521-0.285,1.116-0.401,1.786c-0.121,0.666-0.181,1.175-0.181,1.519
		c0,0.858,0.191,1.445,0.578,1.765c0.387,0.313,1.057,0.468,2.004,0.468c0.445,0,0.953-0.078,1.517-0.231
		C106.996,423.552,107.406,423.413,107.66,423.296z M108.125,396.063c0,1.131-0.426,2.096-1.281,2.89
		c-0.854,0.796-1.883,1.194-3.088,1.194s-2.233-0.398-3.1-1.194c-0.863-0.794-1.297-1.759-1.297-2.89
		c0-1.127,0.434-2.095,1.297-2.898c0.859-0.803,1.895-1.201,3.1-1.201s2.234,0.4,3.088,1.201
		C107.699,393.969,108.125,394.936,108.125,396.063z"/>
</g>
<g>
	<polygon fill="#388E3B" points="87.03,442.144 84.301,442.144 84.301,444.466 87.03,444.466 87.03,450.935 83.938,450.935 
		83.938,453.256 87.03,453.256 87.03,459.726 83.938,459.726 83.938,462.045 87.03,462.045 87.03,469.681 92.442,469.681 
		92.442,434.51 87.03,434.51 	"/>
	<path fill="#388E3B" d="M94.758,434.51v35.173h22.031V434.51H94.758z M105.776,445.011c1.885,0,3.412,1.525,3.412,3.411
		s-1.527,3.413-3.412,3.413s-3.412-1.527-3.412-3.413C102.364,446.538,103.892,445.011,105.776,445.011z M99.59,459.178
		c0-3.415,2.771-6.186,6.187-6.186s6.186,2.771,6.186,6.186H99.59z"/>
</g>
<g>
	<g>
		<g>
			<path fill="#388E3B" d="M39.333,396.021H20.606c-1.27,0-2.303,1.033-2.303,2.304v0.037h-0.037c-1.271,0-2.305,1.031-2.305,2.303
				v0.039h-0.035c-1.271,0-2.305,1.032-2.305,2.305v25.746c0,1.271,1.033,2.305,2.305,2.305h18.725c1.271,0,2.305-1.03,2.305-2.305
				v-0.035h0.037c1.268,0,2.303-1.032,2.303-2.307v-0.036h0.037c1.27,0,2.305-1.034,2.305-2.305v-25.747
				C41.638,397.055,40.603,396.021,39.333,396.021z M35.856,428.754c0,0.666-0.539,1.209-1.205,1.209H15.927
				c-0.666,0-1.209-0.543-1.209-1.209v-9.396h21.139V428.754L35.856,428.754z M35.856,418.258H14.718v-15.25
				c0-0.664,0.543-1.207,1.209-1.207h18.725c0.666,0,1.205,0.543,1.205,1.207V418.258L35.856,418.258z M38.201,426.412
				c0,0.666-0.543,1.207-1.207,1.207h-0.037v-10.604h1.244V426.412L38.201,426.412z M38.201,415.916h-1.244v-12.908
				c0-1.271-1.033-2.305-2.305-2.305H17.058v-0.039c0-0.664,0.545-1.204,1.209-1.204h18.727c0.664,0,1.207,0.54,1.207,1.204V415.916
				L38.201,415.916z M40.538,424.071c0,0.666-0.539,1.207-1.205,1.207h-0.037v-10.604h1.242V424.071z M40.538,413.574h-1.242v-12.91
				c0-1.271-1.035-2.303-2.303-2.303H19.399v-0.037c0-0.664,0.541-1.207,1.207-1.207h18.727c0.666,0,1.205,0.541,1.205,1.207
				L40.538,413.574L40.538,413.574z"/>
		</g>
	</g>
	<g>
		<g>
			<path fill="#388E3B" d="M25.808,415.246l-2.701-9.727c-0.207-0.744-0.893-1.265-1.666-1.265h-1.15
				c-0.773,0-1.459,0.521-1.664,1.265l-2.703,9.727c-0.08,0.295,0.09,0.603,0.383,0.682c0.295,0.082,0.602-0.09,0.684-0.383
				l0.703-2.537h6.352l0.705,2.537c0.064,0.24,0.291,0.4,0.531,0.4c0.049,0,0.1-0.007,0.146-0.021
				C25.72,415.846,25.892,415.541,25.808,415.246z M17.997,411.902l1.689-6.086c0.076-0.271,0.322-0.458,0.604-0.458h1.15
				c0.281,0,0.529,0.188,0.604,0.458l1.691,6.086H17.997z"/>
		</g>
	</g>
	<g>
		<g>
			<path fill="#388E3B" d="M33.583,414.844c-0.02,0-0.035-0.02-0.035-0.037v-2.061v-0.588v-2.646c0-0.305-0.246-0.551-0.551-0.551
				s-0.551,0.246-0.551,0.551v0.232c-0.564-0.488-1.295-0.783-2.098-0.783c-1.764,0-3.199,1.434-3.199,3.195v0.588
				c0,1.766,1.438,3.196,3.199,3.196c0.824,0,1.572-0.313,2.141-0.823c0.139,0.478,0.576,0.823,1.094,0.823
				c0.307,0,0.553-0.245,0.553-0.552C34.136,415.083,33.89,414.844,33.583,414.844z M32.447,412.748
				c0,1.155-0.941,2.098-2.098,2.098c-1.152,0-2.094-0.938-2.094-2.098v-0.588c0-1.154,0.939-2.096,2.094-2.096
				c1.156,0,2.098,0.938,2.098,2.096V412.748z"/>
		</g>
	</g>
	<g>
		<g>
			<path fill="#388E3B" d="M32.997,421.901H17.703c-0.305,0-0.551,0.246-0.551,0.552c0,0.307,0.246,0.555,0.551,0.555h15.294
				c0.305,0,0.551-0.248,0.551-0.555C33.548,422.147,33.302,421.901,32.997,421.901z"/>
		</g>
	</g>
	<g>
		<g>
			<path fill="#388E3B" d="M26.454,426.606h-9.412c-0.303,0-0.551,0.247-0.551,0.554c0,0.305,0.248,0.553,0.551,0.553h9.412
				c0.305,0,0.553-0.248,0.553-0.553C27.007,426.854,26.759,426.606,26.454,426.606z"/>
		</g>
	</g>
	<g>
		<g>
			<path fill="#388E3B" d="M20.574,424.258h-3.531c-0.303,0-0.551,0.246-0.551,0.55c0,0.306,0.248,0.554,0.551,0.554h3.531
				c0.303,0,0.551-0.247,0.551-0.554C21.124,424.504,20.875,424.258,20.574,424.258z"/>
		</g>
	</g>
	<g>
		<g>
			<path fill="#388E3B" d="M32.997,424.258h-9.412c-0.303,0-0.553,0.246-0.553,0.55c0,0.306,0.25,0.554,0.553,0.554h9.412
				c0.305,0,0.551-0.247,0.551-0.554C33.548,424.504,33.302,424.258,32.997,424.258z"/>
		</g>
	</g>
</g>
<g>
	<g>
		<path fill="#388E3B" d="M111.408,489.242c0.473-0.476,0.711-0.901,0.711-1.289c0-0.254-0.102-0.455-0.299-0.604
			c-0.197-0.146-0.406-0.245-0.627-0.289c-0.223-0.044-0.459-0.064-0.713-0.064H87.201c-0.254,0-0.49,0.021-0.711,0.064
			c-0.221,0.047-0.43,0.143-0.629,0.289c-0.197,0.147-0.297,0.352-0.297,0.604c0,0.388,0.236,0.813,0.711,1.289l10.447,10.451
			v12.696h-5.289c-0.287,0-0.533,0.104-0.744,0.313c-0.209,0.209-0.314,0.457-0.314,0.744s0.105,0.535,0.314,0.744
			c0.211,0.207,0.459,0.313,0.744,0.313h14.814c0.287,0,0.53-0.105,0.741-0.313c0.21-0.209,0.313-0.457,0.313-0.744
			s-0.104-0.535-0.313-0.744c-0.211-0.209-0.454-0.313-0.741-0.313h-5.289v-12.696L111.408,489.242z"/>
	</g>
	<g>
		<g>
			<path fill="#388E3B" d="M110.566,483.218c-2.314,0.003-4.268,1.727-4.559,4.021h-0.148c-0.053,0.383-0.105,0.768-0.156,1.146
				h3.676l-1.854,2.342c0.43,0.372,0.813,0.797,1.139,1.26c0.594,0.276,1.244,0.422,1.9,0.422c2.539,0,4.6-2.06,4.6-4.599
				C115.162,485.273,113.104,483.218,110.566,483.218z M110.566,491.26c-0.582,0.004-1.152-0.145-1.662-0.425l2.111-2.665
				c0.197-0.249,0.156-0.61-0.094-0.811c-0.104-0.08-0.229-0.123-0.355-0.123h-3.4c0.318-1.877,2.096-3.145,3.978-2.826
				c1.877,0.315,3.146,2.1,2.821,3.977C113.683,490.048,112.248,491.26,110.566,491.26z"/>
		</g>
	</g>
	<g>
		<g>
			<path fill="#388E3B" d="M103.408,487.813l1.996-6.866h4.387v-1.471h-4.938c-0.322,0-0.607,0.217-0.701,0.529l-2.23,7.688
				C102.414,487.73,102.912,487.771,103.408,487.813z"/>
		</g>
	</g>
</g>
<g>
	<g>
		<g>
			<path fill="#388E3B" d="M113.993,257.401H95.868c-0.887,0-2.362,0.336-2.362,2.613v3.482h22.853v-3.482
				C116.356,257.743,114.877,257.401,113.993,257.401z"/>
		</g>
	</g>
	<g>
		<g>
			<polygon fill="#388E3B" points="88.575,264.255 85.127,264.255 85.127,252.073 82.843,252.073 82.843,275.688 85.127,275.688 
				85.127,269.591 115.599,269.591 115.599,275.684 117.885,275.684 117.885,264.255 			"/>
		</g>
	</g>
	<g>
		<g>
			<circle fill="#388E3B" cx="88.935" cy="260.449" r="3.192"/>
		</g>
	</g>
</g>
<g id="Слой_2">
	
		<linearGradient id="SVGID_1_" gradientUnits="userSpaceOnUse" x1="15.6621" y1="-45.1382" x2="28.9702" y2="-45.1382" gradientTransform="matrix(1 0 0 -1 41.5298 445.7734)">
		<stop  offset="0.1514" style="stop-color:#262626"/>
		<stop  offset="0.4896" style="stop-color:#666666"/>
		<stop  offset="0.8814" style="stop-color:#262626"/>
	</linearGradient>
	<path fill="url(#SVGID_1_)" d="M70.5,511.729c0,0-2.007,1.487-6.84,1.487c-5.948,0-6.468-1.487-6.468-1.487v-43.121
		c0,0,4.907,0.521,6.468,0.521c1.766,0,6.84-0.521,6.84-0.521V511.729z"/>
	<path fill="#333333" d="M61.376,513.131c0.03-0.103,0.028-2.965,0.028-2.965c0-0.544-0.377-0.982-0.843-0.982
		s-0.843,0.438-0.843,0.982c0,0,0.021,2.652,0.05,2.756c0,0,0.551,0.094,0.765,0.119C60.764,513.068,61.376,513.131,61.376,513.131z
		"/>
	<path fill="#333333" d="M66.315,513.052c-0.03-0.101-0.028-2.898-0.028-2.898c0-0.535,0.377-0.97,0.843-0.97
		c0.466,0,0.843,0.435,0.843,0.97c0,0-0.021,2.501-0.05,2.603c0,0-0.545,0.139-0.759,0.165
		C66.933,512.944,66.315,513.052,66.315,513.052z"/>
	
		<linearGradient id="SVGID_2_" gradientUnits="userSpaceOnUse" x1="15.6621" y1="-15.4004" x2="28.9702" y2="-15.4004" gradientTransform="matrix(1 0 0 -1 41.5298 445.7734)">
		<stop  offset="0.1514" style="stop-color:#262626"/>
		<stop  offset="0.4896" style="stop-color:#666666"/>
		<stop  offset="0.8814" style="stop-color:#262626"/>
	</linearGradient>
	<path fill="url(#SVGID_2_)" d="M67.46,453.218h-7.287c0,0-0.518,0.058-0.719,0.144c-0.452,0.193-1.221,0.542-1.455,0.75
		c-0.208,0.186-0.497,0.75-0.667,1.106c-0.085,0.179-0.14,0.641-0.14,0.641v12.751c0,0,4.926,0.521,6.468,0.521
		c1.785,0,6.84-0.521,6.84-0.521V455.95c0,0-0.044-0.515-0.117-0.73c-0.124-0.374-0.332-0.916-0.541-1.106
		c-0.216-0.198-1.031-0.537-1.535-0.733C68.067,453.278,67.46,453.218,67.46,453.218z M68.307,458.844
		c0,0.524-0.434,0.953-0.968,0.953h-6.985c-0.535,0-0.968-0.429-0.968-0.953v-2.929c0-0.524,0.434-0.951,0.968-0.951h6.985
		c0.535,0,0.968,0.427,0.968,0.951V458.844z"/>
	<path fill="#333333" d="M59.655,462.039c-0.03,0.103-0.047,0.208-0.047,0.32v2.313c0,0.543,0.377,0.981,0.843,0.981
		c0.465,0,0.842-0.438,0.842-0.981v-2.313c0-0.112-0.017-0.221-0.047-0.32H59.655z"/>
	<path fill="#333333" d="M66.445,462.039c-0.03,0.103-0.047,0.208-0.047,0.32v2.313c0,0.543,0.377,0.981,0.843,0.981
		c0.465,0,0.842-0.438,0.842-0.981v-2.313c0-0.112-0.017-0.221-0.047-0.32H66.445z"/>
	
		<linearGradient id="SVGID_3_" gradientUnits="userSpaceOnUse" x1="22.3164" y1="-16.2656" x2="22.3164" y2="-8.0847" gradientTransform="matrix(1 0 0 -1 41.5298 445.7734)">
		<stop  offset="0.047" style="stop-color:#404040"/>
		<stop  offset="0.0879" style="stop-color:#000000"/>
		<stop  offset="0.1631" style="stop-color:#BABABA"/>
		<stop  offset="0.5272" style="stop-color:#000000"/>
		<stop  offset="0.7211" style="stop-color:#8A8A8A"/>
		<stop  offset="0.9877" style="stop-color:#000000"/>
	</linearGradient>
	<path opacity="0.59" fill="url(#SVGID_3_)" enable-background="new    " d="M68.762,453.837H58.93
		c-0.857,0-1.552,0.771-1.552,1.722v3.458c0,0,0.264,1.146,0.667,2.029c0.251,0.549,1.61,0.993,1.61,0.993h8.382
		c0,0,1.345-0.426,1.593-0.957c0.413-0.886,0.685-2.065,0.685-2.065v-3.458C70.314,454.605,69.619,453.837,68.762,453.837z
		 M68.307,458.769c0,0.567-0.479,1.027-1.071,1.027h-6.78c-0.591,0-1.071-0.46-1.071-1.027v-2.841c0-0.566,0.479-1.025,1.071-1.025
		h6.78c0.591,0,1.071,0.459,1.071,1.025V458.769z"/>
	<path d="M70.5,468.866c0,0.063-0.05,0.11-0.111,0.11c0,0-4.91,0.299-6.542,0.299c-1.638,0-6.543-0.299-6.543-0.299
		c-0.062,0-0.111-0.05-0.111-0.11l0,0c0-0.063,0.05-0.109,0.111-0.109c0,0,4.905,0.335,6.543,0.335c1.634,0,6.542-0.335,6.542-0.335
		C70.45,468.757,70.5,468.805,70.5,468.866L70.5,468.866z"/>
	
		<linearGradient id="SVGID_4_" gradientUnits="userSpaceOnUse" x1="15.6631" y1="-23.0947" x2="28.9702" y2="-23.0947" gradientTransform="matrix(1 0 0 -1 41.5298 445.7734)">
		<stop  offset="0" style="stop-color:#000000"/>
		<stop  offset="0.2116" style="stop-color:#000000"/>
		<stop  offset="0.5034" style="stop-color:#A6A6A6"/>
		<stop  offset="1" style="stop-color:#000000"/>
		<stop  offset="1" style="stop-color:#404040"/>
		<stop  offset="1" style="stop-color:#000000"/>
	</linearGradient>
	<path fill="url(#SVGID_4_)" d="M70.5,468.719c0,0.063-0.05,0.109-0.111,0.109c0,0-4.91,0.3-6.542,0.3c-1.638,0-6.543-0.3-6.543-0.3
		c-0.062,0-0.111-0.05-0.111-0.109l0,0c0-0.063,0.05-0.11,0.111-0.11c0,0,4.905,0.334,6.543,0.334c1.634,0,6.542-0.334,6.542-0.334
		C70.45,468.606,70.5,468.656,70.5,468.719L70.5,468.719z"/>
	<g>
		
			<linearGradient id="SVGID_5_" gradientUnits="userSpaceOnUse" x1="40.6191" y1="734.791" x2="53.9033" y2="734.791" gradientTransform="matrix(1 0 0 1 16.585 -308.5859)">
			<stop  offset="0.1514" style="stop-color:#FF6600"/>
			<stop  offset="0.4896" style="stop-color:#FFB054"/>
			<stop  offset="0.8814" style="stop-color:#FF6600"/>
		</linearGradient>
		<path fill="url(#SVGID_5_)" d="M70.488,446.982c0,0-2.004,1.484-6.828,1.483c-5.937-0.001-6.456-1.483-6.456-1.483v-43.038
			c0,0,4.897,0.521,6.456,0.521c1.763,0,6.828-0.521,6.828-0.521V446.982z"/>
		<path fill="#E64D00" d="M61.382,448.381c0.03-0.101,0.028-2.958,0.028-2.958c0-0.542-0.377-0.98-0.842-0.98
			c-0.464,0-0.841,0.438-0.841,0.98c0,0,0.02,2.647,0.051,2.749c0,0,0.549,0.094,0.762,0.119
			C60.771,448.319,61.382,448.381,61.382,448.381z"/>
		<path fill="#E64D00" d="M66.31,448.302c-0.029-0.1-0.026-2.896-0.026-2.896c0-0.532,0.375-0.967,0.84-0.967
			c0.464,0,0.841,0.434,0.841,0.967c0,0-0.02,2.496-0.049,2.598c0,0-0.546,0.138-0.76,0.164
			C66.927,448.196,66.31,448.302,66.31,448.302z"/>
		
			<linearGradient id="SVGID_6_" gradientUnits="userSpaceOnUse" x1="40.6201" y1="705.1123" x2="53.9033" y2="705.1123" gradientTransform="matrix(1 0 0 1 16.585 -308.5859)">
			<stop  offset="0.1514" style="stop-color:#FF6600"/>
			<stop  offset="0.4896" style="stop-color:#FFB054"/>
			<stop  offset="0.8814" style="stop-color:#FF6600"/>
		</linearGradient>
		<path fill="url(#SVGID_6_)" d="M67.453,388.585h-7.271c0,0-0.517,0.058-0.719,0.144c-0.45,0.193-1.217,0.539-1.452,0.748
			c-0.206,0.184-0.496,0.748-0.666,1.104c-0.085,0.18-0.14,0.641-0.14,0.641v12.727c0,0,4.917,0.521,6.456,0.521
			c1.78,0,6.827-0.521,6.827-0.521v-12.637c0,0-0.045-0.514-0.116-0.729c-0.125-0.375-0.332-0.915-0.541-1.104
			c-0.215-0.197-1.028-0.537-1.532-0.733C68.059,388.646,67.453,388.585,67.453,388.585z M68.298,394.199
			c0,0.525-0.433,0.951-0.966,0.951H60.36c-0.533,0-0.966-0.426-0.966-0.951v-2.922c0-0.522,0.433-0.95,0.966-0.95h6.973
			c0.533,0,0.966,0.428,0.966,0.95L68.298,394.199L68.298,394.199z"/>
		<path fill="#E64D00" d="M59.664,397.389c-0.03,0.102-0.047,0.209-0.047,0.32v2.31c0,0.542,0.376,0.98,0.841,0.98
			s0.841-0.438,0.841-0.98v-2.31c0-0.111-0.018-0.221-0.047-0.32H59.664z"/>
		<path fill="#E64D00" d="M66.441,397.389c-0.029,0.102-0.047,0.209-0.047,0.32v2.31c0,0.542,0.376,0.98,0.841,0.98
			c0.465,0,0.841-0.438,0.841-0.98v-2.31c0-0.111-0.017-0.221-0.047-0.32H66.441z"/>
		
			<linearGradient id="SVGID_7_" gradientUnits="userSpaceOnUse" x1="47.2612" y1="705.9746" x2="47.2612" y2="697.8103" gradientTransform="matrix(1 0 0 1 16.585 -308.5859)">
			<stop  offset="0.047" style="stop-color:#FF4500"/>
			<stop  offset="0.0879" style="stop-color:#FF6600"/>
			<stop  offset="0.1631" style="stop-color:#FFE345"/>
			<stop  offset="0.5272" style="stop-color:#FF6600"/>
			<stop  offset="0.7211" style="stop-color:#FFED40"/>
			<stop  offset="0.9877" style="stop-color:#FF6600"/>
		</linearGradient>
		<path opacity="0.59" fill="url(#SVGID_7_)" enable-background="new    " d="M68.752,389.202H58.94c-0.855,0-1.55,0.771-1.55,1.719
			v3.451c0,0,0.264,1.146,0.666,2.024c0.25,0.547,1.607,0.992,1.607,0.992h8.365c0,0,1.342-0.424,1.59-0.955
			c0.411-0.885,0.684-2.063,0.684-2.063v-3.451C70.303,389.971,69.607,389.202,68.752,389.202z M68.298,394.127
			c0,0.564-0.479,1.023-1.068,1.023h-6.768c-0.59,0-1.068-0.459-1.068-1.023v-2.837c0-0.563,0.479-1.022,1.068-1.022h6.768
			c0.59,0,1.068,0.459,1.068,1.022V394.127z"/>
		<path fill="#FF4200" d="M70.488,404.204c0,0.062-0.051,0.111-0.111,0.111c0,0-4.9,0.297-6.53,0.297
			c-1.636,0-6.531-0.297-6.531-0.297c-0.061,0-0.111-0.052-0.111-0.111l0,0c0-0.063,0.051-0.11,0.111-0.11
			c0,0,4.896,0.333,6.531,0.333c1.63,0,6.53-0.333,6.53-0.333C70.438,404.094,70.488,404.142,70.488,404.204L70.488,404.204z"/>
		
			<linearGradient id="SVGID_8_" gradientUnits="userSpaceOnUse" x1="40.6201" y1="712.79" x2="53.9033" y2="712.79" gradientTransform="matrix(1 0 0 1 16.585 -308.5859)">
			<stop  offset="0" style="stop-color:#FF6600"/>
			<stop  offset="0.2116" style="stop-color:#FC7800"/>
			<stop  offset="0.5034" style="stop-color:#FFF096"/>
			<stop  offset="1" style="stop-color:#FF6600"/>
			<stop  offset="1" style="stop-color:#404040"/>
			<stop  offset="1" style="stop-color:#000000"/>
		</linearGradient>
		<path fill="url(#SVGID_8_)" d="M70.488,404.054c0,0.063-0.051,0.11-0.111,0.11c0,0-4.9,0.3-6.53,0.3c-1.636,0-6.531-0.3-6.531-0.3
			c-0.061,0-0.111-0.049-0.111-0.11l0,0c0-0.062,0.051-0.109,0.111-0.109c0,0,4.896,0.334,6.531,0.334c1.63,0,6.53-0.334,6.53-0.334
			C70.438,403.944,70.488,403.994,70.488,404.054L70.488,404.054z"/>
	</g>
</g>
</svg>
